<?xml version="1.0" encoding="UTF-8"?>
<svg width="684px" height="906px" viewBox="0 0 684 906" version="1.1" xmlns="http://www.w3.org/2000/svg" xmlns:xlink="http://www.w3.org/1999/xlink">
    <!-- Generator: Sketch 53 (72520) - https://sketchapp.com -->
    <title>17556</title>
    <desc>Created with Sketch.</desc>
    <defs>
        <path d="M84.614,24.437 C77.906,24.437 71.196,24.383 64.489,24.285 C50.095,24.073 35.705,23.653 21.319,23.113 C21.016,23.102 20.674,23.097 20.301,23.097 C19.567,23.097 18.708,23.115 17.767,23.132 C16.826,23.15 15.804,23.167 14.739,23.167 C6.459,23.167 -4.313,22.109 1.951,11.767 C4.658,7.296 10.115,5.411 15.203,4.214 C30.596,0.591 46.52,0.236 62.36,0.236 C64.147,0.236 65.934,0.24 67.718,0.245 C92.397,0.313 117.076,0.404 141.755,0.52 C155.226,0.584 168.818,0.667 181.969,3.586 C186.021,4.485 190.957,6.974 190.396,11.086 C189.995,14.03 186.887,15.716 184.096,16.732 C173.472,20.596 162.055,21.62 150.776,22.378 C128.753,23.855 106.684,24.437 84.614,24.437" id="path-1"></path>
        <linearGradient x1="-0.000337285417%" y1="49.997934%" x2="99.9995651%" y2="49.997934%" id="linearGradient-3">
            <stop stop-color="#D4D3D3" offset="0%"></stop>
            <stop stop-color="#FFFFFF" offset="100%"></stop>
        </linearGradient>
        <path d="M132.11,25.537 C115.708,25.537 99.296,25.2 82.907,24.882 C67.563,24.584 52.217,24.288 36.869,24.288 C35.403,24.288 33.937,24.291 32.471,24.296 C29.467,24.308 22.856,25.054 16.417,25.054 C6.502,25.054 -3,23.284 1.732,14.338 C3.613,10.781 7.675,8.52 11.769,6.969 C21.606,3.243 32.411,2.552 43.213,2.552 C46.505,2.552 49.8,2.617 53.064,2.679 C68.17,2.966 83.278,3.109 98.388,3.109 C133.75,3.109 169.113,2.323 204.43,0.752 C208.872,0.554 213.359,0.349 217.826,0.349 C224.998,0.349 232.118,0.878 238.911,2.816 C241.764,3.63 244.645,4.764 246.515,6.827 C248.386,8.889 248.911,12.096 246.997,14.127 C245.599,15.612 243.316,16.146 241.181,16.58 C222.455,20.38 203.372,22.669 184.224,23.975 C166.878,25.158 149.499,25.537 132.11,25.537" id="path-4"></path>
        <linearGradient x1="-0.000227450296%" y1="50%" x2="99.9998873%" y2="50%" id="linearGradient-6">
            <stop stop-color="#D4D3D3" offset="0%"></stop>
            <stop stop-color="#FFFFFF" offset="100%"></stop>
        </linearGradient>
        <path d="M83.003,0.981 C92.655,1.496 102.456,5.36 107.182,12.28 C109.336,15.435 110.339,19.018 111.316,22.544 C116.613,41.661 121.909,60.778 127.206,79.895 C129.905,89.635 132.599,99.842 129.452,109.492 C125.529,121.516 112.937,130.614 98.975,135.5 C85.013,140.387 69.642,141.702 54.539,142.962 C44.08,143.835 33.621,144.708 23.162,145.581 C19.697,145.87 16.071,146.142 12.841,145.074 C9.738,144.048 7.381,141.891 5.613,139.562 C-3.259,127.872 0.968,112.766 5.472,99.502 C9.756,86.888 14.039,74.273 18.323,61.659 C20.384,55.59 22.484,49.443 26.371,44.01 C31.62,36.674 39.907,30.952 44.466,23.313 C47.864,17.619 48.576,8.669 55.698,5.117 C62.629,1.66 75.252,0.568 83.003,0.981" id="path-7"></path>
    </defs>
    <g id="Page-1" stroke="none" stroke-width="1" fill="none" fill-rule="evenodd">
        <g id="17556">
            <g id="Group-5" transform="translate(78.000000, 757.000000)">
                <mask id="mask-2" fill="white">
                    <use xlink:href="#path-1"></use>
                </mask>
                <g id="Clip-4"></g>
                <path d="M84.614,24.437 C77.906,24.437 71.196,24.383 64.489,24.285 C50.095,24.073 35.705,23.653 21.319,23.113 C21.016,23.102 20.674,23.097 20.301,23.097 C19.567,23.097 18.708,23.115 17.767,23.132 C16.826,23.15 15.804,23.167 14.739,23.167 C6.459,23.167 -4.313,22.109 1.951,11.767 C4.658,7.296 10.115,5.411 15.203,4.214 C30.596,0.591 46.52,0.236 62.36,0.236 C64.147,0.236 65.934,0.24 67.718,0.245 C92.397,0.313 117.076,0.404 141.755,0.52 C155.226,0.584 168.818,0.667 181.969,3.586 C186.021,4.485 190.957,6.974 190.396,11.086 C189.995,14.03 186.887,15.716 184.096,16.732 C173.472,20.596 162.055,21.62 150.776,22.378 C128.753,23.855 106.684,24.437 84.614,24.437" id="Fill-3" fill="url(#linearGradient-3)" mask="url(#mask-2)"></path>
            </g>
            <g id="Group-8" transform="translate(435.000000, 763.000000)">
                <mask id="mask-5" fill="white">
                    <use xlink:href="#path-4"></use>
                </mask>
                <g id="Clip-7"></g>
                <path d="M132.11,25.537 C115.708,25.537 99.296,25.2 82.907,24.882 C67.563,24.584 52.217,24.288 36.869,24.288 C35.403,24.288 33.937,24.291 32.471,24.296 C29.467,24.308 22.856,25.054 16.417,25.054 C6.502,25.054 -3,23.284 1.732,14.338 C3.613,10.781 7.675,8.52 11.769,6.969 C21.606,3.243 32.411,2.552 43.213,2.552 C46.505,2.552 49.8,2.617 53.064,2.679 C68.17,2.966 83.278,3.109 98.388,3.109 C133.75,3.109 169.113,2.323 204.43,0.752 C208.872,0.554 213.359,0.349 217.826,0.349 C224.998,0.349 232.118,0.878 238.911,2.816 C241.764,3.63 244.645,4.764 246.515,6.827 C248.386,8.889 248.911,12.096 246.997,14.127 C245.599,15.612 243.316,16.146 241.181,16.58 C222.455,20.38 203.372,22.669 184.224,23.975 C166.878,25.158 149.499,25.537 132.11,25.537" id="Fill-6" fill="url(#linearGradient-6)" mask="url(#mask-5)"></path>
            </g>
            <path d="M459.143,310.562 C455.728,308.095 452.205,305.825 448.481,303.867 C447.412,303.527 446.335,303.222 445.248,302.95 C443.817,303.463 442.386,303.976 440.948,304.468 C439.696,304.896 438.443,305.211 437.191,305.464 C419.109,332.39 398.751,357.788 376.389,381.281 L376.41,381.305 C376.044,381.627 375.677,381.95 375.319,382.275 C371.402,385.83 366.764,388.586 361.768,390.329 C360.602,390.735 359.257,391.238 358.873,392.412 C358.257,394.294 360.549,395.737 362.416,396.396 C356.973,398.913 352.824,404.069 351.53,409.926 C351.968,411.171 352.648,412.422 353.806,413.058 C355.023,413.724 356.51,413.579 357.879,413.355 C370.721,411.258 382.486,403.577 389.752,392.795 L389.941,392.913 C414.256,371.883 438.572,350.854 462.888,329.825 C464.693,328.263 466.571,326.599 467.377,324.351 C468.364,321.599 467.545,318.577 466.663,315.772 C464.097,314.295 461.622,312.534 459.143,310.562" id="Fill-9" fill="#F2E7D6"></path>
            <path d="M325.222,331.528 C324.266,320.707 323.309,309.885 322.353,299.063 C321.475,289.134 320.238,280.084 321.765,270.247 C322.253,267.108 322.963,263.915 324.633,261.479 C326.847,258.248 330.311,256.763 332.863,253.988 C335.813,250.781 335.175,248.3 334.107,243.794 C337.357,244.679 340.932,244.217 344.535,241.85 C344.644,245.745 343.286,250.463 345.572,253.855 C346.925,255.86 349.234,256.36 351.224,257.3 C355.71,259.417 359.063,264.269 361.031,269.536 C362.998,274.803 363.763,280.521 364.509,286.16 C366.323,299.872 368.388,313.557 369.824,327.316 C370.712,335.823 372.8,344.474 372.107,353.033 C371.226,363.91 364.526,365.042 356.622,367.676 C351.847,369.268 346.689,370.365 341.836,368.553 C335.901,366.337 331.403,360.027 328.973,353.165 C326.543,346.301 325.869,338.85 325.222,331.528" id="Fill-10" fill="#CEE5F2"></path>
            <path d="M333.208,244.177 C333.141,243.046 333.073,241.916 333.006,240.785 C332.96,240.016 332.922,239.204 333.213,238.535 C333.64,237.553 334.637,237.174 335.557,236.963 C337.796,236.449 340.08,236.396 342.367,236.41 C343.444,236.416 344.438,236.537 344.999,237.903 C345.196,238.384 345.271,238.916 345.344,239.438 C345.864,243.171 346.574,247.038 342.794,248.091 C340.797,248.647 338.702,248.78 336.634,248.481 C335.609,248.333 334.49,248.007 333.854,247.009 C333.345,246.209 333.266,245.16 333.208,244.177" id="Fill-11" fill="#65A8DF"></path>
            <path d="M609.283,697.671 C576.622,650.925 544.022,604.083 516.855,555.917 C497.053,520.808 464.98,476.13 472.026,438.135 C477.18,410.34 514.403,383.317 560.586,402.101 C588.136,413.304 575.115,436.715 574.115,454.81 C572.897,476.849 573.995,498.942 577.349,520.896 C583.812,563.192 598.681,604.98 621.688,644.906 C637.001,671.48 642.684,684.235 655.415,711.351 C657.788,716.401 659.922,721.583 660.931,726.802 C662.149,728.287 663.184,729.862 663.573,731.766 C664.703,737.283 660.547,742.393 656.427,746.236 C645.828,756.119 633.42,764.057 620.003,769.534 C615.169,771.508 610.027,773.189 604.824,772.747 C602.267,769.2 604.054,764.038 607.1,760.899 C610.146,757.763 614.224,755.808 617.399,752.803 C625.341,745.283 626.064,733.145 629.809,722.866 C630.054,722.193 630.353,721.518 630.668,720.848 C624.595,715.1 617.487,709.417 609.283,697.671" id="Fill-12" fill="#4D4D4D"></path>
            <path d="M420.174,61.249 C420.144,60.254 420.141,59.199 420.708,58.305 C421.341,57.307 422.552,56.717 423.703,56.205 C439.476,49.185 456.758,45.96 473.8,42.808 C475.602,42.475 477.463,42.14 479.222,42.458 C481.279,42.831 482.951,44.051 484.398,45.357 C491.67,51.914 495.06,61.125 498.084,70.064 C501.835,81.155 505.384,92.655 503.968,104.452 C502.922,113.173 499.204,122.242 502.14,130.389 C484.566,134.45 467.138,139.164 449.919,144.511 C431.491,120.371 421.076,91.214 420.174,61.249" id="Fill-13" fill="#F2E7D6"></path>
            <path d="M514.752,758.627 C523.846,652.252 532.675,490.704 541.768,384.329 C515.417,381.454 487.181,419.95 460.707,420.58 C452.478,420.776 441.455,396.571 439.827,406.579 C438.713,413.433 448.99,446.51 450.021,453.695 C457.083,502.872 465.277,552.507 468.021,602.374 C468.816,616.831 468.422,631.327 468.711,645.805 C469.202,670.398 472.406,694.807 474.795,719.266 C476.491,736.641 488.813,748.055 487.229,756.191 C486.741,758.698 466.26,767.637 458.752,770.755 C456.245,771.796 453.607,772.805 451.756,774.83 C449.906,776.854 449.157,780.259 450.886,782.395 C452.397,784.261 455.069,784.462 457.432,784.488 C475.525,784.683 493.635,783.102 511.435,779.772 C512.502,779.572 513.636,779.331 514.407,778.546 C515.023,777.919 515.312,777.035 515.537,776.175 C517.051,770.386 516.463,764.078 514.043,758.63 C514.279,758.629 514.516,758.628 514.752,758.627" id="Fill-14" fill="#4D4D4D"></path>
            <path d="M471.219,144.788 C473.524,144.121 475.802,143.381 478.068,142.646 C489.448,138.956 500.83,135.267 512.211,131.576 C513.899,131.029 515.705,130.472 517.475,130.785 C518.841,131.027 520.005,131.76 521.091,132.501 C542.346,146.99 548.125,170.548 553.958,191.977 C574.582,267.727 593.742,343.066 585.817,420.368 C535.038,427.7 471.028,435.387 419.516,437.551 C422.382,437.435 428.293,384.487 428.955,379.287 C432.85,348.688 434.943,317.91 434.593,287.128 C434.242,256.227 436.175,225.459 438.829,194.629 C439.901,182.157 441.123,169.694 442.475,157.242 C443.004,152.37 459.677,147.323 463.888,146.557 C466.373,146.104 468.81,145.485 471.219,144.788" id="Fill-15" fill="#AFD9C4"></path>
            <path d="M330.589,332.291 C334.548,327.785 340.669,325.27 346.652,325.691 C345.334,324.213 344.022,321.843 345.47,320.492 C346.373,319.649 347.794,319.857 349.011,320.063 C354.227,320.947 359.62,320.77 364.766,319.546 C365.237,319.434 365.714,319.329 366.189,319.223 L366.183,319.191 C397.526,309.267 428.015,296.645 457.202,281.511 C455.474,271.264 456.458,260.775 457.445,250.43 C458.867,235.536 460.288,220.642 461.71,205.748 C462.256,200.036 463.047,193.795 467.213,189.849 C474.547,182.901 487.739,188.377 491.995,197.539 C496.252,206.7 494.364,217.4 492.392,227.308 C487.236,253.222 482.079,279.136 476.923,305.051 C476.332,308.021 475.617,311.212 473.347,313.216 C471.557,314.796 469.109,315.348 466.774,315.845 C435.33,322.536 403.886,329.227 372.442,335.917 L372.334,335.724 C360.768,341.663 346.758,342.715 334.496,338.357 C333.189,337.893 331.817,337.303 331.072,336.132 C330.365,335.017 330.373,333.593 330.589,332.291" id="Fill-16" fill="#F2E7D6"></path>
            <path d="M391.82,19.633 C395.79,5.82 414.386,0.554 426.441,0.433 C437.055,0.326 447.118,1.796 457.276,4.949 C460.53,5.958 464.109,7.347 467.787,8.531 C473.716,8.02 479.424,6.986 485.521,6.438 C490.609,5.98 495.355,6.747 498.485,11.433 C507.495,24.922 511.75,45.814 513.139,61.873 C513.65,67.777 511.563,79.237 502.784,75.043 C494.438,71.056 488.882,64.344 481.541,58.758 C470.395,50.277 451.56,58.765 439.882,62.074 C412.911,69.716 382.63,51.604 391.82,19.633" id="Fill-17" fill="#8F7B6C"></path>
            <path d="M503.471,250.901 C503.471,250.901 532.431,172.283 489.644,173.057 C446.857,173.829 449.383,238.18 450.852,255.891 C450.852,255.891 499.708,259.871 503.471,250.901" id="Fill-18" fill="#A9D1BD"></path>
            <path d="M363.813,399.377 C367.483,400.506 371.129,401.926 374.175,404.264 C380.61,409.204 383.441,417.41 385.861,425.153 C400.632,472.404 412.595,521.334 410.903,570.811 C410.489,582.92 409.264,595.141 411.312,607.083 C413.686,620.932 420.393,633.912 421.432,647.925 C421.667,651.088 421.583,654.385 420.237,657.257 C418.637,660.671 415.462,663.061 412.237,665.014 C393.091,676.613 369.369,677.297 347.042,675.67 C324.715,674.044 302.098,670.464 280.123,674.731 C274.661,675.792 269.224,677.339 263.66,677.272 C258.097,677.206 252.19,675.2 249.065,670.596 C243.776,662.805 248.574,652.463 252.493,643.9 C259.999,627.501 264.01,609.513 264.182,591.479 C264.247,584.771 271.208,556.515 268.415,550.417 C266.709,546.693 264.193,543.365 262.699,539.551 C259.237,530.71 261.864,525.422 264.38,516.266 C268.645,500.745 265.306,501.953 269.57,486.432 C272.357,476.29 275.172,466.075 279.854,456.657 C283.401,449.526 287.966,442.959 292.514,436.421 C298.348,428.035 304.182,419.649 310.016,411.263 C315.584,403.261 321.022,397.404 330.985,396.303 C341.985,395.087 353.233,396.125 363.813,399.377" id="Fill-19" fill="#00A07B"></path>
            <path d="M351.003,399.981 C360.655,400.496 370.456,404.36 375.182,411.28 C377.336,414.435 378.339,418.018 379.316,421.544 C384.613,440.661 389.91,459.778 395.206,478.895 C397.905,488.635 400.6,498.842 397.452,508.492 C393.529,520.516 380.937,529.614 366.975,534.5 C353.013,539.387 337.642,540.702 322.539,541.962 C312.08,542.835 301.621,543.708 291.162,544.581 C287.698,544.87 284.071,545.142 280.841,544.074 C277.738,543.048 275.381,540.892 273.613,538.562 C264.741,526.872 268.968,511.766 273.472,498.502 C277.756,485.888 282.039,473.273 286.323,460.659 C288.384,454.59 290.484,448.443 294.371,443.01 C299.62,435.674 307.907,429.952 312.466,422.313 C315.864,416.619 316.576,407.669 323.698,404.117 C330.629,400.66 343.252,399.568 351.003,399.981" id="Fill-20" fill="#006E54"></path>
            <path d="M331.105,623.237 C330.634,623.046 330.108,623.068 329.601,623.096 C326.827,623.247 324.058,623.468 321.296,623.76 C321.039,623.788 320.769,623.813 320.531,623.714 C319.782,623.402 319.971,622.299 320.288,621.553 C321.037,619.798 321.785,618.042 322.532,616.288 C322.693,615.912 322.913,615.485 323.316,615.415 C323.941,615.306 324.347,616.126 324.968,616.26 C325.529,616.38 326.065,615.864 326.184,615.303 C326.303,614.742 326.122,614.166 325.944,613.621 C324.968,610.635 323.991,607.649 323.014,604.663 C322.928,604.399 322.83,604.119 322.605,603.956 C322.277,603.717 321.821,603.824 321.433,603.944 C317.884,605.046 314.438,606.481 311.156,608.224 C310.537,608.553 309.825,609.248 310.229,609.822 C311.074,611.025 312.883,610.58 312.626,612.482 C312.399,614.167 310.911,616.066 310.269,617.651 C309.433,619.713 308.891,621.987 309.36,624.162 C309.919,626.755 311.809,628.824 313.626,630.757 C314.454,631.637 315.321,632.545 316.45,632.975 C317.435,633.349 318.521,633.321 319.574,633.271 C323.578,633.079 327.571,632.644 331.523,631.969 C331.771,631.926 332.034,631.875 332.212,631.699 C332.407,631.507 332.453,631.213 332.484,630.941 C332.657,629.445 332.708,627.934 332.634,626.429 C332.573,625.182 332.263,623.707 331.105,623.237" id="Fill-21" fill="#FFFFFF"></path>
            <path d="M335.029,591.188 C335.27,591.313 335.443,591.536 335.606,591.753 C336.553,593.01 337.441,594.312 338.267,595.652 C338.773,596.474 339.215,597.65 338.5,598.297 C337.931,598.812 336.803,598.769 336.658,599.521 C336.521,600.231 337.457,600.609 338.173,600.707 C341.777,601.195 345.381,601.684 348.985,602.172 C349.222,602.204 349.471,602.234 349.691,602.144 C350.106,601.971 350.24,601.461 350.32,601.019 C350.958,597.475 351.469,593.907 351.849,590.326 C351.867,590.157 351.884,589.983 351.836,589.82 C351.715,589.407 351.203,589.214 350.782,589.305 C350.361,589.396 350.018,589.692 349.707,589.99 C349.41,590.274 349.065,590.593 348.656,590.556 C348.286,590.522 348.012,590.208 347.783,589.914 C345.122,586.506 342.497,582.52 338.314,581.427 C336.127,580.856 333.819,581.185 331.583,581.516 C330.049,581.743 328.434,582.005 327.23,582.981 C326.664,583.44 326.223,584.032 325.804,584.628 C324.331,586.727 323.057,588.966 322.003,591.304 C321.471,592.485 319.39,596.719 320.07,597.859 C320.33,598.295 320.834,598.512 321.306,598.702 C322.818,599.311 324.33,599.919 325.842,600.528 C326.448,600.771 327.125,601.017 327.735,600.787 C328.241,600.597 328.575,600.124 328.873,599.673 C330.333,597.455 331.644,595.139 332.795,592.745 C333.016,592.285 333.241,591.81 333.619,591.468 C333.998,591.126 334.577,590.95 335.029,591.188" id="Fill-22" fill="#FFFFFF"></path>
            <path d="M365.513,614.062 C365.211,612.666 363.794,611.873 362.723,610.93 C360.627,609.085 359.633,606.286 357.774,604.204 C357.152,603.506 356.293,602.85 355.373,603.012 C354.905,603.095 354.501,603.379 354.116,603.656 C353.04,604.428 351.964,605.2 350.888,605.972 C350.064,606.564 349.142,607.367 349.282,608.372 C349.334,608.747 349.534,609.083 349.732,609.406 C351.611,612.483 353.618,615.481 355.745,618.392 C356.041,618.796 350.73,619.207 350.379,619.209 C349.742,619.214 348.063,619.68 347.55,619.483 C346.794,619.194 346.94,617.947 346.834,617.062 C346.808,616.846 346.779,616.621 346.653,616.444 C346.394,616.081 345.821,616.085 345.448,616.329 C345.074,616.572 344.848,616.98 344.624,617.366 C343.777,618.829 342.761,620.193 341.603,621.424 C340.686,622.4 339.666,623.309 339.01,624.477 C338.353,625.644 338.129,627.172 338.864,628.292 C339.227,628.847 339.78,629.243 340.321,629.625 C342.034,630.836 343.746,632.047 345.459,633.258 C345.939,633.598 346.435,633.945 347.007,634.078 C347.58,634.211 348.255,634.081 348.606,633.609 C349.096,632.95 348.773,631.957 349.177,631.241 C349.546,630.588 350.376,630.387 351.114,630.25 C353.314,629.839 355.514,629.429 357.714,629.019 C359.427,628.699 361.308,628.278 362.336,626.871 C362.867,626.145 363.093,625.247 363.308,624.373 C363.979,621.644 364.65,618.916 365.321,616.187 C365.493,615.49 365.665,614.763 365.513,614.062" id="Fill-23" fill="#FFFFFF"></path>
            <g id="Group-29" transform="translate(268.000000, 399.000000)">
                <mask id="mask-8" fill="white">
                    <use xlink:href="#path-7"></use>
                </mask>
                <g id="Clip-25"></g>
                <path d="M80.058,183.331 C70.825,177.605 61.593,171.88 52.36,166.154 C43.888,160.901 35.905,156.462 28.95,149.34 C26.73,147.068 24.602,144.585 23.654,141.787 C22.397,138.078 23.286,134.415 22.597,130.708 C21.8,126.425 19.432,125.447 15.187,123.599 C17.843,121.53 19.619,118.392 19.885,114.089 C23.067,116.337 26.028,120.255 30.114,120.46 C32.529,120.58 34.314,119.033 36.26,118.003 C40.644,115.684 46.537,115.911 51.932,117.496 C57.327,119.081 62.361,121.898 67.32,124.683 C79.38,131.456 91.568,138.013 103.439,145.116 C110.779,149.508 118.954,153.026 125.386,158.714 C133.561,165.942 130.448,171.982 127.815,179.887 C126.225,184.663 124.01,189.448 119.649,192.244 C114.316,195.664 106.568,195.479 99.62,193.307 C92.671,191.134 86.304,187.205 80.058,183.331" id="Fill-24" fill="#CEE5F2" mask="url(#mask-8)"></path>
                <path d="M14.953,124.548 C14.008,123.924 13.063,123.3 12.118,122.675 C11.475,122.25 10.802,121.795 10.442,121.16 C9.912,120.229 10.207,119.204 10.59,118.342 C11.522,116.242 12.849,114.383 14.232,112.561 C14.883,111.703 15.575,110.98 17.005,111.351 C17.508,111.481 17.979,111.74 18.44,111.995 C21.739,113.818 25.259,115.569 23.835,119.226 C23.082,121.157 21.932,122.913 20.453,124.388 C19.719,125.12 18.787,125.82 17.607,125.729 C16.661,125.657 15.775,125.091 14.953,124.548" id="Fill-26" fill="#65A8DF" mask="url(#mask-8)"></path>
                <path d="M88.671,141.322 C91.508,141.2 94.03,139.481 96.321,137.826 C98.535,136.226 98.658,135.74 100.872,134.14 C104.297,131.666 102.714,132.979 105.906,130.223 C107.664,128.705 109.488,126.727 109.137,124.378 C109.058,123.805 108.832,123.254 108.56,122.739 C108.363,122.365 107.739,121.741 107.728,121.321 C107.709,120.547 109.865,119.291 110.441,118.812 C110.704,118.593 110.991,118.314 110.94,117.968 C110.92,117.833 110.848,117.708 110.776,117.588 C109.667,115.73 108.352,113.986 106.864,112.4 C106.729,112.257 106.587,112.11 106.405,112.037 C106.022,111.883 105.614,112.1 105.275,112.309 C104.487,112.795 103.698,113.282 102.91,113.769 C101.638,114.554 100.968,114.203 99.8,113.386 C98.661,112.589 97.391,111.913 96.008,111.747 C93.479,111.442 91.175,112.862 89.133,114.26 C83.787,117.918 86.205,116.116 81.244,120.26 C79.24,121.933 76.597,123.458 75.877,126.119 C75.767,126.527 75.694,126.947 75.654,127.373 L75.63,127.369 C73.062,127.113 70.684,128.626 68.573,130.111 C63.047,133.998 53.331,141.55 48.185,145.927 C46.108,147.694 43.381,149.324 42.588,152.077 C41.898,154.473 42.393,157.2 43.591,159.352 C45.292,162.407 47.186,165.542 50.448,166.8 C51.525,167.215 52.648,167.549 53.802,167.601 C57.025,167.748 61.048,164.735 63.64,162.814 C65.931,161.118 72.591,156.009 74.882,154.312 C78.425,151.688 81.972,149.061 85.285,146.152 C86.784,144.836 88.333,143.199 88.671,141.322" id="Fill-27" fill="#CEE5F2" mask="url(#mask-8)"></path>
                <path d="M115.289,115.997 C115.497,115.832 115.71,115.662 115.854,115.438 C116.076,115.093 116.108,114.65 116.019,114.249 C115.93,113.848 115.732,113.48 115.517,113.129 C115.067,112.394 114.54,111.708 114.014,111.024 C113.414,110.245 112.814,109.466 112.19,108.705 C111.891,108.34 111.583,107.976 111.197,107.706 C111.022,107.583 110.822,107.478 110.608,107.479 C110.348,107.479 110.116,107.632 109.901,107.779 C108.564,108.697 107.228,109.616 105.891,110.534 C105.666,110.624 105.439,110.771 105.213,110.989 C105.106,111.092 105.004,111.21 104.968,111.354 C104.876,111.712 105.113,112.209 105.448,112.707 C105.901,113.379 106.533,114.051 106.783,114.382 C107.453,115.273 108.124,116.165 108.795,117.056 C109.171,117.556 110.058,119.189 110.828,119.139 C110.97,119.13 111.099,119.059 111.222,118.983 C111.377,118.934 111.519,118.84 111.654,118.747 C112.906,117.885 114.098,116.94 115.289,115.997" id="Fill-28" fill="#4D81AB" mask="url(#mask-8)"></path>
            </g>
            <path d="M236.381,372.903 C234.005,369.59 229.958,367.913 226.169,366.462 C222.506,365.061 221.826,365.295 218.163,363.893 C212.499,361.725 215.323,362.593 209.502,360.926 C206.297,360.007 202.487,359.372 199.941,361.64 C199.316,362.186 198.832,362.889 198.426,363.621 C198.132,364.152 197.874,365.393 197.378,365.735 C196.462,366.368 193.26,364.765 192.23,364.449 C191.762,364.305 191.2,364.18 190.826,364.513 C190.678,364.644 190.586,364.829 190.498,365.009 C189.138,367.802 188.077,370.752 187.342,373.786 C187.276,374.06 187.212,374.346 187.267,374.623 C187.383,375.204 187.964,375.524 188.481,375.767 C189.685,376.331 190.89,376.895 192.094,377.459 C194.036,378.37 194.141,379.451 194.079,381.496 C194.017,383.491 194.204,385.547 195.091,387.339 C196.713,390.617 200.229,392.267 203.514,393.622 C212.11,397.166 208.045,395.679 216.922,398.38 C220.507,399.471 224.417,401.447 228.178,400.22 C228.756,400.032 229.317,399.789 229.859,399.502 L229.874,399.534 C231.586,402.82 235.273,404.486 238.716,405.855 C247.727,409.438 264.436,415.17 273.738,417.91 C277.494,419.016 281.595,421.01 285.525,419.798 C288.945,418.744 291.832,416.005 293.475,412.874 C295.807,408.431 298.084,403.691 297.031,398.784 C296.683,397.164 296.2,395.552 295.357,394.126 C292.999,390.139 286.217,387.676 281.873,386.071 C278.034,384.653 266.663,380.671 262.824,379.253 C256.887,377.061 250.942,374.865 244.844,373.172 C242.085,372.406 238.902,371.833 236.381,372.903" id="Fill-30" fill="#D3EAF7"></path>
            <path d="M185.039,360.839 C184.676,360.719 184.306,360.597 183.924,360.6 C183.334,360.605 182.778,360.915 182.365,361.336 C181.953,361.758 181.668,362.286 181.415,362.819 C180.885,363.938 180.476,365.11 180.069,366.28 C179.605,367.613 179.14,368.947 178.717,370.293 C178.514,370.939 178.319,371.596 178.297,372.272 C178.288,372.579 178.319,372.902 178.487,373.159 C178.692,373.471 179.058,373.629 179.403,373.771 C181.558,374.654 183.712,375.538 185.866,376.422 C186.15,376.622 186.505,376.778 186.945,376.878 C187.153,376.925 187.374,376.956 187.575,376.886 C188.078,376.714 188.489,376.039 188.823,375.245 C189.274,374.173 189.584,372.886 189.786,372.326 C190.329,370.819 190.873,369.313 191.416,367.807 C191.72,366.962 192.985,364.612 192.32,363.728 C192.197,363.563 192.01,363.464 191.823,363.377 C191.642,363.229 191.417,363.133 191.199,363.043 C189.18,362.218 187.108,361.528 185.039,360.839" id="Fill-31" fill="#4D81AB"></path>
            <path d="M224.745,368.242 C222.59,366.044 219.137,365.731 216.097,366.219 C215.535,366.309 214.962,366.427 214.478,366.728 C213.916,367.078 213.526,367.643 213.184,368.21 C212.37,369.563 211.737,371.025 211.308,372.544 C210.954,373.797 210.738,375.092 210.254,376.3 C209.77,377.508 208.966,378.656 207.784,379.202 C207.368,379.394 206.907,379.512 206.555,379.806 C206.015,380.259 205.863,381.016 205.745,381.711 C205.159,385.143 204.574,388.575 203.989,392.007 C203.833,392.921 203.292,394.507 203.323,395.643 C202.728,397.567 202.491,399.597 202.122,401.685 C201.319,406.241 199.776,410.785 198.144,415.104 C194.877,423.756 190.383,431.945 184.815,439.331 C181.238,444.074 177.236,448.479 173.533,453.125 C172.786,454.062 175.099,457.912 175.048,459.109 C174.96,461.115 176.854,462.597 178.619,463.555 C183.919,466.436 191.033,467.746 195.612,463.819 C196.99,462.638 197.995,461.089 198.932,459.534 C204.009,451.116 207.625,441.917 211.217,432.766 C215.233,422.538 219.293,412.121 220.139,401.166 C220.176,400.687 220.195,400.195 220.201,399.7 C220.273,399.514 220.348,399.329 220.398,399.139 C220.687,398.047 220.69,396.903 220.828,395.783 C221.321,391.795 223.497,388.247 224.913,384.487 C225.763,382.231 226.344,379.876 226.686,377.49 C227.15,374.256 227.032,370.574 224.745,368.242" id="Fill-32" fill="#F9E9DE"></path>
            <path d="M112.177,656.608 C117.908,671.327 117.472,687.688 110.965,702.178 C109.559,705.307 107.904,708.916 109.871,711.825 C111.776,714.641 116.134,715.358 119.953,715.783 C121.342,715.938 122.82,716.082 124.092,715.584 C125.691,714.958 126.536,713.494 127.246,712.134 C129.623,707.589 131.873,702.997 133.996,698.363 C135.716,694.608 137.362,690.799 138.174,686.833 C139.055,682.53 138.939,678.132 138.821,673.768 C138.562,664.201 138.303,654.634 138.043,645.067 C138.01,643.859 137.968,642.614 137.381,641.511 C136.884,640.574 136.024,639.805 135.09,639.145 C130.901,636.175 125.141,635.161 119.672,635.417 C115.005,635.637 104.688,635.991 105.23,640.705 C105.829,645.92 110.236,651.622 112.177,656.608" id="Fill-33" fill="#F9E9DE"></path>
            <path d="M109.535,709.167 C108.384,708.82 107.13,708.475 106.009,708.909 C104.471,709.505 103.82,711.286 103.359,712.87 C100.217,723.667 97.647,734.629 95.666,745.697 C95,749.418 94.398,753.208 94.832,756.962 C94.894,757.495 94.999,758.071 95.4,758.429 C95.787,758.774 96.348,758.825 96.867,758.856 C109.416,759.637 121.984,760.114 134.556,760.289 C137.981,760.336 141.576,760.322 144.589,758.689 C147.6,757.057 149.719,753.238 148.288,750.125 C146.901,747.111 143.067,746.174 139.748,746.181 C136.43,746.187 132.923,746.729 129.937,745.281 C129.371,745.005 128.825,744.653 128.441,744.153 C127.904,743.457 127.734,742.553 127.6,741.683 C126.332,733.412 127.85,726.252 129.216,718.188 C129.946,713.879 126.387,714.261 122.579,713.11 C118.23,711.796 113.883,710.482 109.535,709.167" id="Fill-34" fill="#736357"></path>
            <path d="M168.195,680.466 C167.917,689.456 165.6,698.243 163.297,706.937 C160.713,716.697 158.128,726.458 155.543,736.218 C154.29,740.946 149.804,745.168 150.836,749.949 C150.979,750.611 151.157,751.341 150.828,751.934 C150.533,752.465 149.917,752.718 149.34,752.909 C143.665,754.794 140.487,755.094 135.108,752.481 C133.817,751.854 132.519,751.039 131.872,749.758 C131.204,748.43 131.353,746.853 131.555,745.38 C132.48,738.647 134.171,732.019 136.587,725.665 C139.481,718.05 143.479,710.512 143.365,702.367 C143.314,698.685 142.412,695.073 141.471,691.513 C137.051,674.771 131.666,658.286 125.35,642.163 C124.406,639.751 123.423,637.157 124.018,634.636 C125.004,630.459 129.693,628.47 133.817,627.277 C143.703,624.419 164.373,620.885 164.556,636.014 C164.736,650.883 168.655,665.614 168.195,680.466" id="Fill-35" fill="#F9E9DE"></path>
            <path d="M153.753,375.583 C160.434,382.863 164.435,392.582 167.162,402.442 C169.685,411.569 171.245,421.18 170.172,430.64 C169.099,440.101 165.156,449.434 158.255,455.285 C151.702,460.842 143.209,462.796 134.977,463.964 C129.041,464.805 122.706,465.252 117.361,462.314 C114.535,460.76 112.18,458.354 110.062,455.79 C93.803,436.104 90.858,404.736 103.122,381.866 C114.298,361.025 137.94,358.354 153.753,375.583" id="Fill-36" fill="#F9E9DE"></path>
            <path d="M174.185,442.157 C169.99,447.865 166.835,454.43 161.642,459.248 C155.313,465.118 146.64,467.745 138.126,469.165 C128.609,470.754 118.067,471.432 111.129,478.136 C105.973,483.118 103.92,490.556 103.515,497.715 C103.11,504.873 104.13,512.038 104.074,519.208 C103.962,533.871 99.376,548.108 97.576,562.662 C95.067,582.943 97.998,603.459 100.925,623.685 C102.378,633.729 103.831,643.775 105.284,653.819 C125.35,657.518 146.24,656.671 165.94,651.363 C168.494,650.674 171.127,649.857 173.056,648.05 C178.632,642.826 175.225,633.734 172.809,626.486 C165.676,605.085 171.08,581.837 172.042,559.299 C172.656,544.908 171.419,530.511 170.907,516.115 C170.813,513.475 170.749,510.786 171.462,508.241 C172.32,505.177 174.242,502.538 176.134,499.979 C182.848,490.896 189.646,481.877 196.528,472.921 C201.458,466.506 210.29,458.305 211.243,449.785 C212.17,441.493 203.675,434.541 196.41,432.223 C187.273,429.31 179.409,435.048 174.185,442.157" id="Fill-37" fill="#EBEFEB"></path>
            <path d="M117.738,478.311 C112.574,483.801 111.996,492.04 111.699,499.571 C111.333,508.902 110.966,518.234 110.6,527.564 C110.366,533.541 110.228,539.915 113.346,545.019 C115.522,548.581 119.09,551.117 122.911,552.798 C137.005,559.001 155.306,553.034 163.037,539.716 C167.529,531.979 168.544,522.707 168.425,513.761 C168.402,512.044 168.414,510.128 169.6,508.886 C171.422,506.978 174.919,508.114 176.274,510.377 C177.63,512.642 177.477,515.464 177.275,518.096 C174.131,559.357 169.902,601.333 178.804,641.746 C179.301,644.004 179.787,646.558 178.493,648.472 C177.767,649.544 176.596,650.216 175.454,650.827 C155.292,661.602 131.163,664.742 108.915,659.485 C107.255,659.093 105.532,658.617 104.283,657.454 C102.701,655.982 102.193,653.72 101.764,651.601 C98.903,637.476 96.042,623.351 93.18,609.226 C91.903,602.921 90.622,596.583 90.376,590.156 C89.333,562.689 107.164,536.373 102.887,509.221 C101.561,500.803 98.177,491.925 101.57,484.106 C104.326,477.755 110.894,473.967 117.357,471.489 C123.285,469.215 130.453,466.829 136.794,467.043 C132.757,472.575 122.803,472.927 117.738,478.311" id="Fill-38" fill="#537082"></path>
            <path d="M160.261,721.957 C161.105,722.04 162.018,722.153 162.632,722.739 C163.501,723.567 163.409,724.955 163.253,726.146 C162.562,731.423 161.871,736.698 161.179,741.974 C160.216,749.317 159.877,758.208 165.889,762.531 C168.882,764.682 172.752,765.074 176.424,765.395 C180.096,765.715 183.966,766.104 186.959,768.256 C189.953,770.408 191.543,774.967 189.279,777.876 C187.488,780.178 184.203,780.541 181.288,780.645 C164.136,781.258 146.895,779.324 130.305,774.926 C129.75,774.78 129.172,774.617 128.749,774.229 C127.99,773.531 127.968,772.361 128.004,771.331 C128.508,756.858 129.402,742.237 131.449,727.89 C132.241,722.35 133.502,719.927 139.398,719.931 C146.277,719.935 153.412,721.281 160.261,721.957" id="Fill-39" fill="#736357"></path>
            <path d="M168.742,380.549 C172.957,387.451 174.629,395.644 174.995,403.723 C172.402,401.7 168.617,401.348 165.695,402.857 C164.454,403.499 163.37,404.439 162.066,404.937 C159.711,405.834 157.067,405.157 154.565,405.459 C152.409,405.72 150.418,406.701 148.398,407.501 C143.369,409.493 137.917,410.41 132.513,410.174 C131.211,410.117 129.866,409.999 128.638,410.436 C126.732,411.111 125.517,412.965 124.66,414.796 C120.04,424.66 122.187,436.874 128.559,445.707 C134.933,454.54 144.986,460.227 155.513,463.019 C148.257,468.047 138.964,468.802 130.151,469.326 C123.145,469.743 116.135,470.117 109.119,470.281 C103.68,470.408 97.938,470.332 93.25,467.573 C85.673,463.115 83.391,453.391 81.99,444.712 C80.054,432.726 78.432,420.576 79.352,408.468 C80.272,396.36 83.908,384.178 91.517,374.715 C93.712,371.985 96.228,369.497 99.1,367.492 C104.173,363.951 110.208,362.021 116.285,360.868 C134.83,357.351 158.289,363.433 168.742,380.549" id="Fill-40" fill="#EBC388"></path>
            <path d="M300.604,784.425 C310.852,780.817 321.099,777.21 331.347,773.603 C340.749,770.293 349.211,766.853 359.12,765.895 C362.281,765.589 365.55,765.486 368.324,766.501 C372.003,767.846 374.3,770.833 377.621,772.619 C381.458,774.682 383.704,773.45 387.805,771.299 C387.753,774.667 389.086,778.017 392.272,780.92 C388.526,781.991 383.617,781.843 380.898,784.899 C379.29,786.706 379.378,789.067 378.96,791.229 C378.021,796.099 374.151,800.549 369.536,803.76 C364.919,806.971 359.57,809.129 354.292,811.248 C341.456,816.402 328.709,821.793 315.734,826.593 C307.712,829.561 299.848,833.727 291.385,835.176 C280.629,837.017 277.873,830.806 273.362,823.801 C270.637,819.569 268.296,814.844 268.849,809.694 C269.526,803.395 274.525,797.473 280.572,793.419 C286.619,789.365 293.671,786.865 300.604,784.425" id="Fill-41" fill="#E4F0F7"></path>
            <path d="M387.212,770.522 C388.291,770.177 389.369,769.832 390.448,769.487 C391.181,769.252 391.958,769.013 392.679,769.13 C393.736,769.3 394.35,770.173 394.782,771.011 C395.835,773.053 396.452,775.253 397.005,777.472 C397.266,778.517 397.396,779.51 396.211,780.392 C395.794,780.702 395.297,780.906 394.809,781.106 C391.321,782.535 387.751,784.18 385.794,780.78 C384.76,778.982 384.113,776.986 383.89,774.908 C383.78,773.879 383.818,772.713 384.628,771.85 C385.277,771.159 386.274,770.823 387.212,770.522" id="Fill-42" fill="#65A8DF"></path>
            <path d="M420.496,836.753 C409.726,835.326 398.956,833.899 388.186,832.473 C378.305,831.164 369.203,830.397 359.935,826.762 C356.978,825.602 354.017,824.213 352.004,822.052 C349.333,819.186 348.639,815.481 346.488,812.385 C344.002,808.808 341.441,808.889 336.811,808.949 C338.383,805.97 338.712,802.38 337.187,798.348 C341.012,799.09 345.321,801.445 349.13,799.954 C351.382,799.071 352.373,796.927 353.725,795.188 C356.768,791.272 362.235,789.058 367.804,788.287 C373.374,787.516 379.121,788.016 384.786,788.517 C398.564,789.737 412.37,790.707 426.111,792.306 C434.608,793.294 443.506,793.143 451.707,795.686 C462.13,798.917 461.773,805.703 462.621,813.991 C463.133,818.999 463.08,824.271 460.253,828.612 C456.796,833.921 449.657,836.936 442.429,837.81 C435.201,838.685 427.782,837.718 420.496,836.753" id="Fill-43" fill="#CEE5F2"></path>
            <path d="M336.988,809.91 C335.87,809.729 334.752,809.548 333.634,809.367 C332.873,809.244 332.073,809.105 331.483,808.675 C330.618,808.043 330.466,806.987 330.46,806.044 C330.447,803.747 330.894,801.506 331.405,799.277 C331.646,798.227 331.981,797.284 333.436,797.035 C333.949,796.947 334.484,796.989 335.01,797.032 C338.766,797.339 342.695,797.49 342.899,801.408 C343.006,803.478 342.679,805.551 341.936,807.504 C341.568,808.473 341.006,809.494 339.893,809.896 C339.001,810.219 337.96,810.067 336.988,809.91" id="Fill-44" fill="#65A8DF"></path>
            <path d="M39.994,803.93 C50.854,803.658 61.715,803.386 72.576,803.114 C82.541,802.865 91.651,802.201 101.372,804.345 C104.474,805.029 107.615,805.939 109.941,807.76 C113.026,810.173 114.29,813.724 116.899,816.446 C119.913,819.592 122.429,819.112 126.993,818.331 C125.905,821.518 126.141,825.116 128.276,828.86 C124.383,828.724 119.759,827.07 116.229,829.139 C114.143,830.362 113.498,832.634 112.435,834.562 C110.04,838.905 104.986,841.946 99.605,843.577 C94.224,845.208 88.47,845.611 82.795,846 C68.996,846.946 55.208,848.144 41.385,848.709 C32.839,849.059 24.074,850.597 15.576,849.366 C4.776,847.801 4.069,841.043 1.938,832.989 C0.651,828.122 -0.119,822.906 1.995,818.177 C4.581,812.394 11.162,808.301 18.165,806.309 C25.167,804.317 32.646,804.114 39.994,803.93" id="Fill-45" fill="#C8DEEB"></path>
            <path d="M126.668,817.409 C127.801,817.413 128.933,817.417 130.066,817.421 C130.837,817.424 131.649,817.437 132.299,817.77 C133.252,818.258 133.567,819.277 133.719,820.208 C134.091,822.475 134,824.758 133.842,827.04 C133.768,828.114 133.585,829.098 132.186,829.572 C131.694,829.738 131.158,829.78 130.632,829.82 C126.874,830.103 122.97,830.567 122.157,826.729 C121.728,824.701 121.727,822.602 122.156,820.557 C122.369,819.543 122.765,818.446 123.801,817.875 C124.632,817.417 125.684,817.405 126.668,817.409" id="Fill-46" fill="#65A8DF"></path>
            <path d="M230.758,856.541 C233.073,858.186 236.119,858.376 238.943,858.475 C241.673,858.571 242.069,858.263 244.799,858.358 C249.021,858.506 246.965,858.572 251.177,858.354 C253.497,858.235 256.151,857.792 257.315,855.722 C257.604,855.222 257.764,854.648 257.866,854.074 C257.939,853.658 257.829,852.782 258.078,852.444 C258.539,851.821 261.011,852.152 261.761,852.128 C262.102,852.117 262.501,852.072 262.672,851.768 C262.74,851.648 262.759,851.506 262.776,851.367 C263.041,849.22 263.072,847.036 262.871,844.871 C262.853,844.675 262.83,844.472 262.731,844.302 C262.523,843.945 262.068,843.866 261.672,843.823 C260.751,843.723 259.83,843.624 258.909,843.524 C257.423,843.364 257.11,842.675 256.689,841.313 C256.278,839.985 255.69,838.672 254.701,837.692 C252.891,835.899 250.201,835.607 247.73,835.457 C241.264,835.065 244.279,835.126 237.819,835.353 C235.21,835.445 232.187,835.027 229.986,836.686 C229.648,836.94 229.334,837.228 229.041,837.539 L229.024,837.521 C227.153,835.743 224.347,835.479 221.769,835.356 C215.021,835.033 202.715,835.034 195.966,835.332 C193.241,835.452 190.089,835.065 187.773,836.752 C185.757,838.22 184.475,840.678 184.1,843.112 C183.568,846.567 183.139,850.206 184.943,853.2 C185.539,854.189 186.221,855.142 187.099,855.891 C189.554,857.985 194.58,858.075 197.805,858.15 C200.656,858.216 209.049,858.269 211.899,858.335 C216.306,858.438 220.72,858.54 225.121,858.276 C227.112,858.157 229.339,857.815 230.758,856.541" id="Fill-47" fill="#CEE5F2"></path>
            <path d="M267.316,852.88 C267.582,852.877 267.854,852.874 268.104,852.786 C268.492,852.649 268.789,852.32 268.965,851.948 C269.141,851.577 269.21,851.165 269.256,850.756 C269.352,849.899 269.356,849.034 269.36,848.172 C269.365,847.188 269.37,846.205 269.344,845.221 C269.332,844.75 269.312,844.273 269.173,843.823 C269.11,843.618 269.016,843.413 268.847,843.282 C268.642,843.122 268.365,843.101 268.105,843.085 C266.486,842.99 264.867,842.895 263.248,842.8 C263.015,842.732 262.746,842.71 262.433,842.743 C262.286,842.759 262.133,842.789 262.016,842.88 C261.724,843.107 261.606,843.645 261.565,844.244 C261.51,845.052 261.597,845.971 261.59,846.385 C261.573,847.5 261.556,848.616 261.539,849.731 C261.529,850.357 261.227,852.191 261.865,852.624 C261.983,852.704 262.129,852.727 262.272,852.742 C262.424,852.799 262.594,852.812 262.759,852.821 C264.276,852.908 265.796,852.894 267.316,852.88" id="Fill-48" fill="#4D81AB"></path>
            <path d="M479.092,892.52 C482.543,893.94 486.501,893.28 490.147,892.58 C493.672,891.89 494.088,891.38 497.613,890.69 C503.064,889.63 500.449,890.32 505.78,888.8 C508.715,887.96 511.983,886.61 512.862,883.61 C513.084,882.88 513.119,882.1 513.079,881.34 C513.05,880.78 512.65,879.69 512.869,879.19 C513.274,878.25 516.539,877.95 517.492,877.69 C517.926,877.58 518.423,877.4 518.552,876.96 C518.603,876.79 518.586,876.6 518.566,876.42 C518.27,873.589 517.664,870.783 516.765,868.069 C516.684,867.824 516.595,867.57 516.418,867.383 C516.046,866.987 515.44,867.02 514.92,867.082 C513.711,867.228 512.502,867.373 511.293,867.518 C509.343,867.752 508.737,866.963 507.795,865.343 C506.875,863.764 505.734,862.256 504.177,861.294 C501.328,859.533 497.796,859.955 494.588,860.495 C486.191,861.907 490.07,861.092 481.864,863.295 C478.55,864.185 474.554,864.544 472.227,867.32 C471.869,867.747 471.551,868.208 471.269,868.693 L471.242,868.676 C468.319,866.952 464.647,867.444 461.309,868.049 C452.571,869.633 436.812,873.276 428.256,875.66 C424.802,876.62 420.65,877.05 418.183,879.9 C416.036,882.38 415.121,885.9 415.362,889.13 C415.704,893.71 416.231,898.5 419.427,901.8 C420.483,902.89 421.639,903.91 422.986,904.61 C426.749,906.57 433.212,905.19 437.365,904.33 C441.035,903.58 451.8,901.16 455.47,900.4 C461.145,899.23 466.828,898.05 472.386,896.41 C474.901,895.67 477.652,894.57 479.092,892.52" id="Fill-49" fill="#CEE5F2"></path>
            <path d="M524.829,877.01 C525.169,876.93 525.515,876.84 525.81,876.66 C526.266,876.37 526.549,875.86 526.665,875.33 C526.781,874.803 526.746,874.254 526.684,873.717 C526.554,872.591 526.303,871.482 526.053,870.376 C525.768,869.115 525.483,867.854 525.159,866.603 C525.004,866.003 524.837,865.397 524.526,864.862 C524.385,864.619 524.204,864.383 523.949,864.265 C523.638,864.122 523.277,864.176 522.94,864.234 C520.838,864.591 518.736,864.948 516.635,865.306 C516.317,865.288 515.965,865.339 515.575,865.474 C515.391,865.538 515.204,865.622 515.081,865.773 C514.775,866.15 514.782,866.874 514.907,867.653 C515.076,868.704 515.459,869.855 515.574,870.388 C515.881,871.822 516.19,873.255 516.498,874.689 C516.67,875.49 516.827,877.93 517.772,878.3 C517.947,878.36 518.14,878.35 518.328,878.33 C518.54,878.35 518.761,878.32 518.975,878.28 C520.943,877.95 522.887,877.48 524.829,877.01" id="Fill-50" fill="#4D81AB"></path>
        </g>
    </g>
</svg>