<svg width="1078" height="758" viewBox="0 0 1078 758" fill="none" xmlns="http://www.w3.org/2000/svg">
<g clip-path="url(#clip0)">
<path opacity="0.2" d="M663.83 91.84C617.58 124.22 557.59 122.13 505.02 105.28C452.45 88.43 404.16 58.43 352.94 37.11C310.249 19.3042 265.271 7.57976 219.32 2.27998C154.04 -5.19002 81.14 3.90998 35.66 56.28C-14.99 114.57 -11.1 219.73 43.66 273.28C71.53 300.5 108.02 313.86 139.84 335.11C171.66 356.36 201.14 391.63 198.43 432.63C195.92 470.63 166.75 499.75 136.56 518.04C113.23 532.17 84.5 547.6 81.69 576.87C78.97 605.19 103.13 627.38 126.2 640C201.46 681.18 294.2 680.78 369.2 639C395.94 624.05 420.5 604.21 448.55 592.63C522.2 562.11 603.36 592.84 681.35 604.07C747.618 613.564 815.155 608.649 879.35 589.66C917.97 578.25 956.74 560.81 983.87 528.32C1003.44 504.89 1015.63 475.25 1027.07 445.96C1039.27 414.74 1051 383.297 1062.26 351.63C1069.01 332.63 1075.66 313.25 1077.41 292.91C1080.57 256.06 1067.25 219.63 1049.11 188.53C1006.04 114.63 933.5 62.71 854.94 49.52C776.38 36.33 693.27 62.09 632.34 118.46" fill="#3B9E74"/>
<g opacity="0.1">
<path opacity="0.1" d="M540.65 103.4L536.84 324.4C536.84 324.4 674.76 324.4 792.11 362.5L794.39 139.24C794.39 139.24 606.18 94.25 540.65 103.4Z" fill="black"/>
</g>
<path d="M537.65 99.4L533.84 320.4C533.84 320.4 671.76 320.4 789.11 358.5L791.39 135.24C791.39 135.24 603.18 90.25 537.65 99.4Z" fill="#3B9E74"/>
<g opacity="0.1">
<path opacity="0.1" d="M471.41 109.73L475.22 330.73C475.22 330.73 337.3 330.73 219.96 368.83L217.67 145.57C217.67 145.57 405.88 100.63 471.41 109.73Z" fill="black"/>
</g>
<path opacity="0.9" d="M474.41 104.73L478.22 325.73C478.22 325.73 340.3 325.73 222.96 363.83L220.67 140.57C220.67 140.57 408.88 95.63 474.41 104.73Z" fill="#ABC722"/>
<g opacity="0.36">
<path opacity="0.2" d="M412.46 130.51L414.51 249.02C414.51 249.02 340.51 249.02 277.61 269.45L276.38 149.72C276.38 149.72 377.32 125.63 412.46 130.51Z" fill="#FCFCFC"/>
</g>
<g opacity="0.1">
<path opacity="0.1" d="M875.68 184.69V403.38C875.68 403.38 920.68 398.04 1015.13 514.63L1023.51 295.94C1023.51 295.94 925.21 190.02 875.68 184.69Z" fill="black"/>
</g>
<path d="M873.68 181.69V400.38C873.68 400.38 918.68 395.04 1013.13 511.63L1021.51 292.94C1021.51 292.94 923.21 187.02 873.68 181.69Z" fill="#ABC722"/>
<g opacity="0.1">
<path opacity="0.1" d="M148.33 185.69V404.38C148.33 404.38 103.37 399.04 8.94001 515.63L0.51001 296.94C0.51001 296.94 98.8 191.02 148.33 185.69Z" fill="black"/>
</g>
<path opacity="0.8" d="M151.33 181.69V400.38C151.33 400.38 106.37 395.04 11.94 511.63L3.51001 292.94C3.51001 292.94 101.8 187.02 151.33 181.69Z" fill="#3B9E74"/>
<g opacity="0.2">
<path opacity="0.2" d="M574.5 145.37L667.93 162.08V175.69L574.5 157.75V145.37Z" fill="#6C63FF"/>
</g>
<path d="M394.5 276.87L301.08 293.58V307.19L394.5 289.25V276.87Z" fill="white"/>
<path d="M575.74 170.74L746.5 206.01V219.62L575.74 183.12V170.74Z" fill="white"/>
<path d="M575.74 196.11L746.5 231.37V244.99L575.74 208.48V196.11Z" fill="white"/>
<g opacity="0.2">
<path opacity="0.2" d="M913.5 252.31V264.32L950.13 294.08L951.85 283.78L913.5 252.31Z" fill="#6C63FF"/>
</g>
<path d="M913.5 368.31V380.32L950.13 410.08L951.85 399.78L913.5 368.31Z" fill="white"/>
<path d="M914.08 272.91L913.5 284.93L982.75 350.16L981.61 336.43L914.08 272.91Z" fill="white"/>
<path d="M913.5 295.23V306.67L982.75 373.06V358.18L913.5 295.23Z" fill="white"/>
<g opacity="0.5">
<path opacity="0.2" d="M110.93 254.91L111.5 266.93L42.26 332.16L43.4 318.43L110.93 254.91Z" fill="#FCFCFC"/>
</g>
<g opacity="0.5">
<path opacity="0.2" d="M111.5 277.23V288.67L42.26 355.06V340.18L111.5 277.23Z" fill="#FCFCFC"/>
</g>
<path opacity="0.1" d="M204.61 632.14C236.09 632.14 261.61 627.546 261.61 621.88C261.61 616.214 236.09 611.62 204.61 611.62C173.13 611.62 147.61 616.214 147.61 621.88C147.61 627.546 173.13 632.14 204.61 632.14Z" fill="#3B9E74"/>
<path d="M69.4299 565.47C69.4299 565.47 74.9199 572.65 66.8899 583.47C58.8599 594.29 52.2399 603.47 54.8899 610.23C54.8899 610.23 66.9999 590.09 76.8899 589.81C86.7799 589.53 80.2799 577.63 69.4299 565.47Z" fill="#3B9E74"/>
<path opacity="0.1" d="M69.4299 565.47C69.911 566.161 70.2883 566.919 70.5499 567.72C80.1699 579.02 85.2999 589.57 76.0499 589.84C67.4399 590.08 57.0499 605.49 54.6299 609.38C54.7099 609.67 54.8099 609.97 54.9199 610.26C54.9199 610.26 67.0299 590.12 76.9199 589.84C86.8099 589.56 80.2799 577.63 69.4299 565.47Z" fill="black"/>
<path d="M79.6401 574.63C79.6401 577.16 79.3601 579.21 79.0101 579.21C78.6601 579.21 78.3701 577.16 78.3701 574.63C78.3701 572.1 78.7301 573.29 79.0801 573.29C79.4301 573.29 79.6401 572.09 79.6401 574.63Z" fill="#FFD037"/>
<path d="M83.15 577.63C80.93 578.84 78.99 579.57 78.82 579.27C78.65 578.97 80.32 577.73 82.54 576.52C84.76 575.31 83.88 576.19 84.05 576.52C84.22 576.85 85.37 576.43 83.15 577.63Z" fill="#FFD037"/>
<path d="M40.4099 565.47C40.4099 565.47 34.9399 572.63 42.9399 583.5C50.9399 594.37 57.5899 603.5 54.9399 610.26C54.9399 610.26 42.8299 590.12 32.9399 589.84C23.0499 589.56 29.5699 577.63 40.4099 565.47Z" fill="#3B9E74"/>
<path opacity="0.1" d="M40.41 565.47C39.9333 566.164 39.5563 566.921 39.29 567.72C29.67 579.02 24.54 589.57 33.79 589.84C42.41 590.08 52.79 605.49 55.21 609.38C55.1315 609.679 55.0346 609.973 54.92 610.26C54.92 610.26 42.81 590.12 32.92 589.84C23.03 589.56 29.57 577.63 40.41 565.47Z" fill="black"/>
<path d="M30.2 574.63C30.2 577.16 30.4799 579.21 30.8299 579.21C31.1799 579.21 31.4699 577.16 31.4699 574.63C31.4699 572.1 31.1099 573.29 30.7599 573.29C30.4099 573.29 30.2 572.09 30.2 574.63Z" fill="#FFD037"/>
<path d="M26.6999 577.63C28.9199 578.84 30.8499 579.57 31.0199 579.27C31.1899 578.97 29.5199 577.73 27.2999 576.52C25.0799 575.31 25.9599 576.19 25.7899 576.52C25.6199 576.85 24.4799 576.43 26.6999 577.63Z" fill="#FFD037"/>
<path d="M31.9399 609.32C31.9399 609.32 47.2999 608.85 51.9399 605.55C56.5799 602.25 75.5599 598.32 76.7099 603.61C77.8599 608.9 99.7899 629.9 82.4499 630.04C65.1099 630.18 42.1599 627.34 37.5399 624.52C32.9199 621.7 31.9399 609.32 31.9399 609.32Z" fill="#A8A8A8"/>
<path opacity="0.2" d="M82.76 628.2C65.42 628.34 42.47 625.5 37.85 622.68C34.33 620.54 32.9299 612.85 32.4599 609.3H31.95C31.95 609.3 32.9499 621.69 37.5399 624.5C42.1299 627.31 65.1099 630.16 82.4499 630.02C87.4499 630.02 89.1899 628.2 89.0899 625.56C88.3999 627.17 86.49 628.17 82.76 628.2Z" fill="black"/>
<path opacity="0.1" d="M600.5 486.81C652.415 486.81 694.5 479.602 694.5 470.71C694.5 461.818 652.415 454.61 600.5 454.61C548.585 454.61 506.5 461.818 506.5 470.71C506.5 479.602 548.585 486.81 600.5 486.81Z" fill="#3B9E74"/>
<path d="M581.54 253.42C581.081 254.398 580.745 255.429 580.54 256.49C580.48 256.757 580.42 257.037 580.36 257.33C579.76 260.39 579.36 264.24 579.15 266.48C579.05 267.6 579 268.32 579 268.32C579 268.32 557.31 266.87 561.07 263.23C562.039 262.225 562.729 260.984 563.07 259.63C563.18 259.24 563.27 258.85 563.35 258.45C563.529 257.542 563.646 256.624 563.7 255.7C563.7 255.47 563.7 255.24 563.7 255C563.749 253.5 563.679 251.999 563.49 250.51C563.49 250.51 570.54 250.51 575.86 251.08C579.44 251.49 582.23 252.2 581.54 253.42Z" fill="#D38884"/>
<path d="M543.94 356.63C536.55 356.39 542 341 542.85 338.93C543.7 336.86 541.59 331.79 541.59 331.79C541.59 331.79 539.09 317.13 539.09 316.17C538.962 314.171 538.681 312.186 538.25 310.23C537.99 308.234 538.338 306.205 539.25 304.41C540.1 303.08 539.97 297.75 539.97 297.75V290.85L541.62 288.67L545.83 292.67L547 293.77L549.06 301.49L548.33 312.55L547.94 323.32L550.49 338.22C550.49 338.22 551.38 356.88 543.94 356.63Z" fill="#D38884"/>
<path opacity="0.1" d="M546.28 294.5L539.98 291.88V290.86L541.62 288.68L545.84 292.66L546.28 294.5Z" fill="black"/>
<path d="M543.38 278.74C542.57 280.729 541.983 282.802 541.63 284.92C541.304 286.952 540.751 288.942 539.98 290.85L546.98 293.76L543.38 278.74Z" fill="#4C4981"/>
<path opacity="0.05" d="M543.38 278.74C542.57 280.729 541.983 282.802 541.63 284.92C541.304 286.952 540.751 288.942 539.98 290.85L546.98 293.76L543.38 278.74Z" fill="black"/>
<path d="M599.14 431.73L598.56 432.97C598.56 432.97 597.93 437.08 597.93 437.18C597.93 437.28 596.11 440.02 596.11 440.02L591.54 441.02L589.6 440.78C589.497 439.65 589.323 438.528 589.08 437.42C589.01 437.11 588.94 436.79 588.85 436.47C588.167 433.906 587.091 431.464 585.66 429.23C585.66 429.23 582.27 420.87 581.06 419.78C579.85 418.69 575.24 407.66 575.73 405C575.99 403.54 575.78 398.64 575.54 394.56C575.34 391.23 575.12 388.43 575.12 388.43L586.63 381.63L587.97 383.74L588.77 384.99C588.77 384.99 588.77 385.23 588.72 385.63V385.78C588.588 387.481 588.252 389.159 587.72 390.78C587.72 390.78 586.86 396.96 587.72 398.05C588.58 399.14 591.32 413.71 591.93 420.45C591.93 420.66 591.93 420.87 591.93 421.06C592.17 424.16 594.09 426.92 596.02 428.94C596.14 429.08 596.27 429.21 596.4 429.34C597.257 430.199 598.173 430.997 599.14 431.73Z" fill="#D38884"/>
<path opacity="0.1" d="M589.6 440.76L591.54 441L596.11 440C596.11 440 597.93 437.25 597.93 437.16C597.93 437.07 598.56 432.95 598.56 432.95L599.14 431.71L599.21 431.56C598.093 430.786 597.042 429.92 596.07 428.97C595.96 428.87 595.85 428.77 595.75 428.66C595.65 428.55 596.4 432.66 592.92 434.45C591.23 435.32 589.84 435.99 588.87 436.45L589.6 440.76Z" fill="black"/>
<path d="M599.94 432.31L599.29 433.7C599.29 433.7 598.66 437.81 598.66 437.91C598.66 438.01 596.84 440.75 596.84 440.75L592.27 441.75L589.64 441.44C589.64 440.91 589.55 440.16 589.42 439.25C589.34 438.7 589.23 438.09 589.08 437.43C590.08 436.98 591.63 436.24 593.62 435.21C597.11 433.42 596.45 429.42 596.45 429.42C597.205 430.172 598.003 430.88 598.84 431.54C599.32 431.88 599.71 432.15 599.94 432.31Z" fill="#CEDDF9"/>
<path opacity="0.1" d="M599.94 432.31L599.29 433.7C599.29 433.7 598.66 437.81 598.66 437.91C598.66 438.01 596.84 440.75 596.84 440.75L592.27 441.75L589.64 441.44C589.64 440.91 589.55 440.16 589.42 439.25C589.979 439.276 590.535 439.353 591.08 439.48C591.08 439.48 597.32 440.81 597.62 435.87C597.8 433.07 598.38 431.97 598.84 431.54C599.32 431.88 599.71 432.15 599.94 432.31Z" fill="black"/>
<path d="M599.48 431.98C599.48 431.98 597.93 431.64 597.62 436.57C597.31 441.5 591.08 440.18 591.08 440.18C591.08 440.18 588.02 439.42 587.99 440.69C588.092 441.864 588.369 443.017 588.81 444.11C588.81 444.11 588.99 447.05 589.57 447.75C590.15 448.45 589.78 451.05 589.78 451.05C589.78 451.05 590.02 452.99 594.84 451.05C594.84 451.05 599.14 450.16 602.71 444.81C602.83 444.63 602.29 444.08 605.41 442.96C608.53 441.84 617.41 434.66 616.77 431.15C616.701 430.569 616.463 430.021 616.087 429.573C615.71 429.125 615.211 428.798 614.65 428.63C614.183 428.505 613.696 428.475 613.217 428.54C612.738 428.605 612.277 428.765 611.86 429.01C611.017 429.466 610.145 429.867 609.25 430.21C608.062 430.691 606.808 430.991 605.53 431.1C604.55 431.184 603.582 431.368 602.64 431.65C601.635 432.042 600.544 432.156 599.48 431.98Z" fill="#CC8294"/>
<path d="M564.16 398.04C563.472 398.61 562.878 399.285 562.4 400.04C560.64 402.73 559.58 406.49 558.4 408.11C556.86 410.21 556.4 414.29 556.4 414.29C555.99 416.97 550.31 431.29 548.77 433.83C547.23 436.37 545.09 443.28 545.09 443.28C543.78 444.92 543.86 447.36 543.99 448.52C543.99 448.72 543.99 448.88 544.05 448.99C544.11 449.1 544.05 449.18 544.05 449.18V449.25L541.95 452.82L535.27 451.89L531.82 449.55C532.103 449.091 532.353 448.613 532.57 448.12C534.42 444 535.73 436.64 535.73 436.64C535.73 436.64 537.59 428.24 537.45 426.28C537.497 423.606 537.681 420.935 538 418.28C538 418.28 543.26 402.23 544.94 399.63C545.64 398.603 546.073 397.417 546.2 396.18C546.233 395.931 546.233 395.679 546.2 395.43L548.46 393.18C548.46 393.18 567.06 395.73 564.16 398.04Z" fill="#D38884"/>
<path opacity="0.1" d="M544.12 448.48C544.12 448.48 544.12 448.68 544.12 449.01V449.27L542.02 452.84L535.34 451.91L531.89 449.57C532.173 449.111 532.423 448.633 532.64 448.14C534.32 447.66 538.16 449.02 538.16 449.02C538.16 449.02 542.31 449.81 544.06 448.54C544.06 448.53 544.08 448.5 544.12 448.48Z" fill="black"/>
<path d="M542.49 458.01L535.71 459.63L529.49 455.03L529.81 452.44C530.244 452.174 530.63 451.836 530.95 451.44C531.404 450.907 531.714 450.267 531.85 449.58C532.21 447.67 538.12 449.76 538.12 449.76C538.12 449.76 542.44 450.58 544.12 449.21C544.002 450.466 544.11 451.733 544.44 452.95C544.6 453.543 544.952 454.067 545.44 454.44C547.17 455.63 542.49 458.01 542.49 458.01Z" fill="#CEDDF9"/>
<path opacity="0.1" d="M542.49 458.01L535.71 459.63L529.49 455.03L529.81 452.44C530.244 452.174 530.63 451.836 530.95 451.44C531.4 451.44 531.89 451.44 532.31 451.44C533.31 451.54 535.81 455.99 535.81 455.99C541.95 456.4 543.81 454.39 544.44 452.91C544.6 453.503 544.952 454.027 545.44 454.4C547.17 455.63 542.49 458.01 542.49 458.01Z" fill="black"/>
<path d="M535.81 456.74C535.81 456.74 533.35 452.29 532.31 452.2C531.431 452.151 530.549 452.151 529.67 452.2C529.67 452.2 526.95 458.65 525.95 459.2C524.95 459.75 523.49 462.84 523.49 462.84C523.49 462.84 530.69 469.84 537.65 468.47C539.871 468.502 542.054 469.046 544.03 470.06C547.25 471.74 560.7 470.47 562.34 467.52C563.56 465.3 564.05 463.69 562.97 462.52C562.647 462.186 562.249 461.933 561.809 461.784C561.369 461.634 560.9 461.592 560.44 461.66C558.75 461.89 554.95 461.85 551.62 457.76C551.62 457.76 545.48 452.14 544.98 452.13C544.48 452.12 545.39 457.38 535.81 456.74Z" fill="#CC8294"/>
<path opacity="0.1" d="M588.78 385.72L588.73 385.78C588.31 386.24 585.35 389.49 584.45 389.72C582.962 390.282 581.506 390.926 580.09 391.65C580.09 391.65 578.27 394.08 576.82 394.2C576.382 394.263 575.952 394.377 575.54 394.54C575.34 391.21 575.12 388.41 575.12 388.41L586.63 381.63L587.97 383.74C588.27 384.59 588.61 385.38 588.72 385.63L588.78 385.72Z" fill="black"/>
<path d="M546.94 338.93C546.94 338.93 542.46 344.77 546.94 352.52C549.35 356.877 552.461 360.806 556.15 364.15L571.41 395.77C571.41 395.77 575.41 393.59 576.87 393.47C578.33 393.35 580.14 390.93 580.14 390.93C581.556 390.202 583.011 389.554 584.5 388.99C585.5 388.75 588.83 384.99 588.83 384.99C588.83 384.99 587.16 381.36 587.53 380.39C587.9 379.42 586.44 376.99 586.44 376.99C585.986 375.775 585.651 374.519 585.44 373.24C585.44 372.24 583.86 369.97 583.86 369.97C583.86 369.97 582.29 367.54 582.29 366.21C582.29 364.88 579.94 359.63 579.94 359.63L579.33 336.63L546.94 338.93Z" fill="#CEDDF9"/>
<path opacity="0.05" d="M588.78 384.99C588.78 384.99 585.42 388.74 584.45 388.99C582.961 389.554 581.506 390.202 580.09 390.93C580.09 390.93 578.27 393.35 576.82 393.47C575.776 393.687 574.766 394.047 573.82 394.54C572.52 395.13 571.35 395.77 571.35 395.77L556.08 364.15C554.743 362.985 553.503 361.714 552.37 360.35C550.302 357.913 548.461 355.292 546.87 352.52C545.12 349.709 544.498 346.34 545.13 343.09C545.414 341.6 546.006 340.187 546.87 338.94L557.73 338.17L579.36 336.63L579.54 343.44L579.94 359.63C579.94 359.63 580.29 360.44 580.73 361.51C581.417 362.998 581.924 364.562 582.24 366.17C582.24 367.51 583.81 369.93 583.81 369.93C583.81 369.93 585.39 372.23 585.39 373.2C585.602 374.482 585.937 375.742 586.39 376.96C586.39 376.96 587.85 379.38 587.49 380.34C587.13 381.3 588.78 384.99 588.78 384.99Z" fill="black"/>
<path opacity="0.1" d="M564.16 398.04C563.472 398.61 562.878 399.285 562.4 400.04C555.81 400.52 548.15 397.04 546.16 396.12C546.192 395.871 546.192 395.619 546.16 395.37L548.42 393.12C548.42 393.12 567.06 395.73 564.16 398.04Z" fill="black"/>
<path d="M583.6 346.1C583.6 346.1 582.6 349.49 582.27 350.94C581.94 352.39 581.18 359.55 581.18 359.55L580.76 361.55L573.84 394.55L572.33 401.72C569.67 403.18 563.01 399.29 563.01 399.29C555.25 400.15 545.68 395.18 545.68 395.18C545.68 395.18 547.25 390.09 546.89 387.55C546.53 385.01 549.07 382.94 549.07 382.94C548.47 380.64 550.64 370.58 550.64 370.58C550.64 370.58 551.13 366.83 552.95 365.86C554.77 364.89 552.71 363.44 552.22 362.58C552.048 361.84 552.107 361.065 552.39 360.36C552.547 359.8 552.734 359.25 552.95 358.71C548.33 354.09 547.62 346.87 547.61 342.86C547.597 341.882 547.641 340.903 547.74 339.93L557.74 338.18L579.59 334.36L581.82 341.22L582.38 342.94L583.6 346.1Z" fill="#CEDDF9"/>
<path opacity="0.1" d="M581.54 253.42C581.081 254.398 580.745 255.429 580.54 256.49C580.48 256.757 580.42 257.037 580.36 257.33C578.25 258.7 576.95 258.71 574.25 258.71C573.32 258.71 572.8 256.93 571.92 256.71C571.92 256.71 570.6 251.95 570.23 255.96C567.69 255.44 565.5 257.42 563.7 255.69C563.7 255.46 563.7 255.23 563.7 254.99C563.749 253.49 563.679 251.989 563.49 250.5C563.49 250.5 570.54 250.5 575.86 251.07C579.44 251.49 582.23 252.2 581.54 253.42Z" fill="black"/>
<path d="M586.54 245.26C586.537 247.262 586.09 249.238 585.23 251.046C584.37 252.854 583.12 254.449 581.569 255.715C580.018 256.98 578.205 257.886 576.262 258.366C574.318 258.846 572.292 258.888 570.33 258.49C568.118 258.034 566.055 257.03 564.331 255.57C562.607 254.111 561.277 252.242 560.462 250.134C559.648 248.027 559.375 245.749 559.67 243.51C559.964 241.27 560.815 239.14 562.146 237.314C563.477 235.489 565.245 234.027 567.287 233.062C569.33 232.097 571.582 231.66 573.837 231.791C576.092 231.921 578.279 232.616 580.196 233.811C582.113 235.006 583.699 236.663 584.81 238.63C585.958 240.65 586.554 242.937 586.54 245.26Z" fill="#D38884"/>
<path opacity="0.1" d="M579.15 266.48C579.05 267.6 579 268.32 579 268.32C579 268.32 557.31 266.87 561.07 263.23C562.039 262.225 562.729 260.984 563.07 259.63L572.48 261.17C572.48 261.17 575.14 263.23 577.2 265.17C577.787 265.694 578.443 266.135 579.15 266.48Z" fill="black"/>
<path opacity="0.1" d="M582.39 343.63C581.436 343.757 580.465 343.685 579.54 343.42C579.139 343.292 578.754 343.121 578.39 342.91C576.57 341.82 570.52 343.16 570.52 343.16C570.52 343.16 554.04 344.25 553.31 343.16C552.9 342.53 549.99 342.62 547.61 342.81C546.61 342.89 545.76 342.99 545.15 343.05C545.434 341.56 546.026 340.147 546.89 338.9L557.75 338.13L579.6 334.31L581.83 341.17C581.974 341.999 582.161 342.82 582.39 343.63Z" fill="black"/>
<path d="M572.45 261.9L560.63 259.96C560.421 260.426 560.114 260.84 559.728 261.175C559.343 261.51 558.89 261.758 558.4 261.9C556.83 262.26 549.8 265.9 546.65 270.26L543.5 274.63C543.5 274.63 540.95 277.78 541.8 280.32C542.65 282.86 543.62 291.47 543.62 291.47L544.83 301.04C544.83 301.04 547.13 307.95 546.41 310.98C545.69 314.01 546.77 326.73 546.77 326.73L544.35 342.48C544.35 342.48 552.58 341.39 553.35 342.48C554.12 343.57 570.56 342.48 570.56 342.48C570.56 342.48 576.56 341.14 578.43 342.23C579.653 342.89 581.053 343.145 582.43 342.96C582.43 342.96 580.98 337.96 581.82 335.21C582.66 332.46 582.43 327.33 582.43 327.33C582.43 327.33 583.64 319.94 583.03 318.61C582.42 317.28 584.37 312.43 584.37 312.43L590.79 278.63C590.79 278.63 590.01 272.57 586.58 270.51C583.15 268.45 579.28 267.84 577.22 265.91C575.16 263.98 572.45 261.9 572.45 261.9Z" fill="#4C4981"/>
<path d="M577.94 295.22V299.22L581.67 309.28L583.02 318.61C583.02 318.61 585.45 325.27 585.45 327.61C585.45 329.95 591.38 341.06 591.38 341.06C591.38 341.06 593 344.82 592.19 345.54C591.38 346.26 584.36 362.26 593.19 361.78C602.02 361.3 599.25 344.58 599.25 344.58L598.04 337.31C598.04 337.31 596.34 319.13 596.34 317.8C596.34 317.8 594.16 310.05 593.92 308.35C593.68 306.65 592.1 298.05 592.1 298.05L590.77 292.48L577.94 295.22Z" fill="#D38884"/>
<path opacity="0.1" d="M573.69 307.82L560.52 315.36L556.43 321.54L561.88 316L573.69 307.82Z" fill="black"/>
<path opacity="0.1" d="M569.7 322.26C569.7 322.26 563.7 326.17 560.88 326.17C558.06 326.17 551.52 332.89 551.52 332.89C551.52 332.89 560.79 326.89 561.52 327.08C562.25 327.27 569.7 322.26 569.7 322.26Z" fill="black"/>
<path opacity="0.1" d="M554.34 324.35C554.34 324.35 548.71 329.44 550.16 329.99C551.61 330.54 559.16 324.35 559.16 324.35H554.34Z" fill="black"/>
<path opacity="0.1" d="M579.24 306.18C579.24 306.18 574.88 312.09 576.06 312C577.24 311.91 580.6 308.54 580.6 308.54L579.24 306.18Z" fill="black"/>
<path opacity="0.1" d="M579.87 312C579.87 312 575.15 317.36 575.33 318.72C575.51 320.08 579.87 312 579.87 312Z" fill="black"/>
<path opacity="0.1" d="M581.06 314.68C581.06 314.68 577.88 320.36 579.24 321.54C580.6 322.72 581.06 314.68 581.06 314.68Z" fill="black"/>
<path opacity="0.1" d="M576.94 300.09C576.94 300.09 574.57 304.09 576.3 304.36C578.03 304.63 578.2 304.36 578.2 304.36L576.94 300.09Z" fill="black"/>
<path opacity="0.1" d="M577.6 285.46C577.01 287.905 576.2 290.291 575.18 292.59C574.8 291.418 574.487 290.227 574.24 289.02C575.238 287.724 576.363 286.531 577.6 285.46Z" fill="black"/>
<path opacity="0.1" d="M584.81 238.63C584.576 239.141 584.269 239.616 583.9 240.04C583.28 240.599 582.73 241.23 582.26 241.92C581.89 242.951 581.691 244.035 581.67 245.13C581.49 246.21 580.81 247.41 579.67 247.44C579.109 247.393 578.564 247.229 578.07 246.96C577.823 246.832 577.547 246.769 577.268 246.778C576.99 246.787 576.719 246.867 576.48 247.01C576.164 247.331 575.982 247.76 575.97 248.21C575.832 249.15 575.778 250.1 575.81 251.05C575.81 251.43 575.81 251.8 575.87 252.18C576.149 253.375 576.076 254.626 575.66 255.78C575.138 256.616 574.349 257.25 573.42 257.58C572.412 257.996 571.358 258.291 570.28 258.46C568.227 258.712 566.155 258.779 564.09 258.66C563.899 258.665 563.709 258.635 563.53 258.57C563.442 258.535 563.36 258.484 563.29 258.42C563.519 257.284 563.643 256.129 563.66 254.97C562.272 253.622 561.19 251.992 560.487 250.19C559.784 248.387 559.476 246.455 559.585 244.523C559.694 242.591 560.217 240.706 561.119 238.994C562.02 237.282 563.279 235.784 564.81 234.601C566.341 233.418 568.109 232.578 569.993 232.138C571.877 231.698 573.833 231.668 575.73 232.05C577.626 232.432 579.419 233.217 580.985 234.353C582.552 235.488 583.856 236.947 584.81 238.63Z" fill="black"/>
<path d="M579.17 227.2C577.93 227.07 576.76 227.73 575.54 228C573.03 228.55 570.46 227.41 567.88 227.42C565.662 227.546 563.504 228.19 561.58 229.3C560.024 230.035 558.604 231.029 557.38 232.24C556.151 233.47 555.436 235.122 555.38 236.86C555.551 237.856 555.52 238.876 555.29 239.86C555.031 240.356 554.722 240.825 554.37 241.26C554.051 241.773 553.847 242.348 553.773 242.948C553.699 243.547 553.756 244.155 553.94 244.73C554.457 245.869 555.156 246.916 556.01 247.83C557.67 249.96 558.71 252.51 560.2 254.77C560.85 255.751 561.579 256.678 562.38 257.54C562.511 257.693 562.671 257.819 562.85 257.91C563.026 257.972 563.213 257.999 563.4 257.99C566.56 258.08 569.83 258.15 572.74 256.91C573.672 256.587 574.464 255.951 574.98 255.11C575.4 253.956 575.476 252.706 575.2 251.51C575.068 250.178 575.098 248.835 575.29 247.51C575.303 247.063 575.485 246.637 575.8 246.32C576.039 246.172 576.313 246.089 576.593 246.081C576.874 246.072 577.153 246.137 577.4 246.27C577.894 246.53 578.434 246.693 578.99 246.75C580.08 246.75 580.77 245.51 580.99 244.43C580.87 243.459 581.014 242.474 581.406 241.579C581.799 240.683 582.425 239.91 583.22 239.34C583.969 238.389 584.484 237.275 584.722 236.089C584.96 234.902 584.915 233.676 584.59 232.51C583.87 230.26 581.67 227.45 579.17 227.2Z" fill="#1E1637"/>
<path opacity="0.1" d="M592.14 284.63C591.874 286.286 591.874 287.974 592.14 289.63C592.02 290.97 592.14 298.36 592.14 298.36C588.14 297.14 577.97 299.57 577.97 299.57L576.76 295.94C576.069 295.044 575.554 294.027 575.24 292.94C574.86 291.765 574.547 290.57 574.3 289.36C573.772 286.846 573.375 284.306 573.11 281.75C572.6 277.9 578.33 273.75 582.67 271.45C587.01 269.15 590.81 278.96 590.81 278.96C590.81 278.96 592.62 282.73 592.14 284.63Z" fill="black"/>
<path d="M592.14 283.94C591.874 285.596 591.874 287.284 592.14 288.94C592.02 290.27 592.14 297.66 592.14 297.66C588.14 296.45 577.97 298.87 577.97 298.87L576.76 295.24C576.067 294.346 575.551 293.327 575.24 292.24C574.86 291.068 574.547 289.877 574.3 288.67C573.773 286.155 573.375 283.615 573.11 281.06C572.6 277.2 578.33 273.06 582.67 270.75C587.01 268.44 590.81 278.26 590.81 278.26C590.81 278.26 592.62 282 592.14 283.94Z" fill="#4C4981"/>
<path opacity="0.2" d="M584.45 232.51C584.242 231.823 583.943 231.167 583.56 230.56C583.62 230.73 583.68 230.89 583.73 231.06C584.054 232.226 584.1 233.452 583.862 234.639C583.623 235.825 583.109 236.939 582.36 237.89C581.565 238.46 580.938 239.233 580.546 240.129C580.154 241.025 580.01 242.009 580.13 242.98C579.96 244.06 579.27 245.25 578.13 245.29C577.569 245.243 577.024 245.079 576.53 244.81C576.283 244.682 576.007 244.619 575.729 244.628C575.45 244.637 575.179 244.717 574.94 244.86C574.624 245.181 574.442 245.61 574.43 246.06C574.237 247.385 574.207 248.728 574.34 250.06C574.45 251.28 574.69 252.59 574.12 253.67C573.593 254.501 572.805 255.134 571.88 255.47C568.97 256.71 565.7 256.64 562.54 256.55C562.353 256.556 562.166 256.525 561.99 256.46C561.806 256.375 561.646 256.248 561.52 256.09C560.711 255.235 559.981 254.308 559.34 253.32C557.85 251.06 556.81 248.52 555.15 246.38C554.7 245.8 554.15 245.23 553.78 244.62V244.74C554.29 245.883 554.99 246.931 555.85 247.84C557.5 249.97 558.55 252.52 560.03 254.78C560.68 255.764 561.413 256.69 562.22 257.55C562.347 257.703 562.504 257.828 562.68 257.92C562.857 257.981 563.043 258.009 563.23 258C566.39 258.09 569.67 258.16 572.57 256.92C573.502 256.597 574.294 255.961 574.81 255.12C575.23 253.966 575.306 252.716 575.03 251.52C574.908 250.188 574.938 248.846 575.12 247.52C575.141 247.075 575.322 246.652 575.63 246.33C575.869 246.182 576.142 246.099 576.423 246.091C576.704 246.082 576.982 246.147 577.23 246.28C577.724 246.54 578.264 246.703 578.82 246.76C579.92 246.76 580.6 245.52 580.82 244.44C580.836 243.345 581.036 242.26 581.41 241.23C581.877 240.538 582.427 239.906 583.05 239.35C583.804 238.4 584.324 237.286 584.567 236.097C584.811 234.909 584.77 233.68 584.45 232.51Z" fill="black"/>
<path d="M681.94 235.14L673.3 253.5C673.3 253.5 672.03 256.95 671.21 257.59C670.39 258.23 666.76 269.13 666.76 269.13L657.49 283.41L656.86 284.41L653.23 283.41L650.68 273.89L650.83 271.13V270.78C650.83 270.78 656.55 264.78 657.83 264.33C657.83 264.33 658.83 264.45 660.73 259.8C662.63 255.15 664.37 254.15 664.37 254.15L665.37 250.79L676.1 233.7C676.1 233.7 685.1 220.81 687.55 226.53C690 232.25 681.94 235.14 681.94 235.14Z" fill="#FFD2C6"/>
<path d="M646.06 365.56C646.031 365.871 645.932 366.172 645.77 366.44C644.77 367.9 639.14 397.61 639.14 397.61C639.59 399.61 638.32 403.61 637.5 405.43C636.68 407.25 634.86 416.69 634.86 416.69C634.86 416.69 634.41 437.05 633.24 440.23C632.07 443.41 633.61 450.23 633.61 450.23C633.5 453.36 635.38 456.68 636.5 458.36L636.72 458.68C637.08 459.2 637.32 459.5 637.32 459.5C637.628 460.107 638.061 460.642 638.59 461.07L638.85 461.27C640.395 462.302 642.123 463.032 643.94 463.42H644.12C644.84 463.58 645.32 463.65 645.32 463.65L645.77 466.11L640.96 467.11L631.78 467.74C631.78 467.74 620.96 468.57 623.42 463.74C623.59 463.418 623.737 463.083 623.86 462.74C623.955 462.504 624.039 462.264 624.11 462.02C625.59 457.39 624.59 451.76 624.59 451.76L622.5 435.32C619.05 420.05 625.21 403.06 625.21 403.06C625.21 403.06 624.68 401.7 625.86 398.25C627.04 394.8 625.86 387.25 625.86 387.25C625.86 387.25 625.23 377.53 624.41 372.72C624.087 370.694 623.976 368.639 624.08 366.59C624.12 365.391 624.23 364.196 624.41 363.01L645.12 360.26C645.12 360.26 646.31 363.63 646.06 365.56Z" fill="#FFD2C6"/>
<path opacity="0.1" d="M645.77 466.13L640.96 467.13L631.78 467.76C631.78 467.76 620.96 468.59 623.42 463.76C623.59 463.438 623.737 463.103 623.86 462.76C623.955 462.524 624.039 462.284 624.11 462.04C625.985 462.102 627.837 462.473 629.59 463.14C632.67 464.33 634.99 461.23 634.99 461.23L636.49 458.37L636.71 457.96C637.07 458.48 637.31 458.78 637.31 458.78C637.673 459.483 638.197 460.089 638.84 460.55L638.58 461.08L637.13 464.14C637.13 464.14 638.99 464.33 641.53 464.74C642.022 464.867 642.543 464.802 642.989 464.559C643.435 464.316 643.771 463.912 643.93 463.43H644.11C644.83 463.59 645.31 463.66 645.31 463.66L645.77 466.13Z" fill="black"/>
<path d="M650.22 468.39C649.86 470.03 639.73 470.53 639.73 470.53C639.73 470.53 634.09 469.99 632.51 471.3C630.93 472.61 626.28 472.3 626.1 472.3C625.92 472.3 623.47 472.21 622.51 467.81C621.55 463.41 623.76 462.81 623.86 462.74C625.821 462.768 627.761 463.144 629.59 463.85C632.67 465.04 634.99 461.94 634.99 461.94L636.71 458.67C637.07 459.19 637.31 459.49 637.31 459.49C637.673 460.193 638.197 460.799 638.84 461.26L637.13 464.85C637.13 464.85 638.99 465.04 641.53 465.44C641.835 465.51 642.151 465.511 642.456 465.444C642.761 465.376 643.047 465.242 643.294 465.051C643.54 464.859 643.742 464.616 643.883 464.337C644.024 464.059 644.102 463.752 644.11 463.44C644.115 463.35 644.115 463.26 644.11 463.17C644.11 463.17 645.69 463.63 647.65 464.17C648.53 464.423 649.282 464.997 649.758 465.779C650.234 466.561 650.399 467.492 650.22 468.39Z" fill="#626696"/>
<path d="M669.31 387.22C669.07 388.67 668.82 392.43 668.82 392.43C669.67 395.58 667.49 403.06 667.49 403.06L666.4 407.33C666.88 412.78 663.4 426.11 663.4 426.11C663.4 426.11 661.07 438.47 659.86 443.8C659.136 446.763 659.356 449.878 660.49 452.71L660.58 452.93C660.58 453.03 660.63 453.13 660.65 453.23C660.686 453.377 660.733 453.52 660.79 453.66C661.061 454.394 661.464 455.072 661.98 455.66C662.179 455.9 662.396 456.124 662.63 456.33C663.77 457.34 665.076 458.145 666.49 458.71L667.1 458.95C667.732 459.184 668.376 459.385 669.03 459.55H669.25L668.76 462.41L662.34 460.76L653.74 457.97L649.57 455.63C649.57 455.63 649.57 455.4 649.7 454.96C649.705 454.934 649.705 454.906 649.7 454.88C649.7 454.69 649.78 454.47 649.83 454.21C650.49 450.46 652.13 439.97 651.31 432.21C650.31 422.64 654.31 409.43 655.24 406.29C655.818 404.489 656.065 402.599 655.97 400.71C654.39 398.41 654.03 389.2 654.03 389.2C654.03 389.2 651.12 383.26 648.72 376.96C647.92 374.904 647.34 372.768 646.99 370.59C646.706 369.057 646.588 367.498 646.64 365.94C646.64 365.94 666.15 348.13 668.29 365.37C668.36 365.96 668.43 366.51 668.5 367.06C670.4 382.91 669.54 385.81 669.31 387.22Z" fill="#FFD2C6"/>
<path opacity="0.1" d="M669.31 459.63L668.82 462.49L662.4 460.84L653.8 458.05L649.57 455.63C649.57 455.63 649.57 455.4 649.7 454.96C649.705 454.934 649.705 454.906 649.7 454.88C649.7 454.69 649.78 454.47 649.83 454.21H650.43C651.652 454.091 652.884 454.259 654.03 454.7C655.43 455.22 657.27 455.82 657.64 455.57C658.29 455.292 658.995 455.169 659.7 455.21L660.59 453.21L660.73 452.91C660.999 453.645 661.402 454.323 661.92 454.91C662.135 455.161 662.365 455.398 662.61 455.62V456.31L662.56 457.31C663.521 457.922 664.56 458.399 665.65 458.73C665.932 458.8 666.228 458.8 666.51 458.73L667.12 458.97C667.752 459.204 668.396 459.405 669.05 459.57L669.31 459.63Z" fill="black"/>
<path d="M666.09 465.76C664.3 465.25 659.98 464.42 659.28 465.06C658.58 465.7 652.59 465.06 652.59 465.06C651.963 465.05 651.348 464.878 650.807 464.561C650.266 464.244 649.815 463.792 649.5 463.25C648.25 461.31 649.26 455.04 649.26 455.04H649.7L650.44 454.96C651.661 454.842 652.893 455.006 654.04 455.44C655.44 455.97 657.28 456.57 657.65 456.32C658.298 456.035 659.004 455.909 659.71 455.95L660.71 453.7C660.981 454.434 661.384 455.112 661.9 455.7C662.112 455.95 662.343 456.184 662.59 456.4L662.5 458.07C663.462 458.682 664.501 459.163 665.59 459.5C665.854 459.6 666.143 459.608 666.412 459.523C666.68 459.437 666.912 459.264 667.07 459.03C667.116 458.951 667.153 458.867 667.18 458.78C667.989 459.162 668.842 459.444 669.72 459.62C670.844 459.503 671.972 459.8 672.893 460.455C673.813 461.111 674.463 462.079 674.72 463.18C675.67 465.97 667.88 466.27 666.09 465.76Z" fill="#626696"/>
<path opacity="0.1" d="M646.06 365.56L644.95 365.9C644.078 366.165 643.185 366.352 642.28 366.46C636.54 367.27 627.09 366.78 624.09 366.59C624.13 365.391 624.24 364.196 624.42 363.01L645.13 360.26C645.13 360.26 646.31 363.63 646.06 365.56Z" fill="black"/>
<path d="M664.13 360.53C664.13 360.53 656.53 361.71 650.34 363.06C648.28 363.51 646.34 363.99 644.95 364.44C644.077 364.704 643.184 364.894 642.28 365.01C635.39 366.01 623.15 365.08 623.15 365.08C619.79 354.18 627.23 340.45 627.23 340.45C627.06 339.36 628.78 336.01 628.78 336.01V335.9L629.84 332.01H658.09L658.44 333.68L659.16 337.08L663.6 358.15L664.13 360.53Z" fill="#626696"/>
<path opacity="0.1" d="M668.51 367.14L668.34 367.21L665.03 368.68C661.45 370.33 650.74 370.68 647.03 370.68C646.746 369.147 646.628 367.588 646.68 366.03C646.68 366.03 666.19 348.22 668.33 365.46C668.37 366.04 668.44 366.63 668.51 367.14Z" fill="black"/>
<path d="M669.03 365.45L668.34 365.76L665.03 367.23C661.39 368.91 650.33 369.23 646.79 369.23H645.86C644.23 369.18 642.59 367.65 642.59 367.23C642.59 367.01 642.42 365.93 642.28 365.01C642.15 364.27 642.05 363.63 642.05 363.63C638.254 361.996 634.578 360.094 631.05 357.94C628.28 356.05 628.98 342.62 629.51 335.87C629.7 333.54 629.87 332.01 629.87 332.01L658.47 333.68L662.47 333.91L664.76 334.42L665.37 334.55C665.37 334.55 667.02 346.55 667.83 347.55C668.64 348.55 668.11 351.91 668.01 353.83C668.009 354.654 667.918 355.475 667.74 356.28C667.74 356.28 668.92 359.64 668.65 361.52C668.526 362.842 668.655 364.176 669.03 365.45Z" fill="#626696"/>
<path d="M638.41 265.86C644.883 265.86 650.13 260.613 650.13 254.14C650.13 247.667 644.883 242.42 638.41 242.42C631.937 242.42 626.69 247.667 626.69 254.14C626.69 260.613 631.937 265.86 638.41 265.86Z" fill="#FFD2C6"/>
<path d="M632.69 259.02C632.69 259.02 633.5 270.12 631.23 272.67C628.636 275.267 625.905 277.724 623.05 280.03L624.87 287.57L635.14 288.75L647.14 275.94L644.41 272.63C644.41 272.63 642.32 265.54 644.04 262C645.76 258.46 632.69 259.02 632.69 259.02Z" fill="#FFD2C6"/>
<path opacity="0.1" d="M657.49 283.41L656.86 284.41L653.23 283.41L650.68 273.89L650.83 271.13L651.58 270.05C651.58 270.05 655.58 270.14 655.41 273.78C655.24 276.96 657.06 282.2 657.49 283.41Z" fill="black"/>
<path opacity="0.1" d="M665.39 336.01C665.39 336.01 662.5 336.65 659.19 337.08C655.88 337.51 652.06 337.74 650.49 336.82C647.86 335.26 633.61 335.71 629.49 335.87H628.79L629.85 331.98H658.1L658.45 333.65L662.45 333.88L664.74 334.39C665.16 335.37 665.39 336.01 665.39 336.01Z" fill="black"/>
<path d="M650.86 270.76C650.86 270.76 654.86 270.85 654.68 274.49C654.5 278.13 656.86 284.39 656.86 284.39L655.95 286.48C655.95 286.48 654.68 291.57 655.68 292.84C656.68 294.11 660.31 294.11 658.22 304.56C658.22 304.56 657.77 312.38 658.86 314.92C659.95 317.46 659.95 323.55 661.58 326.1C663.068 328.814 664.345 331.64 665.4 334.55C665.4 334.55 653.59 337.18 650.5 335.37C647.41 333.56 628.42 334.46 628.42 334.46C628.42 334.46 628.51 331.28 628.42 330.91C628.332 330.515 628.326 330.106 628.404 329.708C628.481 329.311 628.64 328.933 628.87 328.6C629.51 327.73 630.51 326.28 629.96 325.01C629.41 323.74 631.32 321.86 630.32 319.89C629.32 317.92 628.11 317.53 628.32 316.45C628.374 315.831 628.302 315.207 628.11 314.616C627.918 314.025 627.608 313.479 627.2 313.01C626.48 312.1 621.57 302.5 621.57 302.5L620.75 298.02C620.75 298.02 614.43 293.39 614.55 291.21C614.67 289.03 616.94 286 616.94 286L623.02 280C623.02 280 626.39 283.63 629.66 282.36C632.93 281.09 639.96 275 639.96 275C639.96 275 642.47 273.64 642.65 272.64C642.83 271.64 644.38 272.55 644.38 272.55C644.38 272.55 646.65 271.3 647.1 271.74C647.871 272.142 648.701 272.415 649.56 272.55L650.86 270.76Z" fill="#FFCDE5"/>
<path d="M616.51 289.69L614.58 291.21C613.113 294.313 612.287 297.68 612.15 301.11C611.639 306.267 610.82 311.39 609.7 316.45L605.88 323.28C605.88 323.28 599.61 336.45 598.79 339.95C597.97 343.45 594.25 349.36 594.25 349.36C594.25 349.36 581.62 360.71 590.43 362.76C599.24 364.81 599.52 353.76 599.52 353.76C599.52 353.76 601.52 351.49 601.91 349.94C602.3 348.39 613.42 328.63 613.42 328.63C613.42 328.63 617.33 323.31 616.51 320.49C616.51 320.49 621.6 308.49 621.6 305.49C621.505 302.98 621.231 300.481 620.78 298.01L621.6 291.74L616.51 289.69Z" fill="#FFD2C6"/>
<path opacity="0.1" d="M642.68 314.74C642.68 314.74 633.78 319.4 632.05 319.65C630.32 319.9 639.59 318.65 639.59 318.65L642.68 314.74Z" fill="black"/>
<path opacity="0.1" d="M649.94 318.37C649.94 318.37 638.13 322.37 632.94 321.65C632.94 321.63 645.86 324.1 649.94 318.37Z" fill="black"/>
<path opacity="0.1" d="M650.68 319.68C650.68 319.68 640.04 326.37 633.78 325.28C633.78 325.28 648.41 328.19 650.68 326.64L644.14 324.83C644.14 324.83 651.4 320.98 650.68 319.68Z" fill="black"/>
<path opacity="0.1" d="M638.43 233.51C636.896 233.133 635.299 233.088 633.747 233.38C632.194 233.671 630.722 234.292 629.43 235.2C627.61 236.63 626.43 238.82 624.35 239.89C623.27 240.351 622.161 240.742 621.03 241.06C619.038 241.875 617.379 243.335 616.318 245.207C615.257 247.079 614.856 249.253 615.18 251.38C615.5 253.18 616.34 254.84 616.76 256.62C617.5 259.79 616.84 263.11 616.04 266.27C613.802 275.032 610.405 283.456 605.94 291.32C605.588 291.807 605.412 292.4 605.44 293C605.552 293.403 605.766 293.772 606.06 294.07C610.26 298.92 617.06 300.59 623.51 300.81C625.878 301.044 628.265 300.647 630.43 299.66C631.767 298.891 632.918 297.835 633.8 296.57C636.031 293.517 637.141 289.787 636.94 286.01C636.77 282.96 635.75 279.88 636.52 276.93C636.596 276.518 636.783 276.134 637.06 275.82C637.75 275.11 638.9 275.3 639.88 275.18C642.55 274.87 644.27 272.06 644.59 269.39C644.91 266.72 644.24 264.04 644.22 261.39C644.21 257.842 645.319 254.381 647.39 251.5C648.28 250.28 649.39 249.08 649.71 247.55C650.09 245.63 648.98 244.22 648.02 242.71C646.53 240.35 645.8 237.6 643.53 235.8C642.032 234.649 640.285 233.865 638.43 233.51Z" fill="black"/>
<path d="M637.7 232.78C636.176 232.408 634.589 232.366 633.047 232.657C631.505 232.949 630.043 233.567 628.76 234.47C626.94 235.91 625.76 238.1 623.67 239.17C622.588 239.623 621.479 240.011 620.35 240.33C618.362 241.144 616.705 242.601 615.645 244.469C614.584 246.336 614.181 248.506 614.5 250.63C614.82 252.43 615.66 254.09 616.08 255.87C616.82 259.04 616.17 262.36 615.36 265.52C613.123 274.265 609.73 282.672 605.27 290.52C604.911 291.004 604.734 291.599 604.77 292.2C604.873 292.605 605.084 292.975 605.38 293.27C609.58 298.13 616.38 299.79 622.83 300.01C625.197 300.244 627.583 299.851 629.75 298.87C631.085 298.094 632.235 297.036 633.12 295.77C635.347 292.715 636.453 288.985 636.25 285.21C636.07 282.21 635.05 279.08 635.82 276.13C635.905 275.721 636.09 275.339 636.36 275.02C637.06 274.31 638.2 274.5 639.19 274.39C641.85 274.08 643.57 271.26 643.89 268.6C644.21 265.94 643.54 263.25 643.53 260.6C643.515 257.054 644.625 253.595 646.7 250.72C647.58 249.49 648.7 248.29 649.02 246.72C649.39 244.8 648.28 243.4 647.32 241.88C645.83 239.53 645.1 236.77 642.83 234.97C641.314 233.851 639.557 233.101 637.7 232.78Z" fill="#985C7E"/>
<path opacity="0.1" d="M633.78 346.39C633.78 346.39 636.11 357.3 639.99 360.26L633.78 346.39Z" fill="black"/>
<g opacity="0.1">
<path opacity="0.1" d="M615.19 253.09C615.07 252.67 614.93 252.24 614.78 251.82C614.94 252.25 615.04 252.63 615.19 253.09Z" fill="black"/>
<path opacity="0.1" d="M648.34 243.63C648.382 243.962 648.382 244.298 648.34 244.63C648.04 246.16 646.91 247.36 646.02 248.58C643.951 251.462 642.842 254.922 642.85 258.47C642.85 261.16 643.53 263.84 643.21 266.47C642.89 269.1 641.21 271.95 638.51 272.25C637.51 272.37 636.38 272.18 635.69 272.89C635.417 273.209 635.228 273.59 635.14 274C634.37 276.95 635.4 280 635.57 283.08C635.756 286.858 634.633 290.584 632.39 293.63C631.51 294.898 630.359 295.954 629.02 296.72C626.859 297.708 624.474 298.105 622.11 297.87C615.8 297.66 609.11 296.03 604.87 291.36C604.757 291.639 604.723 291.943 604.77 292.24C604.873 292.645 605.083 293.015 605.38 293.31C609.58 298.17 616.38 299.83 622.83 300.05C625.197 300.284 627.583 299.891 629.75 298.91C631.085 298.134 632.235 297.076 633.12 295.81C635.347 292.755 636.453 289.025 636.25 285.25C636.07 282.25 635.05 279.12 635.82 276.17C635.905 275.761 636.09 275.379 636.36 275.06C637.06 274.35 638.2 274.54 639.19 274.43C641.85 274.12 643.57 271.3 643.89 268.64C644.21 265.98 643.54 263.29 643.53 260.64C643.515 257.094 644.625 253.635 646.7 250.76C647.58 249.53 648.7 248.33 649.02 246.76C649.186 245.669 648.944 244.554 648.34 243.63Z" fill="black"/>
</g>
<path opacity="0.1" d="M129.18 502.24C140.866 502.24 150.34 501.282 150.34 500.1C150.34 498.918 140.866 497.96 129.18 497.96C117.494 497.96 108.02 498.918 108.02 500.1C108.02 501.282 117.494 502.24 129.18 502.24Z" fill="#6C63FF"/>
<path d="M136.58 464.72C136.58 464.72 108.98 478.98 123.24 495.72C123.641 496.763 124.362 497.653 125.3 498.262C126.237 498.871 127.344 499.168 128.46 499.11C128.46 499.11 127.68 497.7 130.65 496.57C131.709 496.163 132.716 495.633 133.65 494.99C134.905 494.123 135.843 492.869 136.32 491.42C136.32 491.42 141.97 483.87 137.59 469.9C137.59 469.9 138.16 465.9 137.66 465.31L134.31 469.9C134.31 469.9 137.78 472.23 138.18 475.65C138.18 475.65 134.57 469.91 133.78 470.57C133.62 470.7 132.12 473.08 132.12 473.08C132.12 473.08 138.12 477.16 138.57 482.45C138.57 482.45 135.19 475.04 131.57 473.98L129.51 477.71C129.51 477.71 136.07 481.71 136.81 487.71C136.81 487.71 133 480.09 129.11 478.56L127.58 482.5C127.58 482.5 133.9 486.5 134.48 491.5C134.48 491.5 129.19 483.14 127.29 483.41C127.29 483.41 126.1 487.11 126.29 488.25C126.29 488.25 130.77 491.25 130.85 494.18C130.85 494.18 126.72 488.96 126.08 489.31C126.08 489.31 125.82 494.55 127.08 497.31C125.78 494.849 125.149 492.091 125.25 489.31C123.971 490.44 123.053 491.921 122.61 493.57C122.61 493.57 121.42 490.68 125.33 488.04C125.33 488.04 125.7 483.96 126.15 483.46C126.15 483.46 121.92 485.52 120.15 488.06C120.15 488.06 120.81 484.28 126.55 482.4L128.01 478.4C128.01 478.4 122.27 480.83 120.49 482.97C120.49 482.97 121.77 479.22 128.49 477.42L130.49 473.74C130.49 473.74 125.39 475.46 122.9 477.42C122.9 477.42 124.83 474.19 131.1 472.71L132.72 470.4C132.72 470.4 129.01 471.73 127.98 472.2C126.95 472.67 126.74 472.44 126.74 472.44C128.63 470.84 130.93 469.801 133.38 469.44C133.38 469.44 136.83 464.97 136.58 464.72Z" fill="#3B9E74"/>
<path d="M163.77 490.1C166.66 491.81 171.18 492.92 176.87 489.25L176.81 497.36C177.22 502.93 184.09 523.19 184.09 523.19L188.94 539.87C192.419 551.648 194.216 563.859 194.28 576.14C194.156 580.007 194.68 583.867 195.83 587.56C198.41 594.56 194.83 603.56 193.25 606.89C190.37 607.89 187.4 608.64 185.25 609.14C185.005 609.197 184.765 609.27 184.53 609.36V609.31C184.53 609.31 177.25 612.2 174.01 611.8C171.6 611.5 170.09 614.51 172.01 616.72C170.441 617.203 168.801 617.42 167.16 617.36C163.92 616.96 162.31 622.53 168.37 624.12C174.43 625.71 208.83 624.12 208.83 624.12C209.798 623.636 210.578 622.844 211.047 621.868C211.516 620.893 211.647 619.788 211.42 618.73C214.06 618.63 215.71 618.55 215.71 618.55C215.71 618.55 221.78 615.77 215.71 608.22L215.39 608.47L214.09 604.65V599.48C214.09 599.48 221.78 562.48 219.35 558.16C216.92 553.84 215.71 531.54 215.71 531.54L216.52 507.3C218.71 502.77 219.84 495.68 220.41 490.13C221.234 487.481 221.754 484.747 221.96 481.98C222.05 480.68 222.13 479.31 222.18 477.89C222.212 474.779 221.715 471.685 220.71 468.74C223.446 464.661 226.509 460.812 229.87 457.23C231.267 455.931 232.328 454.313 232.962 452.513C233.596 450.714 233.784 448.788 233.51 446.9L231.51 433.39L226.65 410.39C227.26 403.99 225.93 400.31 224.45 398.23C224.8 396.17 225.13 394.1 225.38 392.03C226.455 383.015 225.974 373.883 223.96 365.03C223.26 361.94 222.3 358.77 220.14 356.43C217.68 353.78 213.7 352.16 212.79 348.69C212.65 347.811 212.463 346.94 212.23 346.08C211.34 343.8 208.53 342.98 206.07 342.68C201.69 342.15 195.36 341.74 191.15 343.46C188.22 344.67 184.15 347.97 182.56 351.52C181.601 352.998 181.244 354.787 181.56 356.52C181.713 357.113 181.949 357.682 182.26 358.21C181.61 359.913 181.272 361.718 181.26 363.54C181.276 366.654 182.229 369.691 183.995 372.255C185.76 374.82 188.257 376.794 191.16 377.92C191.25 378.22 191.34 378.52 191.42 378.82C191.603 379.53 191.733 380.252 191.81 380.98C191.74 382.39 191.65 383.8 191.58 385.2C191.542 385.393 191.492 385.583 191.43 385.77C187.947 387.312 184.552 389.045 181.26 390.96C183.69 394.53 180.86 409.63 180.86 409.63C174.79 413.21 168.72 422.35 175.19 431.88C181.66 441.41 178.02 451.63 178.02 451.63L177.02 467.17L176.82 470.27H176.9L176.82 471.45H176.99V472.72C174.14 473.72 169.99 475.86 167.52 479.72C166.346 481.636 164.92 483.384 163.28 484.92C162.879 485.244 162.564 485.662 162.364 486.137C162.164 486.612 162.085 487.129 162.133 487.642C162.182 488.155 162.357 488.648 162.642 489.077C162.928 489.506 163.315 489.857 163.77 490.1ZM212.62 448.82C212.377 446.134 212.875 443.433 214.06 441.01C215.01 441.01 215.97 441.01 216.92 441.01C217.02 441.68 217.13 442.32 217.27 442.9C218.09 446.44 214.81 448.11 212.62 448.82Z" fill="url(#paint0_linear)"/>
<path d="M213.42 602.83L214.98 607.5L209.94 612.56L193.2 616.45L181.13 615.28L181.91 611C182.139 610.08 182.618 609.241 183.294 608.576C183.97 607.911 184.816 607.445 185.74 607.23C190.74 606.06 200.16 603.41 202.15 599.71L213.42 602.83Z" fill="#DB8B8B"/>
<path opacity="0.1" d="M213.42 602.83L214.98 607.5L209.94 612.56L193.2 616.45L181.13 615.28L181.91 611C182.139 610.08 182.618 609.241 183.294 608.576C183.97 607.911 184.816 607.445 185.74 607.23C190.74 606.06 200.16 603.41 202.15 599.71L213.42 602.83Z" fill="black"/>
<path d="M185 614.12L187.34 611L185 607.4C185 607.4 178 610.22 174.88 609.83C171.76 609.44 170.21 614.9 176.05 616.45C181.89 618 214.98 616.45 214.98 616.45C214.98 616.45 220.82 613.73 214.98 606.33L209.94 610.22C209.94 610.22 201.37 614.9 197.09 614.12H185Z" fill="#2E3037"/>
<path d="M174.49 620.74L186.56 621.9L203.3 618.01L208.36 612.95L207.95 611.71L207.37 609.97L206.81 608.28L195.52 605.16C194.947 606.096 194.163 606.883 193.23 607.46C189.56 609.96 182.97 611.77 179.11 612.68L178.62 612.82C177.87 613.065 177.186 613.479 176.62 614.03C175.941 614.692 175.46 615.53 175.23 616.45L174.49 620.74Z" fill="#DB8B8B"/>
<path opacity="0.1" d="M174.49 620.74L186.56 621.9L203.3 618.01L208.36 612.95L207.95 611.71L203.3 615.28C203.3 615.28 194.74 619.96 190.45 619.18H178.39L180.72 616.06L178.62 612.82C177.87 613.065 177.186 613.479 176.62 614.03C175.941 614.692 175.46 615.53 175.23 616.45L174.49 620.74Z" fill="black"/>
<path d="M178.39 619.57L180.72 616.45L178.39 612.85C178.39 612.85 171.39 615.67 168.26 615.28C165.13 614.89 163.59 620.35 169.43 621.9C175.27 623.45 208.36 621.9 208.36 621.9C208.36 621.9 214.2 619.18 208.36 611.78L203.3 615.63C203.3 615.63 194.74 620.31 190.45 619.53L178.39 619.57Z" fill="#2E3037"/>
<path d="M188.12 393.77C188.12 393.77 206.81 395.71 204.12 387.93C203.362 385.72 203.162 383.356 203.54 381.05C204.029 378.193 205.16 375.485 206.85 373.13L189.33 375.86C190.376 377.615 191.174 379.506 191.7 381.48C193.75 389.74 188.12 393.77 188.12 393.77Z" fill="#DB8B8B"/>
<path d="M220.04 482.53C220.04 482.53 219.65 499.27 215.76 507.45L214.94 531.19C214.94 531.19 216.11 552.99 218.44 557.28C220.77 561.57 213.38 597.77 213.38 597.77V603.99C213.38 603.99 200.93 608.67 197.38 603.22L200.94 556.89L199.41 492.63L220.04 482.53Z" fill="#474463"/>
<path opacity="0.1" d="M220.04 482.53C220.04 482.53 219.65 499.27 215.76 507.45L214.94 531.19C214.94 531.19 216.11 552.99 218.44 557.28C220.77 561.57 213.38 597.77 213.38 597.77V603.99C213.38 603.99 200.93 608.67 197.38 603.22L200.94 556.89L199.41 492.63L220.04 482.53Z" fill="black"/>
<path d="M227.83 428.8L230.16 435.03L232.11 448.27C232.374 450.114 232.195 451.994 231.586 453.754C230.977 455.514 229.957 457.104 228.61 458.39C223.94 463.06 217.71 472.8 217.71 472.8L210.31 450.63C210.31 450.63 217.71 449.46 216.54 444.4C215.37 439.34 215.76 429.99 215.76 429.99L227.83 428.8Z" fill="#FC6681"/>
<path opacity="0.05" d="M227.83 428.8L230.16 435.03L232.11 448.27C232.374 450.114 232.195 451.994 231.586 453.754C230.977 455.514 229.957 457.104 228.61 458.39C223.94 463.06 217.71 472.8 217.71 472.8L210.31 450.63C210.31 450.63 217.71 449.46 216.54 444.4C215.37 439.34 215.76 429.99 215.76 429.99L227.83 428.8Z" fill="black"/>
<path opacity="0.1" d="M193.23 607.46C198.23 615.32 205.99 610.86 207.37 609.97L206.81 608.28L195.52 605.16C194.947 606.096 194.163 606.883 193.23 607.46Z" fill="black"/>
<path d="M177.61 497.71C178 503.16 184.61 523.02 184.61 523.02L189.28 539.36C192.631 550.911 194.358 562.873 194.41 574.9C194.311 578.688 194.828 582.467 195.94 586.09C199.06 594.65 192.83 606.33 192.83 606.33C198.28 616.06 207.62 609.45 207.62 609.45V603.22C207.62 603.22 215.02 569.35 213.07 562.73C211.12 556.11 210.35 538.2 210.35 538.2V505.89C216.57 499.662 220.346 491.408 220.99 482.63C221.09 481.36 221.16 480.02 221.21 478.63C221.53 469.84 215.52 459.55 213.21 455.87C212.65 454.99 212.3 454.49 212.3 454.49L177.88 468.13H177.8V469.46V472.41L177.61 497.71Z" fill="#474463"/>
<path opacity="0.1" d="M189.29 375.86C190.336 377.615 191.134 379.506 191.66 381.48C193.561 382.207 195.59 382.544 197.624 382.47C199.658 382.397 201.657 381.913 203.5 381.05C203.988 378.193 205.12 375.485 206.81 373.13L189.29 375.86Z" fill="black"/>
<path d="M197.07 381.7C205.454 381.7 212.25 374.904 212.25 366.52C212.25 358.136 205.454 351.34 197.07 351.34C188.686 351.34 181.89 358.136 181.89 366.52C181.89 374.904 188.686 381.7 197.07 381.7Z" fill="#DB8B8B"/>
<path opacity="0.1" d="M177.61 472.41H177.77C194.1 475.76 214.59 458.75 214.59 458.75C214.043 457.821 213.568 456.852 213.17 455.85C212.61 454.97 212.26 454.47 212.26 454.47L177.88 468.13L177.79 469.49L177.61 472.41Z" fill="black"/>
<path d="M181.94 393.38C181.94 393.38 203.74 380.14 210.75 385.59L220.48 398.05C220.48 398.05 226.71 399.99 225.54 412.45L230.21 435.03L216.21 438.54C216.21 438.54 207.94 446.32 214.59 457.63C214.59 457.63 193.96 474.76 177.59 471.26L178.75 452.96C178.75 452.96 182.26 442.84 176.03 433.5C169.8 424.16 175.64 415.2 181.48 411.69C181.5 411.63 184.23 396.88 181.94 393.38Z" fill="#FC6681"/>
<path d="M180.72 472.8C180.72 472.8 172.55 474.35 168.65 480.58C167.531 482.454 166.161 484.166 164.58 485.67C164.224 485.994 163.949 486.396 163.776 486.845C163.603 487.294 163.537 487.777 163.584 488.255C163.63 488.734 163.788 489.195 164.044 489.602C164.301 490.01 164.648 490.351 165.06 490.6C168.15 492.45 173.19 493.6 179.55 488.37C190.45 479.41 180.72 472.8 180.72 472.8Z" fill="#DB8B8B"/>
<path opacity="0.1" d="M192.79 400.77C192.79 400.77 200.58 399.99 202.52 420.24C204.46 440.49 207.58 445.16 207.58 445.16C207.58 445.16 209.53 455.67 204.86 461.9C200.19 468.13 191.23 481.36 191.23 481.36C191.23 481.36 181.5 484.09 179.55 474.36L191.62 451.78C191.62 451.78 193.57 444 188.9 438.55C184.23 433.1 180.72 396.88 192.79 400.77Z" fill="black"/>
<path d="M192.01 399.63C192.01 399.63 199.8 398.85 201.74 419.09C203.68 439.33 206.81 444.01 206.81 444.01C206.81 444.01 208.75 454.52 204.08 460.75C199.41 466.98 190.45 480.21 190.45 480.21C190.45 480.21 180.72 482.94 178.77 473.21L190.84 450.63C190.84 450.63 192.79 442.84 188.12 437.39C183.45 431.94 179.94 395.71 192.01 399.63Z" fill="#FC6681"/>
<path opacity="0.1" d="M185.59 414.2C185.59 414.2 184.81 426.27 188.31 432.89C191.81 439.51 191.82 448.07 188.31 452.75" fill="black"/>
<path opacity="0.1" d="M183.64 399.41C183.64 399.41 186.76 396.3 195.71 395.91C204.66 395.52 208.56 392.79 208.56 392.79" fill="black"/>
<path opacity="0.1" d="M205.3 346.89C207.66 347.18 210.37 347.99 211.22 350.22C211.445 351.063 211.625 351.918 211.76 352.78C212.64 356.18 216.47 357.78 218.83 360.37C220.92 362.66 221.83 365.77 222.51 368.79C224.448 377.467 224.911 386.409 223.88 395.24C223.12 401.7 221.57 408.06 221.13 414.54C220.69 421.02 221.49 427.85 225.04 433.3C226.56 435.64 228.57 437.7 229.65 440.3C227.42 442.11 224.34 442.37 221.47 442.47C218.137 442.577 214.803 442.577 211.47 442.47C209.705 442.544 207.95 442.18 206.36 441.41C205.236 440.694 204.313 439.703 203.68 438.53C201.77 435.28 201.28 431.38 201.36 427.6C201.44 423.82 202.04 420.08 202.11 416.31C202.11 414.25 201.99 412.07 200.81 410.39C199.84 409.267 198.742 408.26 197.54 407.39C193.38 403.7 191.95 397.77 191.81 392.21C191.67 386.65 192.58 381.07 192.11 375.52C191.93 373.35 191.11 370.74 188.98 370.32C188.308 370.283 187.639 370.196 186.98 370.06C185.26 369.4 185.43 366.98 184.98 365.21C184.43 363.21 182.74 361.69 182.26 359.68C181.14 354.97 187.13 349.35 191.06 347.68C194.99 346.01 201.08 346.37 205.3 346.89Z" fill="black"/>
<path d="M205.69 346.11C208.05 346.41 210.75 347.22 211.61 349.44C211.836 350.286 212.016 351.144 212.15 352.01C213.03 355.41 216.86 357.01 219.22 359.59C221.31 361.88 222.22 364.99 222.9 368.01C224.838 376.687 225.301 385.629 224.27 394.46C223.51 400.92 221.96 407.28 221.52 413.76C221.08 420.24 221.88 427.07 225.43 432.52C226.95 434.86 228.96 436.92 230.04 439.52C227.81 441.33 224.73 441.59 221.86 441.69C218.527 441.797 215.177 441.797 211.81 441.69C210.045 441.764 208.29 441.4 206.7 440.63C205.578 439.915 204.656 438.928 204.02 437.76C202.1 434.5 201.62 430.6 201.7 426.82C201.78 423.04 202.38 419.3 202.45 415.53C202.45 413.48 202.33 411.29 201.15 409.61C200.177 408.489 199.08 407.483 197.88 406.61C193.72 402.92 192.28 397 192.14 391.43C192 385.86 192.92 380.29 192.45 374.74C192.27 372.57 191.45 369.96 189.32 369.54C188.648 369.503 187.979 369.416 187.32 369.28C185.6 368.62 185.77 366.2 185.32 364.43C184.77 362.43 183.08 360.91 182.6 358.9C181.48 354.2 187.47 348.57 191.4 346.9C195.33 345.23 201.47 345.63 205.69 346.11Z" fill="#472727"/>
<path opacity="0.1" d="M961.14 695.97C974.395 695.97 985.14 694.493 985.14 692.67C985.14 690.847 974.395 689.37 961.14 689.37C947.885 689.37 937.14 690.847 937.14 692.67C937.14 694.493 947.885 695.97 961.14 695.97Z" fill="#6C63FF"/>
<path opacity="0.1" d="M869.2 705.3C882.455 705.3 893.2 703.822 893.2 702C893.2 700.177 882.455 698.7 869.2 698.7C855.945 698.7 845.2 700.177 845.2 702C845.2 703.822 855.945 705.3 869.2 705.3Z" fill="#6C63FF"/>
<path opacity="0.1" d="M760.91 692.68C774.165 692.68 784.91 691.203 784.91 689.38C784.91 687.558 774.165 686.08 760.91 686.08C747.655 686.08 736.91 687.558 736.91 689.38C736.91 691.203 747.655 692.68 760.91 692.68Z" fill="#6C63FF"/>
<path opacity="0.1" d="M906 730.88C915.422 730.88 923.06 729.832 923.06 728.54C923.06 727.248 915.422 726.2 906 726.2C896.578 726.2 888.94 727.248 888.94 728.54C888.94 729.832 896.578 730.88 906 730.88Z" fill="#6C63FF"/>
<path opacity="0.1" d="M810.58 728.53C820.002 728.53 827.64 727.482 827.64 726.19C827.64 724.898 820.002 723.85 810.58 723.85C801.158 723.85 793.52 724.898 793.52 726.19C793.52 727.482 801.158 728.53 810.58 728.53Z" fill="#6C63FF"/>
<path d="M868.69 701.25C868.69 701.25 902.35 590.91 863.42 546.71C834.3 513.65 801.25 517.6 786.42 521.71C782.589 522.732 779.025 524.573 775.976 527.108C772.927 529.643 770.465 532.81 768.76 536.39C763.59 547.55 764.52 565.68 801.06 586.83C862.23 622.24 866.06 670.83 866.06 670.83L868.69 701.25Z" fill="#3B9E74"/>
<path d="M791.71 537.34C791.71 537.34 890.94 568.34 868.71 701.25" stroke="#ABC722" stroke-miterlimit="10"/>
<path d="M849.67 548.47C849.67 548.47 836 557.67 840.35 571.47" stroke="#ABC722" stroke-miterlimit="10"/>
<path d="M801.66 556.63C801.66 556.63 810.02 548.13 820.18 552.82" stroke="#ABC722" stroke-miterlimit="10"/>
<path d="M840.94 599.39C840.94 599.39 855.6 591.95 859.39 601.27" stroke="#ABC722" stroke-miterlimit="10"/>
<path d="M877.18 614.91C877.18 614.91 866.18 614.03 865.97 619.3" stroke="#ABC722" stroke-miterlimit="10"/>
<path d="M870.05 702.13C870.05 702.13 830.63 621.93 819.8 623.69C814.66 624.52 812.29 629.58 811.21 634.69C809.881 641.262 810.633 648.085 813.36 654.21C818.94 667.02 833.94 691.39 870.05 702.13Z" fill="#3B9E74"/>
<path d="M820.09 638.91C820.09 638.91 861.47 698.91 869.47 701.55" stroke="#ABC722" stroke-miterlimit="10"/>
<path d="M816.28 648.28H825.94" stroke="#ABC722" stroke-miterlimit="10"/>
<path d="M827.85 670.23L842.99 670.88" stroke="#ABC722" stroke-miterlimit="10"/>
<path d="M837.06 652.67L835.42 660.56" stroke="#ABC722" stroke-miterlimit="10"/>
<path d="M853.16 676.67L852.87 683.84" stroke="#ABC722" stroke-miterlimit="10"/>
<path d="M868.88 702.13C868.88 702.13 908.3 621.93 919.13 623.69C924.28 624.52 926.65 629.58 927.72 634.69C929.049 641.262 928.297 648.085 925.57 654.21C919.94 667.02 904.94 691.39 868.88 702.13Z" fill="#3B9E74"/>
<path d="M918.84 638.91C918.84 638.91 877.46 698.91 869.47 701.55" stroke="#ABC722" stroke-miterlimit="10"/>
<path d="M922.64 648.28H912.98" stroke="#ABC722" stroke-miterlimit="10"/>
<path d="M911.07 670.23L895.93 670.88" stroke="#ABC722" stroke-miterlimit="10"/>
<path d="M901.86 652.67L903.5 660.56" stroke="#ABC722" stroke-miterlimit="10"/>
<path d="M885.76 676.67L886.05 683.84" stroke="#ABC722" stroke-miterlimit="10"/>
<path d="M801.19 720.86C800.116 719.984 799.334 718.802 798.95 717.47C798.775 716.802 798.835 716.094 799.121 715.466C799.407 714.837 799.901 714.326 800.52 714.02C801.96 713.47 803.52 714.47 804.66 715.48C805.8 716.49 807.16 717.64 808.66 717.43C807.876 716.716 807.289 715.811 806.956 714.804C806.623 713.797 806.556 712.721 806.76 711.68C806.83 711.253 807.013 710.852 807.29 710.52C808.09 709.66 809.54 710.03 810.5 710.7C813.5 712.84 814.39 716.98 814.41 720.7C814.56 719.331 814.56 717.949 814.41 716.58C814.352 715.893 814.463 715.202 814.733 714.568C815.003 713.933 815.424 713.374 815.96 712.94C816.683 712.548 817.498 712.355 818.32 712.38C818.999 712.283 819.691 712.331 820.351 712.518C821.01 712.706 821.623 713.03 822.15 713.47C823.31 714.71 823.01 716.8 822 718.17C820.862 719.453 819.508 720.525 818 721.34C816.868 722.019 815.901 722.941 815.17 724.04C815.088 724.194 815.018 724.355 814.96 724.52H806.39C804.5 723.539 802.751 722.308 801.19 720.86Z" fill="#ABC722"/>
<path d="M951.41 688.56C950.336 687.684 949.554 686.502 949.17 685.17C948.996 684.505 949.057 683.8 949.341 683.174C949.625 682.547 950.115 682.038 950.73 681.73C952.17 681.17 953.73 682.17 954.88 683.18C956.03 684.19 957.38 685.34 958.88 685.18C958.096 684.466 957.509 683.561 957.176 682.554C956.843 681.547 956.776 680.471 956.98 679.43C957.05 679.003 957.233 678.602 957.51 678.27C958.31 677.41 959.76 677.78 960.72 678.45C963.72 680.59 964.61 684.73 964.63 688.45C964.78 687.081 964.78 685.699 964.63 684.33C964.572 683.643 964.683 682.952 964.953 682.318C965.223 681.683 965.644 681.124 966.18 680.69C966.903 680.298 967.718 680.105 968.54 680.13C969.217 680.032 969.908 680.079 970.566 680.267C971.225 680.455 971.836 680.78 972.36 681.22C973.53 682.46 973.22 684.55 972.21 685.92C971.073 687.203 969.719 688.276 968.21 689.09C967.078 689.769 966.111 690.691 965.38 691.79C965.298 691.944 965.228 692.105 965.17 692.27H956.6C954.71 691.273 952.965 690.025 951.41 688.56Z" fill="#ABC722"/>
<path d="M901.35 720.86C900.273 719.985 899.488 718.802 899.1 717.47C898.925 716.802 898.985 716.094 899.271 715.466C899.557 714.837 900.051 714.326 900.67 714.02C902.11 713.47 903.67 714.47 904.82 715.48C905.97 716.49 907.32 717.64 908.82 717.43C908.033 716.718 907.444 715.814 907.11 714.806C906.777 713.798 906.712 712.721 906.92 711.68C906.985 711.252 907.169 710.85 907.45 710.52C908.25 709.66 909.69 710.03 910.65 710.7C913.65 712.84 914.55 716.98 914.56 720.7C914.73 719.333 914.75 717.951 914.62 716.58C914.56 715.894 914.669 715.203 914.938 714.568C915.206 713.934 915.626 713.375 916.16 712.94C916.884 712.549 917.698 712.356 918.52 712.38C919.199 712.283 919.891 712.33 920.551 712.517C921.211 712.705 921.824 713.03 922.35 713.47C923.51 714.71 923.21 716.8 922.2 718.17C921.061 719.451 919.707 720.524 918.2 721.34C917.064 722.014 916.096 722.937 915.37 724.04C915.284 724.192 915.214 724.353 915.16 724.52H906.58C904.679 723.542 902.92 722.311 901.35 720.86Z" fill="#ABC722"/>
<path d="M759.36 655.57C759.36 655.57 756.14 659.77 760.84 666.12C765.54 672.47 769.42 677.83 767.84 681.79C767.84 681.79 760.75 670 754.98 669.79C749.21 669.58 753.01 662.63 759.36 655.57Z" fill="#ABC722"/>
<path opacity="0.1" d="M759.36 655.57C759.076 655.975 758.854 656.42 758.7 656.89C753.07 663.5 750.07 669.68 755.48 669.83C760.53 669.98 766.58 679 768.02 681.27C767.979 681.448 767.922 681.622 767.85 681.79C767.85 681.79 760.76 670 754.99 669.79C749.22 669.58 753.01 662.63 759.36 655.57Z" fill="black"/>
<path d="M753.38 660.93C753.38 662.41 753.55 663.61 753.75 663.61C753.95 663.61 754.12 662.41 754.12 660.93C754.12 659.45 753.92 660.15 753.71 660.15C753.5 660.15 753.38 659.45 753.38 660.93Z" fill="#FFD037"/>
<path d="M751.33 662.7C752.63 663.4 753.76 663.83 753.86 663.65C753.96 663.47 752.99 662.75 751.69 662.04C750.39 661.33 750.9 661.85 750.8 662.04C750.7 662.23 750.03 661.99 751.33 662.7Z" fill="#FFD037"/>
<path d="M776.35 655.57C776.35 655.57 779.56 659.77 774.86 666.12C770.16 672.47 766.29 677.83 767.86 681.79C767.86 681.79 774.95 670 780.73 669.79C786.51 669.58 782.7 662.63 776.35 655.57Z" fill="#ABC722"/>
<path opacity="0.1" d="M776.35 655.57C776.629 655.977 776.847 656.421 777 656.89C782.64 663.5 785.64 669.68 780.22 669.83C775.22 669.98 769.13 679 767.68 681.27C767.68 681.45 767.79 681.62 767.85 681.79C767.85 681.79 774.94 670 780.72 669.79C786.5 669.58 782.7 662.63 776.35 655.57Z" fill="black"/>
<path d="M782.32 660.93C782.32 662.41 782.16 663.61 781.95 663.61C781.74 663.61 781.58 662.41 781.58 660.93C781.58 659.45 781.79 660.15 781.99 660.15C782.19 660.15 782.32 659.45 782.32 660.93Z" fill="#FFD037"/>
<path d="M784.38 662.7C783.08 663.4 781.94 663.83 781.85 663.65C781.76 663.47 782.72 662.75 784.02 662.04C785.32 661.33 784.81 661.85 784.91 662.04C785.01 662.23 785.68 661.99 784.38 662.7Z" fill="#FFD037"/>
<path d="M781.3 681.24C781.3 681.24 772.3 680.96 769.6 679.03C766.9 677.1 755.77 674.8 755.1 677.9C754.43 681 741.58 693.29 751.74 693.37C761.9 693.45 775.32 691.79 778.03 690.14C780.74 688.49 781.3 681.24 781.3 681.24Z" fill="#A8A8A8"/>
<path opacity="0.2" d="M751.55 692.29C761.71 692.37 775.14 690.71 777.85 689.06C779.9 687.81 780.73 683.31 781 681.23H781.3C781.3 681.23 780.73 688.48 778.03 690.13C775.33 691.78 761.89 693.44 751.74 693.36C748.81 693.36 747.79 692.29 747.85 690.75C748.26 691.69 749.37 692.27 751.55 692.29Z" fill="black"/>
<path opacity="0.1" d="M167.29 711.22C186.465 711.22 202.01 708.923 202.01 706.09C202.01 703.257 186.465 700.96 167.29 700.96C148.115 700.96 132.57 703.257 132.57 706.09C132.57 708.923 148.115 711.22 167.29 711.22Z" fill="#3B9E74"/>
<path opacity="0.1" d="M251.36 757.27C270.535 757.27 286.08 754.973 286.08 752.14C286.08 749.307 270.535 747.01 251.36 747.01C232.185 747.01 216.64 749.307 216.64 752.14C216.64 754.973 232.185 757.27 251.36 757.27Z" fill="#3B9E74"/>
<path opacity="0.1" d="M622.26 634.72C634.957 634.72 645.25 633.569 645.25 632.15C645.25 630.731 634.957 629.58 622.26 629.58C609.563 629.58 599.27 630.731 599.27 632.15C599.27 633.569 609.563 634.72 622.26 634.72Z" fill="#3B9E74"/>
<path opacity="0.1" d="M514.79 708.66C527.487 708.66 537.78 707.509 537.78 706.09C537.78 704.671 527.487 703.52 514.79 703.52C502.093 703.52 491.8 704.671 491.8 706.09C491.8 707.509 502.093 708.66 514.79 708.66Z" fill="#3B9E74"/>
<path opacity="0.1" d="M466.34 754.71C479.037 754.71 489.33 753.559 489.33 752.14C489.33 750.721 479.037 749.57 466.34 749.57C453.643 749.57 443.35 750.721 443.35 752.14C443.35 753.559 453.643 754.71 466.34 754.71Z" fill="#3B9E74"/>
<g clip-path="url(#clip1)">
<path d="M330.81 224.93H303.039C300.256 224.93 298 222.673 298 219.891V211.311C298 208.42 298.533 205.552 299.573 202.854L304.93 188.956C306.095 185.935 308.121 183.371 310.791 181.539C313.46 179.707 316.582 178.738 319.82 178.738H330.81V224.93H330.81Z" fill="#49BA6E"/>
<path d="M318.212 205.655V196.375C318.212 193.592 315.956 191.336 313.173 191.336H304.013L299.573 202.854C299.014 204.306 298.602 205.807 298.341 207.334H316.533C317.46 207.334 318.212 206.582 318.212 205.655Z" fill="#152940"/>
<path d="M335.853 172.783C334.461 172.783 333.333 171.654 333.333 170.263V165.224C333.333 163.832 334.461 162.704 335.853 162.704C337.244 162.704 338.372 163.832 338.372 165.224V170.263C338.372 171.654 337.244 172.783 335.853 172.783Z" fill="#1F6048"/>
<path d="M345.931 172.783C344.539 172.783 343.411 171.654 343.411 170.263V165.224C343.411 163.832 344.539 162.704 345.931 162.704C347.323 162.704 348.45 163.832 348.45 165.224V170.263C348.45 171.654 347.323 172.783 345.931 172.783Z" fill="#1F6048"/>
<path d="M356.009 172.783C354.617 172.783 353.49 171.654 353.49 170.263V165.224C353.49 163.832 354.617 162.704 356.009 162.704C357.401 162.704 358.529 163.832 358.529 165.224V170.263C358.529 171.654 357.401 172.783 356.009 172.783Z" fill="#1F6048"/>
<path d="M380.641 224.846H325.938C325.846 224.846 325.771 224.77 325.771 224.678V171.096C325.771 169.24 327.274 167.736 329.13 167.736H363.222C364.228 167.736 365.181 168.187 365.819 168.964L383.237 190.177C383.73 190.778 384 191.531 384 192.309V221.486C384 223.342 382.496 224.846 380.641 224.846V224.846Z" fill="#148253"/>
<path d="M365.819 168.964C365.181 168.186 364.228 167.736 363.223 167.736H354.886V224.846H380.641C382.496 224.846 384 223.341 384 221.486V192.309C384 191.531 383.73 190.778 383.237 190.177L365.819 168.964Z" fill="#227351"/>
<path d="M318.996 224.419C318.996 227.666 316.364 230.298 313.117 230.298C309.871 230.298 307.238 227.666 307.238 224.419C307.238 221.173 309.871 218.54 313.117 218.54C316.364 218.54 318.996 221.173 318.996 224.419Z" fill="#A7D533"/>
<path d="M313.117 232.818C308.486 232.818 304.719 229.051 304.719 224.42C304.719 219.789 308.486 216.021 313.117 216.021C317.748 216.021 321.516 219.789 321.516 224.42C321.516 229.051 317.748 232.818 313.117 232.818ZM313.117 221.061C311.265 221.061 309.758 222.568 309.758 224.42C309.758 226.272 311.265 227.779 313.117 227.779C314.969 227.779 316.477 226.272 316.477 224.42C316.477 222.567 314.969 221.061 313.117 221.061Z" fill="#152940"/>
<path d="M373.082 224.419C373.082 227.666 370.45 230.298 367.203 230.298C363.957 230.298 361.324 227.666 361.324 224.419C361.324 221.173 363.957 218.54 367.203 218.54C370.45 218.54 373.082 221.173 373.082 224.419Z" fill="#A7D533"/>
<path d="M367.203 232.818C362.572 232.818 358.805 229.051 358.805 224.42C358.805 219.789 362.572 216.021 367.203 216.021C371.834 216.021 375.602 219.789 375.602 224.42C375.602 229.051 371.834 232.818 367.203 232.818ZM367.203 221.061C365.351 221.061 363.844 222.568 363.844 224.42C363.844 226.272 365.351 227.779 367.203 227.779C369.055 227.779 370.562 226.272 370.562 224.42C370.562 222.567 369.055 221.061 367.203 221.061Z" fill="#152940"/>
<path d="M372.28 191.625C371.295 190.64 369.7 190.64 368.717 191.625L368.462 191.879C367.977 188.553 366.445 185.482 364.026 183.064C361.058 180.095 357.111 178.461 352.913 178.461C348.715 178.461 344.768 180.095 341.799 183.064C340.815 184.048 340.815 185.643 341.799 186.627C342.783 187.611 344.378 187.611 345.362 186.627C347.379 184.61 350.06 183.5 352.913 183.5C355.765 183.5 358.446 184.61 360.463 186.627C361.804 187.967 362.741 189.604 363.222 191.385C362.235 190.652 360.835 190.73 359.94 191.625C358.957 192.608 358.957 194.204 359.94 195.188L364.329 199.576C364.821 200.068 365.466 200.314 366.11 200.314C366.755 200.314 367.4 200.068 367.891 199.576L372.28 195.188C373.264 194.204 373.264 192.608 372.28 191.625V191.625Z" fill="#A7D533"/>
<path d="M362.754 205.937C360.737 207.954 358.055 209.064 355.203 209.064C352.351 209.064 349.669 207.954 347.652 205.937C346.313 204.596 345.374 202.96 344.894 201.179C345.881 201.913 347.28 201.834 348.175 200.939C349.159 199.956 349.159 198.36 348.175 197.376L343.787 192.988C343.315 192.515 342.674 192.25 342.005 192.25C341.337 192.25 340.696 192.515 340.224 192.988L335.836 197.376C334.852 198.36 334.852 199.956 335.836 200.939C336.328 201.431 336.973 201.677 337.617 201.677C338.262 201.677 338.907 201.431 339.399 200.939L339.654 200.684C340.138 204.01 341.671 207.082 344.089 209.5C347.058 212.469 351.005 214.103 355.203 214.103C359.401 214.103 363.348 212.469 366.317 209.5C367.3 208.516 367.3 206.92 366.317 205.937C365.333 204.953 363.737 204.953 362.754 205.937V205.937Z" fill="#A7D533"/>
<path d="M362.754 205.937C360.737 207.954 358.055 209.064 355.203 209.064C355.097 209.064 354.991 209.059 354.886 209.057V214.1C354.991 214.102 355.097 214.103 355.203 214.103C359.401 214.103 363.348 212.469 366.317 209.5C367.301 208.516 367.301 206.92 366.317 205.937C365.333 204.953 363.738 204.953 362.754 205.937V205.937Z" fill="#49BA6E"/>
<path d="M368.717 191.625L368.462 191.879C367.977 188.553 366.445 185.482 364.026 183.064C361.528 180.566 358.336 179.012 354.886 178.583V183.683C356.987 184.073 358.92 185.084 360.463 186.627C361.804 187.967 362.742 189.604 363.222 191.385C362.235 190.652 360.836 190.73 359.941 191.625C358.957 192.608 358.957 194.204 359.941 195.188L364.329 199.576C364.821 200.068 365.466 200.314 366.11 200.314C366.755 200.314 367.4 200.068 367.892 199.576L372.28 195.188C373.264 194.204 373.264 192.609 372.28 191.625C371.296 190.64 369.7 190.64 368.717 191.625V191.625Z" fill="#49BA6E"/>
<path d="M378.899 174.259C378.254 174.259 377.61 174.013 377.118 173.521C376.134 172.537 376.134 170.942 377.118 169.958C378.336 168.74 378.949 167.675 378.941 166.792C378.934 165.921 378.32 164.87 377.118 163.667C372.729 159.278 372.729 154.639 377.118 150.25C378.102 149.266 379.697 149.266 380.681 150.25C381.665 151.233 381.665 152.828 380.681 153.813C378.241 156.253 378.241 157.664 380.681 160.104C385.07 164.492 385.069 169.133 380.681 173.521C380.188 174.013 379.544 174.259 378.899 174.259V174.259Z" fill="#C9DFF7"/>
</g>
</g>
<defs>
<linearGradient id="paint0_linear" x1="197.91" y1="624.82" x2="197.91" y2="342.18" gradientUnits="userSpaceOnUse">
<stop stop-color="#808080" stop-opacity="0.25"/>
<stop offset="0.54" stop-color="#808080" stop-opacity="0.12"/>
<stop offset="1" stop-color="#808080" stop-opacity="0.1"/>
</linearGradient>
<clipPath id="clip0">
<rect width="1077.87" height="757.27" fill="white"/>
</clipPath>
<clipPath id="clip1">
<rect width="86" height="86" fill="white" transform="translate(298 148)"/>
</clipPath>
</defs>
</svg>
