<?xml version="1.0" encoding="UTF-8"?>
<svg width="4493px" height="1674px" viewBox="0 0 4493 1674" version="1.1" xmlns="http://www.w3.org/2000/svg" xmlns:xlink="http://www.w3.org/1999/xlink">
    <!-- Generator: Sketch 53 (72520) - https://sketchapp.com -->
    <title>Group 7</title>
    <desc>Created with Sketch.</desc>
    <g id="Page-1" stroke="none" stroke-width="1" fill="none" fill-rule="evenodd">
        <g id="Group-7">
            <polyline id="Fill-3" fill="#D6D5D0" points="303.449 873.1 887.029 553.8 869.029 520.89 294.756 835.09 303.449 873.1"></polyline>
            <path d="M303.449,873.1 C323.942,861.89 307.058,825.13 307.058,825.13 L822.425,543.16 L560.025,63.57 L1.13686838e-13,369.98 L268.422,860.58 C275.833,868.94 289.561,880.7 303.449,873.1" id="Fill-4" fill="#8B8B87"></path>
            <polyline id="Fill-5" fill="#D6D5D0" points="870.749 524.39 310.719 830.8 23.808 306.41 583.835 0 870.749 524.39"></polyline>
            <path d="M152.945,396.22 L115.855,328.43 L133.757,318.64 L161.43,335.77 C169.36,340.71 178.005,346.96 185.206,352.95 L185.505,352.79 C179.605,344.39 174.294,335.4 168.737,325.24 L157.895,305.43 L171.976,297.72 L209.066,365.51 L192.973,374.32 L164.184,356.09 C156.198,351.05 146.987,344.72 139.319,338.59 L139.072,338.86 C144.372,347.59 149.801,357.03 155.854,368.1 L167.026,388.51 L152.945,396.22" id="Fill-6" fill="#565C67"></path>
            <polyline id="Fill-7" fill="#565C67" points="246.988 307.52 222.044 321.16 230.849 337.26 258.711 322.01 265.589 334.59 222.339 358.25 185.25 290.46 227.089 267.57 233.967 280.14 207.517 294.61 215.221 308.69 240.165 295.05 246.988 307.52"></polyline>
            <path d="M287.711,322.48 L234.529,263.5 L250.924,254.53 L271.353,279.68 C277.263,286.9 283.46,294.88 288.308,301.11 L288.506,301.01 C285.595,293.06 282.749,284.03 279.891,274.75 L270.436,243.85 L286.73,234.94 L307.79,260.53 C313.646,267.65 318.714,274.29 323.846,281.28 L324.047,281.17 C320.927,273.08 318.086,264.3 315.094,255.49 L305.437,224.7 L321.028,216.17 L340.617,293.54 L324.021,302.62 L302.329,276.59 C297.279,270.46 292.707,264.73 287.664,257.43 L287.461,257.54 C290.439,265.84 292.853,272.88 294.987,280.6 L304.507,313.29 L287.711,322.48" id="Fill-8" fill="#565C67"></path>
            <path d="M357.116,263.99 C362.395,263.85 369.888,262.49 376.425,258.92 C383.465,255.06 385.591,250.11 383.17,245.69 C380.859,241.46 376.319,240.81 366.578,242.35 C353.168,244.59 342.412,242.37 337.019,232.51 C330.69,220.95 335.502,206.81 351.495,198.06 C359.14,193.88 365.653,192.41 370.667,192.02 L374.015,206.26 C370.584,206.44 364.711,207.17 358.071,210.8 C351.436,214.43 349.868,219.21 351.794,222.73 C354.16,227.06 359.028,226.88 369.592,225.41 C383.983,223.28 393.026,226.44 398.254,235.99 C404.473,247.36 401.004,261.8 382.399,271.98 C374.655,276.22 365.91,278.39 360.933,278.37 L357.116,263.99" id="Fill-9" fill="#565C67"></path>
            <polyline id="Fill-10" fill="#617B78" points="599.116 134.08 430.825 226.16 408.855 186.01 577.147 93.93 599.116 134.08"></polyline>
            <polyline id="Fill-11" fill="#8B8B87" points="652.013 171.08 147.988 446.85 135.368 423.78 639.394 148.01 652.013 171.08"></polyline>
            <polyline id="Fill-12" fill="#617B78" points="512.17 473.65 244.838 619.92 156.989 459.35 424.321 313.09 512.17 473.65"></polyline>
            <polyline id="Fill-13" fill="#8B8B87" points="669.315 202.7 448.333 323.61 438.371 305.4 659.352 184.49 669.315 202.7"></polyline>
            <polyline id="Fill-14" fill="#8B8B87" points="695.278 250.15 474.296 371.06 464.334 352.85 685.315 231.94 695.278 250.15"></polyline>
            <polyline id="Fill-15" fill="#8B8B87" points="721.241 297.6 500.258 418.51 490.296 400.3 711.278 279.4 721.241 297.6"></polyline>
            <polyline id="Fill-16" fill="#8B8B87" points="747.203 345.05 526.22 465.96 516.258 447.76 737.241 326.85 747.203 345.05"></polyline>
            <polyline id="Fill-17" fill="#C46640" points="783.392 447.75 302.218 711.02 266.056 644.93 747.23 381.66 783.392 447.75"></polyline>
            <polyline id="Fill-18" fill="#617B78" points="536.499 661.85 335.488 771.83 315.238 734.82 516.248 624.84 536.499 661.85"></polyline>
            <polyline id="Fill-19" fill="#617B78" points="816.663 508.56 608.721 622.33 588.471 585.32 796.412 471.55 816.663 508.56"></polyline>
            <polyline id="Fill-20" fill="#8B8B87" points="557.333 699.51 356.147 809.59 346.186 791.38 547.372 681.3 557.333 699.51"></polyline>
            <polyline id="Fill-21" fill="#8B8B87" points="837.319 546.32 636.132 656.4 626.171 638.19 827.359 528.11 837.319 546.32"></polyline>
            <path d="M145.669,1639.06 C145.669,1651.3 135.747,1661.22 123.508,1661.22 L78.83,1661.22 C66.591,1661.22 56.669,1651.3 56.669,1639.06 L56.669,1486.38 C56.669,1474.14 66.591,1464.22 78.83,1464.22 L123.508,1464.22 C135.747,1464.22 145.669,1474.14 145.669,1486.38 L145.669,1639.06" id="Fill-22" fill="#0B0B09"></path>
            <path d="M911.669,1639.06 C911.669,1651.3 901.749,1661.22 889.509,1661.22 L844.829,1661.22 C832.589,1661.22 822.669,1651.3 822.669,1639.06 L822.669,1486.38 C822.669,1474.14 832.589,1464.22 844.829,1464.22 L889.509,1464.22 C901.749,1464.22 911.669,1474.14 911.669,1486.38 L911.669,1639.06" id="Fill-23" fill="#0B0B09"></path>
            <path d="M920.439,561.63 C920.439,560.15 920.399,558.22 920.339,557.22 L48.052,557.22 C47.993,558.22 47.955,560.15 47.955,561.63 L49.654,595.78 L913.949,692.04 L920.439,561.63" id="Fill-24" fill="#ED9B2D"></path>
            <path d="M49.654,595.78 L97.536,1558.45 C97.536,1618.52 146.233,1667.22 206.303,1667.22 L762.088,1667.22 C822.158,1667.22 870.859,1618.52 870.859,1558.45 L913.949,692.03 L49.654,595.78" id="Fill-25" fill="#FFC000"></path>
            <path d="M955.669,550.03 C955.669,566.45 941.909,580.22 925.489,580.22 L42.904,580.22 C26.484,580.22 13.669,566.45 13.669,550.03 L13.669,508.48 C13.669,492.06 26.484,479.22 42.904,479.22 L925.489,479.22 C941.909,479.22 955.669,492.06 955.669,508.48 L955.669,550.03" id="Fill-26" fill="#FFC000"></path>
            <path d="M532.103,971.27 L488.538,1001.94 L545.668,995.12 L548.187,994.81 L555.468,993.96 L606.269,987.89 L628.053,944.26 L659.229,881.8 L614.927,912.99 L576.718,846.81 C566.47,831 555.7,824.1 545.09,823 C526.298,822.08 507.194,838.95 493.615,855.44 C489.894,860.17 486.508,864.95 483.514,869.47 C482.334,871.26 481.203,873.01 480.152,874.69 C481.193,876.85 482.337,879.17 483.514,881.54 C485.119,884.77 486.811,888.13 488.652,891.69 C499.813,913.42 515.099,941.21 532.103,971.27" id="Fill-27" fill="#FFFFFE"></path>
            <path d="M647.362,1180.12 C641.7,1179.71 635.327,1179.31 628.373,1178.98 C603.972,1177.79 572.276,1177.13 537.726,1176.83 L532.955,1123.76 L510.298,1176.65 L509.303,1178.98 L506.404,1185.72 L486.261,1232.76 L513.155,1273.43 L515.968,1277.69 L551.652,1331.65 L546.789,1277.69 L623.211,1277.69 C642.032,1276.73 653.38,1270.85 659.646,1262.21 C669.844,1246.4 664.779,1221.42 657.281,1201.41 C654.172,1193.61 650.627,1186.32 647.362,1180.12" id="Fill-28" fill="#FFFFFE"></path>
            <path d="M734.859,1144.49 C734.948,1138.43 733.662,1134.8 732.873,1133.09 L663.983,1013.75 L585.54,1055.37 C590.411,1063.54 596.304,1073.92 602.549,1085.03 L645.458,1159.35 C646.993,1161.67 650.49,1167.22 654.609,1174.8 L654.854,1174.83 L656.128,1177.16 C659.272,1182.92 662.879,1190.54 666.028,1198.95 C672.356,1215.09 677.495,1233.57 674.114,1249.69 L734.859,1144.49" id="Fill-29" fill="#FFFFFE"></path>
            <path d="M483.514,853.64 C484.673,852.13 485.861,850.61 487.113,849.09 C497.93,835.55 511.356,821.87 527.002,816.73 L405.528,816.73 C400.244,819.68 397.735,822.6 396.647,824.15 L395.712,825.76 L327.755,943.48 L403.022,990.6 C407.658,982.29 413.703,972 420.202,961.03 L463.1,886.72 C464.349,884.22 467.406,878.42 471.901,871.06 L471.794,870.85 L473.19,868.58 C475.862,864.2 479.383,859.01 483.514,853.64" id="Fill-30" fill="#FFFFFE"></path>
            <path d="M293.502,1180.37 C301.813,1181.58 309.917,1182.16 316.892,1182.42 C320.097,1177.72 323.616,1172.39 327.379,1166.56 C340.615,1146.01 357.038,1118.88 374.573,1089.12 L422.915,1111.52 L388.444,1065.45 L386.92,1063.42 L382.531,1057.55 L351.874,1016.59 L303.208,1019.54 L298.104,1019.86 L233.529,1023.77 L282.686,1046.55 L244.479,1112.72 C235.911,1129.5 235.329,1142.28 239.676,1152.02 C248.271,1168.76 272.441,1176.86 293.502,1180.37" id="Fill-31" fill="#FFFFFE"></path>
            <path d="M421.663,1191.16 L335.842,1191.16 C333.068,1191.32 326.505,1191.59 317.903,1191.37 L317.755,1191.57 L315.088,1191.49 C308.518,1191.34 300.134,1190.66 291.253,1189.17 C274.119,1186.59 255.552,1181.79 243.294,1170.81 L304.033,1276.02 C309.212,1279.12 313.018,1279.83 314.877,1280.01 L452.674,1280.01 L455.849,1191.26 C446.342,1191.37 434.404,1191.31 421.663,1191.16" id="Fill-32" fill="#FFFFFE"></path>
            <path d="M2864.81,289.34 L2871.41,201.38 C2871.41,201.38 2809.66,165.08 2843.04,135.62 C2876.44,106.17 2900.21,148.37 2900.21,148.37 C2900.21,148.37 2934.08,104.52 2956.29,139.47 C2978.5,174.42 2924.72,195.09 2924.72,195.09 L2913.35,290.99 L2867.36,293.92" id="Fill-114" fill="#C4BFB8"></path>
            <path d="M2875.98,286.39 C2871.46,286.12 2867.36,285.45 2863.66,284.44 C2841.04,305.55 2645.68,495.33 2781.04,633.17 C2789.56,641.86 2797.83,648.99 2805.88,654.93 C2855.75,595.54 2970.05,432.96 2875.98,286.39" id="Fill-115" fill="#B87E4E"></path>
            <path d="M2875.98,286.39 C2970.05,432.96 2855.75,595.54 2805.88,654.93 C2933.52,748.95 3002.76,516.54 3002.76,516.54 C3002.76,516.54 3027.38,378.85 2913.63,280.73 C2898.58,285.54 2886.21,287 2875.98,286.39" id="Fill-116" fill="#AB724B"></path>
            <path d="M2619.27,322.18 C2621.53,308.41 2618.94,294.56 2610.83,283.19 C2603.13,272.36 2591.66,265.51 2578.71,262.84 C2579.49,249.45 2575.94,235.84 2567.66,224.21 C2550.81,200.56 2519.83,192.74 2493.33,203.56 C2491.22,198.39 2488.46,193.32 2485.02,188.49 C2464.65,159.88 2428.45,150.7 2404.17,167.99 C2382.53,183.4 2377.67,214.64 2391.3,241.51 C2368.94,261.41 2364.07,294.41 2381,318.18 C2389.29,329.83 2401.39,337.25 2414.65,340.08 C2405.02,360.5 2405.78,384.16 2418.81,402.46 C2429.92,418.06 2447.63,426.5 2466.53,427.15 C2468.63,438.53 2473.27,449.77 2480.54,459.98 C2504.58,493.74 2548.66,503.92 2580.82,483.88 C2603.63,499.98 2632.62,525.19 2659.02,562.26 L2669.9,554.51 L2673.91,551.66 L2684.78,543.91 C2660.47,509.78 2646.4,476.86 2638.26,450.93 C2638.59,450.38 2638.91,449.83 2639.22,449.28 C2666.8,425.03 2670.8,381.39 2647.34,348.45 C2640.1,338.27 2631.03,330.24 2621.01,324.53 L2619.27,322.18" id="Fill-117" fill="#576933"></path>
            <path d="M2672.12,550.6 C2671.04,551.38 2669.53,551.12 2668.76,550.04 L2401.87,175.29 C2401.1,174.21 2401.35,172.7 2402.43,171.93 C2403.52,171.16 2405.02,171.41 2405.79,172.49 L2672.69,547.25 C2673.46,548.33 2673.2,549.83 2672.12,550.6" id="Fill-118" fill="#9EC75D"></path>
            <path d="M2492.42,298.2 C2484.06,304.16 2473.03,308.11 2459.63,309.95 C2449.04,311.4 2436.94,311.55 2423.67,310.39 C2401.14,308.41 2382.7,303.26 2382.52,303.21 C2381.23,302.85 2380.49,301.52 2380.85,300.24 C2381.21,298.96 2382.54,298.21 2383.82,298.58 C2384,298.63 2402.08,303.67 2424.17,305.59 C2444.31,307.35 2472.03,306.81 2489.63,294.28 C2490.71,293.51 2492.22,293.76 2492.99,294.85 C2493.76,295.93 2493.51,297.43 2492.42,298.2" id="Fill-119" fill="#9EC75D"></path>
            <path d="M2510.58,322.33 C2509.5,323.1 2507.99,322.85 2507.22,321.76 C2506.45,320.68 2506.7,319.18 2507.79,318.41 C2529.87,302.68 2538.99,276.73 2542.76,257.74 C2546.87,237.01 2545.67,219.89 2545.66,219.72 C2545.56,218.39 2546.55,217.24 2547.88,217.14 C2549.21,217.04 2550.36,218.04 2550.46,219.37 C2550.51,220.09 2551.72,237.31 2547.48,258.67 C2544.99,271.26 2541.11,282.64 2535.96,292.51 C2529.46,304.93 2520.93,314.96 2510.58,322.33" id="Fill-120" fill="#9EC75D"></path>
            <path d="M2554.17,384.9 C2545.64,390.97 2534.19,394.88 2520.13,396.52 C2509.02,397.81 2496.25,397.7 2482.17,396.19 C2458.28,393.63 2438.52,387.83 2438.32,387.77 C2437.05,387.39 2436.32,386.05 2436.7,384.78 C2437.08,383.5 2438.42,382.77 2439.69,383.15 C2439.89,383.21 2459.29,388.9 2482.76,391.4 C2504.17,393.69 2533.46,393.74 2551.38,380.98 C2552.46,380.21 2553.96,380.46 2554.73,381.54 C2555.51,382.63 2555.25,384.13 2554.17,384.9" id="Fill-121" fill="#9EC75D"></path>
            <path d="M2540.21,364.62 C2539.13,365.39 2537.62,365.13 2536.85,364.05 C2536.08,362.97 2536.33,361.46 2537.41,360.69 C2558.15,345.92 2572.69,326.81 2581.22,313.37 C2590.48,298.82 2594.85,287.69 2594.89,287.58 C2595.37,286.34 2596.77,285.72 2598.01,286.2 C2599.25,286.68 2599.86,288.08 2599.38,289.32 C2599.2,289.79 2594.79,301.01 2585.29,315.96 C2576.52,329.75 2561.58,349.39 2540.21,364.62" id="Fill-122" fill="#9EC75D"></path>
            <path d="M2603.71,454.46 C2595.51,460.3 2585.34,464.23 2573.48,466.15 C2564.09,467.67 2553.62,467.95 2542.37,466.96 C2523.27,465.28 2508.68,460.63 2508.07,460.43 C2506.8,460.02 2506.11,458.66 2506.52,457.39 C2506.92,456.13 2508.28,455.43 2509.55,455.84 C2509.69,455.89 2524.31,460.55 2542.89,462.17 C2559.83,463.64 2583.65,462.82 2600.91,450.53 C2601.99,449.76 2603.5,450.01 2604.27,451.09 C2605.04,452.18 2604.79,453.68 2603.71,454.46" id="Fill-123" fill="#9EC75D"></path>
            <path d="M2607.12,414.93 C2594.77,423.72 2584.22,427.43 2583.74,427.6 C2582.48,428.03 2581.11,427.37 2580.68,426.11 C2580.24,424.85 2580.91,423.48 2582.17,423.04 C2582.36,422.97 2594.43,418.7 2607.42,408.71 C2619.34,399.55 2634.52,383.53 2639.17,359.25 C2639.42,357.94 2640.69,357.09 2641.99,357.34 C2643.3,357.59 2644.15,358.85 2643.91,360.16 C2641.72,371.57 2637.19,382.23 2630.43,391.83 C2625.05,399.48 2618.25,406.48 2610.22,412.63 C2609.18,413.43 2608.14,414.2 2607.12,414.93" id="Fill-124" fill="#9EC75D"></path>
            <path d="M2685.71,322.91 C2691.46,310.2 2692.54,296.15 2687.65,283.07 C2683,270.61 2673.7,261.03 2661.88,255.1 C2666.1,242.37 2666.19,228.31 2661.2,214.93 C2651.04,187.73 2623.14,172.16 2594.75,175.76 C2594.05,170.21 2592.69,164.6 2590.62,159.05 C2578.33,126.14 2545.74,107.92 2517.82,118.34 C2492.93,127.63 2480.15,156.54 2486.37,186.02 C2459.63,199.47 2446.38,230.08 2456.59,257.42 C2461.59,270.82 2471.36,281.12 2483.43,287.28 C2468.85,304.52 2463.46,327.56 2471.31,348.62 C2478.01,366.56 2492.94,379.29 2511.02,384.81 C2510.11,396.34 2511.68,408.4 2516.06,420.15 C2530.55,458.97 2570.5,480.21 2606.75,469.17 C2624.61,490.62 2646.1,522.47 2662.02,565.11 L2674.53,560.44 L2679.14,558.72 L2691.65,554.05 C2676.99,514.79 2671.91,479.35 2670.76,452.2 C2671.21,451.75 2671.67,451.3 2672.11,450.85 C2705.03,434.56 2720.18,393.44 2706.04,355.55 C2701.67,343.85 2694.98,333.74 2686.79,325.64 L2685.71,322.91" id="Fill-125" fill="#6A7D3B"></path>
            <path d="M2677.68,557.24 C2676.44,557.7 2675.05,557.07 2674.58,555.82 L2513.7,124.79 C2513.24,123.55 2513.87,122.16 2515.12,121.69 C2516.36,121.23 2517.75,121.86 2518.22,123.11 L2679.1,554.14 C2679.56,555.38 2678.93,556.77 2677.68,557.24" id="Fill-126" fill="#9EC75D"></path>
            <path d="M2569.39,266.95 C2559.77,270.54 2548.09,271.5 2534.67,269.81 C2524.06,268.47 2512.34,265.49 2499.82,260.93 C2478.57,253.2 2462.09,243.46 2461.93,243.36 C2460.78,242.68 2460.4,241.2 2461.08,240.05 C2461.76,238.91 2463.24,238.54 2464.39,239.22 C2464.55,239.31 2480.71,248.86 2501.54,256.43 C2520.55,263.34 2547.46,269.99 2567.7,262.43 C2568.95,261.97 2570.34,262.6 2570.8,263.85 C2571.27,265.09 2570.63,266.48 2569.39,266.95" id="Fill-127" fill="#9EC75D"></path>
            <path d="M2580.69,294.95 C2579.44,295.41 2578.05,294.78 2577.59,293.53 C2577.12,292.29 2577.75,290.9 2579,290.43 C2604.4,280.95 2619.92,258.25 2628.47,240.88 C2637.8,221.91 2641.08,205.07 2641.11,204.9 C2641.36,203.59 2642.62,202.74 2643.92,202.99 C2645.23,203.24 2646.09,204.5 2645.84,205.8 C2645.71,206.52 2642.41,223.46 2632.8,243 C2627.13,254.51 2620.44,264.51 2612.91,272.71 C2603.43,283.02 2592.59,290.51 2580.69,294.95" id="Fill-128" fill="#9EC75D"></path>
            <path d="M2606.61,366.66 C2596.8,370.33 2584.72,371.14 2570.72,369.08 C2559.66,367.45 2547.35,364.04 2534.14,358.94 C2511.72,350.29 2494.14,339.58 2493.96,339.47 C2492.83,338.78 2492.47,337.29 2493.17,336.16 C2493.86,335.03 2495.34,334.67 2496.48,335.36 C2496.65,335.47 2513.92,345.98 2535.94,354.47 C2556.04,362.22 2584.31,369.84 2604.92,362.15 C2606.17,361.69 2607.56,362.32 2608.02,363.57 C2608.49,364.81 2607.85,366.2 2606.61,366.66" id="Fill-129" fill="#9EC75D"></path>
            <path d="M2598.37,343.46 C2597.12,343.92 2595.73,343.29 2595.27,342.04 C2594.8,340.8 2595.44,339.41 2596.68,338.94 C2620.54,330.04 2639.52,315.34 2651.24,304.57 C2663.94,292.9 2671.04,283.28 2671.11,283.18 C2671.9,282.11 2673.41,281.88 2674.48,282.66 C2675.55,283.45 2675.79,284.96 2675,286.03 C2674.7,286.44 2667.55,296.13 2654.5,308.12 C2642.46,319.17 2622.95,334.28 2598.37,343.46" id="Fill-130" fill="#9EC75D"></path>
            <path d="M2636.46,446.66 C2627.04,450.18 2616.2,451.35 2604.24,450.14 C2594.78,449.19 2584.6,446.74 2573.98,442.88 C2555.96,436.32 2543.08,428.04 2542.54,427.7 C2541.42,426.97 2541.1,425.48 2541.82,424.37 C2542.55,423.25 2544.04,422.93 2545.15,423.65 C2545.28,423.73 2558.2,432.02 2575.72,438.38 C2591.71,444.19 2614.93,449.56 2634.78,442.15 C2636.03,441.68 2637.42,442.32 2637.88,443.56 C2638.35,444.81 2637.71,446.2 2636.46,446.66" id="Fill-131" fill="#9EC75D"></path>
            <path d="M2649.99,409.36 C2635.78,414.67 2624.63,415.52 2624.13,415.55 C2622.8,415.65 2621.65,414.65 2621.55,413.32 C2621.46,412 2622.46,410.84 2623.79,410.75 C2623.99,410.73 2636.75,409.72 2651.89,403.44 C2665.77,397.67 2684.58,386.12 2695.35,363.87 C2695.93,362.67 2697.37,362.17 2698.57,362.75 C2699.77,363.33 2700.27,364.77 2699.69,365.97 C2694.63,376.43 2687.49,385.55 2678.48,393.08 C2671.3,399.08 2662.92,404.08 2653.58,407.95 C2652.37,408.45 2651.16,408.92 2649.99,409.36" id="Fill-132" fill="#9EC75D"></path>
            <path d="M2779.55,345.56 C2789.78,336.08 2796.23,323.55 2796.8,309.6 C2797.35,296.31 2792.49,283.88 2783.91,273.82 C2792.73,263.73 2798.28,250.8 2798.87,236.54 C2800.07,207.52 2780.39,182.34 2752.82,174.64 C2754.33,169.26 2755.26,163.56 2755.5,157.64 C2756.96,122.55 2733.99,93.1 2704.21,91.87 C2677.67,90.77 2654.67,112.46 2648.96,142.04 C2619.09,144.05 2595.01,167.13 2593.8,196.29 C2593.21,210.57 2598.21,223.86 2606.95,234.22 C2586.82,244.45 2572.91,263.59 2571.98,286.04 C2571.19,305.19 2580,322.71 2594.53,334.81 C2589.22,345.09 2585.98,356.81 2585.46,369.34 C2583.75,410.74 2612.33,445.82 2650.02,449.71 C2658.15,476.42 2665.6,514.11 2663.72,559.58 L2677.06,560.13 L2681.97,560.33 L2695.32,560.89 C2697.05,519.02 2706.12,484.39 2715.59,458.91 C2716.19,458.68 2716.78,458.44 2717.37,458.19 C2754.02,455.96 2783.95,423.94 2785.62,383.53 C2786.13,371.05 2783.89,359.15 2779.48,348.5 L2779.55,345.56" id="Fill-133" fill="#7EA143"></path>
            <path d="M2681.21,558.41 C2679.88,558.35 2678.85,557.23 2678.9,555.9 L2697.92,96.22 C2697.97,94.89 2699.09,93.86 2700.42,93.91 C2701.75,93.97 2702.79,95.09 2702.73,96.42 L2683.72,556.1 C2683.66,557.43 2682.54,558.46 2681.21,558.41" id="Fill-134" fill="#9EC75D"></path>
            <path d="M2694.06,248.84 C2683.8,248.42 2672.67,244.77 2660.95,238 C2651.7,232.66 2642.06,225.35 2632.28,216.29 C2615.71,200.92 2604.29,185.55 2604.18,185.39 C2603.39,184.32 2603.62,182.82 2604.69,182.03 C2605.76,181.24 2607.27,181.46 2608.06,182.53 C2608.17,182.68 2619.36,197.75 2635.62,212.82 C2650.46,226.56 2672.67,243.13 2694.26,244.03 C2695.59,244.08 2696.63,245.21 2696.57,246.53 C2696.52,247.86 2695.39,248.9 2694.06,248.84" id="Fill-135" fill="#9EC75D"></path>
            <path d="M2693.61,279.03 C2692.28,278.98 2691.25,277.85 2691.3,276.53 C2691.36,275.2 2692.48,274.16 2693.81,274.22 C2720.9,275.34 2744.02,260.44 2758.64,247.74 C2774.6,233.89 2784.15,219.64 2784.24,219.5 C2784.98,218.39 2786.47,218.09 2787.58,218.82 C2788.69,219.56 2788.99,221.05 2788.26,222.16 C2787.86,222.77 2778.24,237.1 2761.8,251.38 C2752.11,259.8 2742.06,266.41 2731.94,271.04 C2719.2,276.87 2706.3,279.56 2693.61,279.03" id="Fill-136" fill="#9EC75D"></path>
            <path d="M2689.67,355.19 C2679.21,354.76 2667.76,350.82 2655.65,343.48 C2646.09,337.69 2636.07,329.77 2625.88,319.94 C2608.57,303.27 2596.53,286.57 2596.4,286.41 C2595.63,285.33 2595.88,283.82 2596.96,283.05 C2598.04,282.27 2599.54,282.52 2600.32,283.6 C2600.44,283.76 2612.27,300.15 2629.27,316.53 C2644.78,331.47 2667.88,349.47 2689.86,350.37 C2691.19,350.43 2692.23,351.55 2692.17,352.88 C2692.12,354.21 2690.99,355.24 2689.67,355.19" id="Fill-137" fill="#9EC75D"></path>
            <path d="M2691.08,330.6 C2689.75,330.55 2688.72,329.42 2688.77,328.1 C2688.83,326.77 2689.95,325.73 2691.28,325.79 C2716.72,326.84 2739.92,320.66 2754.9,315.28 C2771.13,309.46 2781.41,303.35 2781.52,303.28 C2782.66,302.6 2784.14,302.97 2784.82,304.11 C2785.5,305.25 2785.13,306.73 2783.99,307.42 C2783.56,307.68 2773.2,313.84 2756.53,319.82 C2741.14,325.33 2717.29,331.69 2691.08,330.6" id="Fill-138" fill="#9EC75D"></path>
            <path d="M2686.14,440.5 C2676.08,440.09 2665.63,436.96 2655.09,431.21 C2646.74,426.65 2638.31,420.45 2630.02,412.76 C2615.96,399.73 2607.29,387.1 2606.93,386.57 C2606.18,385.47 2606.47,383.97 2607.57,383.22 C2608.67,382.47 2610.16,382.76 2610.91,383.85 C2611,383.98 2619.69,396.63 2633.37,409.3 C2645.85,420.86 2665.17,434.82 2686.34,435.69 C2687.66,435.74 2688.7,436.87 2688.64,438.2 C2688.59,439.53 2687.47,440.56 2686.14,440.5" id="Fill-139" fill="#9EC75D"></path>
            <path d="M2713.07,411.38 C2697.92,410.75 2687.32,407.21 2686.84,407.04 C2685.58,406.62 2684.91,405.25 2685.33,403.99 C2685.76,402.73 2687.13,402.06 2688.39,402.48 C2688.58,402.55 2700.74,406.57 2717.13,406.65 C2732.16,406.72 2753.98,403.38 2772.54,387.06 C2773.54,386.18 2775.06,386.28 2775.94,387.27 C2776.82,388.27 2776.72,389.8 2775.72,390.67 C2767,398.35 2756.88,403.99 2745.66,407.43 C2736.71,410.17 2727.04,411.53 2716.94,411.47 C2715.62,411.46 2714.33,411.43 2713.07,411.38" id="Fill-140" fill="#9EC75D"></path>
            <path d="M2817.84,622.81 C2824.05,628.7 2827.73,630.9 2833.05,625.44 C2838.38,619.99 2837.61,604.57 2845.49,598.09 C2853.37,591.6 2853.96,605.7 2862.89,597.04 C2871.77,588.45 2866.22,580.82 2873.59,577.06 C2869.03,568.74 2864.14,559.33 2859.11,548.9 C2836.87,502.81 2854.54,494.6 2842.96,462.94 C2831.38,431.28 2842.5,396.51 2811.88,289.41 C2781.26,182.31 2714.74,161.09 2700.5,173.17 C2686.26,185.24 2657.24,195.01 2627.44,314.76 C2597.64,434.5 2794.91,586.64 2794.91,586.64 C2799.28,592.55 2802.83,610.22 2805.33,630.63 C2807.92,626.17 2813.31,618.51 2817.84,622.81" id="Fill-141" fill="#B87E4E"></path>
            <path d="M2909.63,685.07 C2909.04,680.81 2900.85,621.22 2900.85,621.22 C2900.85,621.22 2889.17,605.51 2873.59,577.06 C2866.22,580.82 2871.77,588.45 2862.89,597.04 C2853.96,605.7 2853.37,591.6 2845.49,598.09 C2837.61,604.57 2838.38,619.99 2833.05,625.44 C2827.73,630.9 2824.05,628.7 2817.84,622.81 C2813.31,618.51 2807.92,626.17 2805.33,630.63 C2808.94,660.05 2810.35,695.18 2808.84,709.04 C2806.29,732.52 2829.13,740.94 2829.13,740.94 C2829.13,740.94 2889.44,748.55 2911.02,726.79 C2932.61,705.03 2910.21,689.32 2909.63,685.07" id="Fill-142" fill="#C4BFB8"></path>
            <path d="M2689.77,402.64 C2709.12,446.73 2741.2,475.28 2761.43,466.41 C2781.66,457.53 2782.38,414.59 2763.03,370.5 C2743.69,326.41 2711.61,297.86 2691.38,306.74 C2671.15,315.61 2670.43,358.55 2689.77,402.64" id="Fill-143" fill="#AB724B"></path>
            <polyline id="Fill-144" fill="#557F3E" points="3173.71 231.12 3048.42 700.15 3067.86 705.34 3203.87 196.22 3173.71 231.12"></polyline>
            <polyline id="Fill-145" fill="#4C7539" points="3212.6 241.5 3204.01 196.06 3203.87 196.22 3067.86 705.34 3087.3 710.54 3212.6 241.5"></polyline>
            <path d="M3188.89,248.59 C3186.04,259.25 3180.54,259.77 3174.36,258.12 C3168.18,256.47 3163.67,253.27 3166.52,242.61 C3169.37,231.95 3184.68,219.51 3184.68,219.51 C3184.68,219.51 3191.74,237.93 3188.89,248.59" id="Fill-146" fill="#88A852"></path>
            <path d="M3216.52,238.59 C3213.91,248.38 3208.85,248.86 3203.18,247.35 C3197.5,245.83 3193.36,242.89 3195.97,233.1 C3198.59,223.31 3212.65,211.88 3212.65,211.88 C3212.65,211.88 3219.14,228.8 3216.52,238.59" id="Fill-147" fill="#88A852"></path>
            <path d="M3206.1,289.77 C3202.46,300.19 3196.93,300.29 3190.89,298.18 C3184.86,296.07 3180.6,292.54 3184.24,282.12 C3187.89,271.71 3204.09,260.46 3204.09,260.46 C3204.09,260.46 3209.75,279.35 3206.1,289.77" id="Fill-148" fill="#88A852"></path>
            <path d="M3167.21,317.45 C3165.25,328.31 3159.8,329.28 3153.51,328.14 C3147.22,327.01 3142.46,324.19 3144.42,313.33 C3146.39,302.47 3160.62,288.82 3160.62,288.82 C3160.62,288.82 3169.18,306.59 3167.21,317.45" id="Fill-149" fill="#88A852"></path>
            <path d="M3188.53,357.98 C3184.89,368.4 3179.36,368.5 3173.32,366.39 C3167.29,364.28 3163.03,360.75 3166.67,350.33 C3170.32,339.92 3186.52,328.67 3186.52,328.67 C3186.52,328.67 3192.18,347.56 3188.53,357.98" id="Fill-150" fill="#88A852"></path>
            <path d="M3151.59,378.37 C3149.63,389.23 3144.18,390.2 3137.89,389.06 C3131.6,387.93 3126.84,385.11 3128.8,374.25 C3130.76,363.39 3145,349.74 3145,349.74 C3145,349.74 3153.55,367.51 3151.59,378.37" id="Fill-151" fill="#88A852"></path>
            <path d="M3169.06,430.87 C3165.41,441.29 3159.88,441.4 3153.85,439.29 C3147.81,437.17 3143.55,433.65 3147.2,423.23 C3150.84,412.81 3167.04,401.57 3167.04,401.57 C3167.04,401.57 3172.7,420.46 3169.06,430.87" id="Fill-152" fill="#88A852"></path>
            <path d="M3130.82,439.01 C3129.1,448.57 3124.3,449.43 3118.76,448.42 C3113.22,447.42 3109.03,444.94 3110.76,435.38 C3112.49,425.82 3125.02,413.79 3125.02,413.79 C3125.02,413.79 3132.55,429.45 3130.82,439.01" id="Fill-153" fill="#88A852"></path>
            <polyline id="Fill-154" fill="#557F3E" points="3221.26 275.71 3095.96 744.75 3115.41 749.94 3251.41 240.82 3221.26 275.71"></polyline>
            <polyline id="Fill-155" fill="#4C7539" points="3260.14 286.1 3251.55 240.66 3251.41 240.82 3115.41 749.94 3134.85 755.14 3260.14 286.1"></polyline>
            <path d="M3236.44,293.19 C3233.59,303.85 3228.09,304.37 3221.91,302.72 C3215.73,301.07 3211.22,297.87 3214.06,287.21 C3216.91,276.55 3232.22,264.11 3232.22,264.11 C3232.22,264.11 3239.29,282.53 3236.44,293.19" id="Fill-156" fill="#88A852"></path>
            <path d="M3264.07,283.19 C3261.45,292.98 3256.39,293.46 3250.72,291.94 C3245.04,290.43 3240.9,287.49 3243.52,277.7 C3246.13,267.91 3260.19,256.48 3260.19,256.48 C3260.19,256.48 3266.68,273.39 3264.07,283.19" id="Fill-157" fill="#88A852"></path>
            <path d="M3253.65,334.37 C3250,344.78 3244.47,344.89 3238.44,342.78 C3232.4,340.67 3228.14,337.14 3231.79,326.72 C3235.43,316.31 3251.63,305.06 3251.63,305.06 C3251.63,305.06 3257.29,323.95 3253.65,334.37" id="Fill-158" fill="#88A852"></path>
            <path d="M3214.76,362.05 C3212.79,372.91 3207.35,373.88 3201.06,372.75 C3194.76,371.61 3190,368.79 3191.97,357.93 C3193.93,347.07 3208.17,333.42 3208.17,333.42 C3208.17,333.42 3216.72,351.19 3214.76,362.05" id="Fill-159" fill="#88A852"></path>
            <path d="M3236.08,402.58 C3232.43,412.99 3226.9,413.1 3220.87,410.99 C3214.83,408.88 3210.57,405.35 3214.22,394.93 C3217.86,384.51 3234.06,373.27 3234.06,373.27 C3234.06,373.27 3239.72,392.16 3236.08,402.58" id="Fill-160" fill="#88A852"></path>
            <path d="M3199.13,422.97 C3197.17,433.83 3191.73,434.8 3185.43,433.66 C3179.14,432.52 3174.38,429.71 3176.35,418.85 C3178.31,407.99 3192.54,394.34 3192.54,394.34 C3192.54,394.34 3201.1,412.11 3199.13,422.97" id="Fill-161" fill="#88A852"></path>
            <path d="M3216.6,475.47 C3212.96,485.89 3207.43,486 3201.39,483.88 C3195.35,481.77 3191.1,478.25 3194.74,467.83 C3198.38,457.41 3214.58,446.16 3214.58,446.16 C3214.58,446.16 3220.24,465.06 3216.6,475.47" id="Fill-162" fill="#88A852"></path>
            <path d="M3178.37,483.61 C3176.64,493.17 3171.85,494.02 3166.31,493.02 C3160.77,492.02 3156.57,489.54 3158.3,479.98 C3160.03,470.42 3172.57,458.39 3172.57,458.39 C3172.57,458.39 3180.1,474.04 3178.37,483.61" id="Fill-163" fill="#88A852"></path>
            <polyline id="Fill-164" fill="#557F3E" points="3116.65 222.37 2991.36 691.41 3010.8 696.6 3146.8 187.48 3116.65 222.37"></polyline>
            <polyline id="Fill-165" fill="#4C7539" points="3155.54 232.76 3146.95 187.31 3146.8 187.48 3010.8 696.6 3030.24 701.8 3155.54 232.76"></polyline>
            <path d="M3131.83,239.85 C3128.98,250.51 3123.48,251.03 3117.3,249.38 C3111.12,247.73 3106.61,244.53 3109.46,233.87 C3112.31,223.21 3127.62,210.77 3127.62,210.77 C3127.62,210.77 3134.68,229.18 3131.83,239.85" id="Fill-166" fill="#88A852"></path>
            <path d="M3159.46,229.85 C3156.85,239.64 3151.79,240.12 3146.11,238.6 C3140.44,237.09 3136.29,234.15 3138.91,224.36 C3141.53,214.56 3155.59,203.14 3155.59,203.14 C3155.59,203.14 3162.08,220.05 3159.46,229.85" id="Fill-167" fill="#88A852"></path>
            <path d="M3149.04,281.03 C3145.4,291.44 3139.87,291.55 3133.83,289.44 C3127.79,287.33 3123.54,283.8 3127.18,273.38 C3130.83,262.96 3147.03,251.71 3147.03,251.71 C3147.03,251.71 3152.68,270.61 3149.04,281.03" id="Fill-168" fill="#88A852"></path>
            <path d="M3110.15,308.71 C3108.19,319.57 3102.74,320.54 3096.45,319.4 C3090.16,318.26 3085.4,315.45 3087.36,304.59 C3089.32,293.73 3103.56,280.08 3103.56,280.08 C3103.56,280.08 3112.12,297.85 3110.15,308.71" id="Fill-169" fill="#88A852"></path>
            <path d="M3131.47,349.23 C3127.83,359.65 3122.3,359.76 3116.26,357.65 C3110.22,355.53 3105.97,352.01 3109.61,341.59 C3113.25,331.17 3129.46,319.92 3129.46,319.92 C3129.46,319.92 3135.11,338.82 3131.47,349.23" id="Fill-170" fill="#88A852"></path>
            <path d="M3094.53,369.62 C3092.57,380.49 3087.12,381.46 3080.83,380.32 C3074.54,379.18 3069.78,376.37 3071.74,365.51 C3073.7,354.65 3087.94,340.99 3087.94,340.99 C3087.94,340.99 3096.49,358.77 3094.53,369.62" id="Fill-171" fill="#88A852"></path>
            <path d="M3111.99,422.13 C3108.35,432.55 3102.82,432.66 3096.78,430.54 C3090.75,428.43 3086.49,424.9 3090.13,414.49 C3093.78,404.07 3109.98,392.82 3109.98,392.82 C3109.98,392.82 3115.64,411.72 3111.99,422.13" id="Fill-172" fill="#88A852"></path>
            <path d="M3073.76,430.26 C3072.04,439.83 3067.24,440.68 3061.7,439.68 C3056.16,438.68 3051.97,436.2 3053.7,426.64 C3055.43,417.08 3067.96,405.05 3067.96,405.05 C3067.96,405.05 3075.49,420.7 3073.76,430.26" id="Fill-173" fill="#88A852"></path>
            <polyline id="Fill-174" fill="#557F3E" points="3049.12 179.21 2925.27 648.63 2905.81 643.5 3040.24 133.96 3049.12 179.21"></polyline>
            <polyline id="Fill-175" fill="#4C7539" points="3010.2 168.94 3040.2 133.74 3040.24 133.96 2905.81 643.5 2886.35 638.36 3010.2 168.94"></polyline>
            <path d="M3027.27,186.85 C3024.45,197.52 3028.98,200.71 3035.16,202.34 C3041.34,203.97 3046.85,203.43 3049.66,192.76 C3052.47,182.09 3045.35,163.7 3045.35,163.7 C3045.35,163.7 3030.08,176.18 3027.27,186.85" id="Fill-176" fill="#88A852"></path>
            <path d="M3008.24,164.47 C3005.65,174.27 3009.8,177.2 3015.48,178.69 C3021.16,180.19 3026.22,179.7 3028.8,169.9 C3031.39,160.09 3024.85,143.2 3024.85,143.2 C3024.85,143.2 3010.82,154.67 3008.24,164.47" id="Fill-177" fill="#88A852"></path>
            <path d="M2991.9,214.08 C2989.9,224.93 2994.65,227.76 3000.93,228.92 C3007.22,230.09 3012.67,229.13 3014.67,218.28 C3016.68,207.43 3008.19,189.63 3008.19,189.63 C3008.19,189.63 2993.9,203.23 2991.9,214.08" id="Fill-178" fill="#88A852"></path>
            <path d="M3011.94,257.4 C3008.26,267.81 3012.5,271.35 3018.53,273.48 C3024.56,275.62 3030.09,275.53 3033.77,265.13 C3037.45,254.73 3031.86,235.81 3031.86,235.81 C3031.86,235.81 3015.62,247 3011.94,257.4" id="Fill-179" fill="#88A852"></path>
            <path d="M2973.32,282.02 C2971.32,292.87 2976.07,295.71 2982.36,296.87 C2988.65,298.03 2994.1,297.07 2996.1,286.22 C2998.1,275.37 2989.61,257.57 2989.61,257.57 C2989.61,257.57 2975.33,271.17 2973.32,282.02" id="Fill-180" fill="#88A852"></path>
            <path d="M2995.29,318.05 C2991.61,328.45 2995.85,332 3001.88,334.13 C3007.91,336.26 3013.44,336.18 3017.12,325.78 C3020.8,315.37 3015.21,296.46 3015.21,296.46 C3015.21,296.46 2998.97,307.65 2995.29,318.05" id="Fill-181" fill="#88A852"></path>
            <path d="M2954.08,354.98 C2952.07,365.83 2956.83,368.66 2963.12,369.83 C2969.4,370.99 2974.85,370.03 2976.85,359.18 C2978.86,348.33 2970.37,330.53 2970.37,330.53 C2970.37,330.53 2956.08,344.13 2954.08,354.98" id="Fill-182" fill="#88A852"></path>
            <path d="M2983.24,381 C2980,390.16 2983.74,393.28 2989.04,395.16 C2994.35,397.04 2999.22,396.96 3002.46,387.8 C3005.71,378.64 3000.79,361.99 3000.79,361.99 C3000.79,361.99 2986.48,371.84 2983.24,381" id="Fill-183" fill="#88A852"></path>
            <polyline id="Fill-184" fill="#557F3E" points="3103 199.92 2979.15 669.34 2959.7 664.21 3094.13 154.67 3103 199.92"></polyline>
            <polyline id="Fill-185" fill="#4C7539" points="3064.09 189.65 3094.09 154.46 3094.13 154.67 2959.7 664.21 2940.24 659.07 3064.09 189.65"></polyline>
            <path d="M3081.15,207.57 C3078.34,218.24 3082.86,221.42 3089.04,223.05 C3095.22,224.68 3100.73,224.14 3103.55,213.47 C3106.36,202.8 3099.24,184.41 3099.24,184.41 C3099.24,184.41 3083.97,196.9 3081.15,207.57" id="Fill-186" fill="#88A852"></path>
            <path d="M3062.12,185.18 C3059.54,194.98 3063.69,197.9 3069.37,199.4 C3075.05,200.9 3080.11,200.41 3082.69,190.61 C3085.28,180.81 3078.73,163.91 3078.73,163.91 C3078.73,163.91 3064.71,175.38 3062.12,185.18" id="Fill-187" fill="#88A852"></path>
            <path d="M3045.79,234.79 C3043.78,245.64 3048.53,248.48 3054.82,249.64 C3061.11,250.79 3066.56,249.84 3068.56,238.99 C3070.56,228.14 3062.07,210.33 3062.07,210.33 C3062.07,210.33 3047.79,223.94 3045.79,234.79" id="Fill-188" fill="#88A852"></path>
            <path d="M3065.83,278.11 C3062.14,288.52 3066.39,292.06 3072.42,294.2 C3078.44,296.33 3083.97,296.24 3087.65,285.84 C3091.34,275.44 3085.75,256.52 3085.75,256.52 C3085.75,256.52 3069.51,267.71 3065.83,278.11" id="Fill-189" fill="#88A852"></path>
            <path d="M3027.21,302.73 C3025.21,313.58 3029.96,316.42 3036.24,317.58 C3042.53,318.74 3047.98,317.79 3049.98,306.93 C3051.98,296.08 3043.5,278.28 3043.5,278.28 C3043.5,278.28 3029.21,291.88 3027.21,302.73" id="Fill-190" fill="#88A852"></path>
            <path d="M3049.17,338.76 C3045.49,349.16 3049.74,352.71 3055.76,354.84 C3061.79,356.97 3067.32,356.89 3071.01,346.49 C3074.69,336.08 3069.1,317.17 3069.1,317.17 C3069.1,317.17 3052.86,328.36 3049.17,338.76" id="Fill-191" fill="#88A852"></path>
            <path d="M3007.96,375.69 C3005.96,386.54 3010.71,389.38 3017,390.54 C3023.29,391.7 3028.74,390.74 3030.74,379.89 C3032.74,369.04 3024.25,351.24 3024.25,351.24 C3024.25,351.24 3009.97,364.84 3007.96,375.69" id="Fill-192" fill="#88A852"></path>
            <path d="M3037.13,401.71 C3033.88,410.87 3037.62,414 3042.93,415.87 C3048.24,417.75 3053.11,417.68 3056.35,408.51 C3059.59,399.36 3054.67,382.7 3054.67,382.7 C3054.67,382.7 3040.37,392.55 3037.13,401.71" id="Fill-193" fill="#88A852"></path>
            <path d="M2504,1644.84 C2504,1657.08 2494.08,1667 2481.84,1667 L2437.16,1667 C2424.92,1667 2415,1657.08 2415,1644.84 L2415,1492.16 C2415,1479.92 2424.92,1470 2437.16,1470 L2481.84,1470 C2494.08,1470 2504,1479.92 2504,1492.16 L2504,1644.84" id="Fill-194" fill="#0B0B09"></path>
            <path d="M3271,1644.92 C3271,1657.16 3260.74,1667 3248.5,1667 L3203.65,1667 C3191.41,1667 3181,1657.16 3181,1644.92 L3181,1492.4 C3181,1480.16 3191.41,1470 3203.65,1470 L3248.5,1470 C3260.74,1470 3271,1480.16 3271,1492.4 L3271,1644.92" id="Fill-195" fill="#0B0B09"></path>
            <path d="M3279.17,567.41 C3279.17,565.93 3279.13,564 3279.08,563 L2406.79,563 C2406.73,564 2406.69,565.93 2406.69,567.41 L2408.39,601.56 L3272.69,697.82 L3279.17,567.41" id="Fill-196" fill="#1DA06C"></path>
            <path d="M2408.39,601.56 L2456.27,1564.23 C2456.27,1624.3 2504.97,1673 2565.04,1673 L3120.82,1673 C3180.89,1673 3229.59,1624.3 3229.59,1564.23 L3272.69,697.81 L2408.39,601.56" id="Fill-197" fill="#06D58A"></path>
            <path d="M3314,555.81 C3314,572.23 3300.64,586 3284.22,586 L2401.64,586 C2385.22,586 2372,572.23 2372,555.81 L2372,514.26 C2372,497.84 2385.22,485 2401.64,485 L3284.22,485 C3300.64,485 3314,497.84 3314,514.26 L3314,555.81" id="Fill-198" fill="#06D58A"></path>
            <path d="M2890.71,977.05 L2847.15,1007.72 L2904.28,1000.9 L2906.8,1000.59 L2914.08,999.74 L2964.88,993.67 L3017.84,887.58 L2973.54,918.77 L2935.33,852.59 C2925.08,836.78 2914.31,829.88 2903.7,828.78 C2884.91,827.86 2865.8,844.73 2852.22,861.22 C2848.5,865.95 2845.12,870.73 2842.12,875.25 C2840.94,877.04 2839.81,878.79 2838.76,880.47 C2839.8,882.63 2840.95,884.95 2842.12,887.32 C2843.73,890.55 2845.42,893.91 2847.26,897.47 C2858.42,919.2 2873.71,946.99 2890.71,977.05" id="Fill-199" fill="#FFFFFE"></path>
            <path d="M3005.97,1185.9 C3000.31,1185.49 2993.94,1185.09 2986.98,1184.76 C2962.58,1183.57 2930.88,1182.91 2896.34,1182.61 L2891.56,1129.54 L2868.91,1182.43 L2867.91,1184.76 L2865.01,1191.5 L2844.87,1238.54 L2871.76,1279.21 L2874.58,1283.47 L2910.26,1337.43 L2905.4,1283.47 L2981.82,1283.47 C3000.64,1282.51 3011.99,1276.63 3018.26,1267.99 C3028.45,1252.18 3023.39,1227.2 3015.89,1207.19 C3012.78,1199.39 3009.24,1192.1 3005.97,1185.9" id="Fill-200" fill="#FFFFFE"></path>
            <path d="M3093.47,1150.27 C3093.56,1144.21 3092.27,1140.58 3091.48,1138.87 L3090.54,1137.24 L3022.59,1019.53 L2944.15,1061.15 C2949.02,1069.32 2954.91,1079.7 2961.16,1090.81 L3004.07,1165.13 C3005.6,1167.45 3009.1,1173 3013.22,1180.58 L3013.46,1180.61 L3014.74,1182.94 C3017.88,1188.7 3021.49,1196.32 3024.64,1204.73 C3030.96,1220.87 3036.1,1239.35 3032.72,1255.47 L3093.47,1150.27" id="Fill-201" fill="#FFFFFE"></path>
            <path d="M2842.12,859.42 C2843.28,857.91 2844.47,856.39 2845.72,854.87 C2856.54,841.33 2869.96,827.65 2885.61,822.51 L2764.14,822.51 C2758.85,825.46 2756.34,828.38 2755.26,829.93 L2754.32,831.54 L2686.37,949.26 L2761.63,996.38 C2766.27,988.07 2772.31,977.78 2778.81,966.81 L2821.71,892.5 C2822.96,890 2826.02,884.2 2830.51,876.84 L2830.4,876.63 L2831.8,874.36 C2834.47,869.98 2837.99,864.79 2842.12,859.42" id="Fill-202" fill="#FFFFFE"></path>
            <path d="M2652.11,1186.15 C2660.42,1187.36 2668.53,1187.94 2675.5,1188.2 C2678.71,1183.5 2682.22,1178.17 2685.99,1172.34 C2699.22,1151.79 2715.65,1124.66 2733.18,1094.9 L2781.52,1117.3 L2747.05,1071.23 L2745.53,1069.2 L2741.14,1063.33 L2710.48,1022.37 L2661.82,1025.32 L2656.71,1025.64 L2592.14,1029.55 L2641.29,1052.33 L2603.09,1118.5 C2594.52,1135.28 2593.94,1148.06 2598.29,1157.8 C2606.88,1174.54 2631.05,1182.64 2652.11,1186.15" id="Fill-203" fill="#FFFFFE"></path>
            <path d="M2780.27,1196.94 L2694.45,1196.94 C2691.68,1197.1 2685.12,1197.37 2676.51,1197.15 L2676.37,1197.35 L2673.7,1197.27 C2667.13,1197.12 2658.74,1196.44 2649.86,1194.95 C2632.73,1192.37 2614.16,1187.57 2601.9,1176.59 L2662.64,1281.8 C2667.82,1284.9 2671.63,1285.61 2673.48,1285.79 L2811.28,1285.79 L2814.46,1197.04 C2804.95,1197.15 2793.01,1197.09 2780.27,1196.94" id="Fill-204" fill="#FFFFFE"></path>
            <path d="M1606.79,113.579722 L1610.72,4.03972181 L1706.74,7.47972181 L1702.8,117.029722 C1702.8,117.029722 1787.41,178.979722 1783.75,281.189722 C1780.08,383.399722 1768.52,705.509722 1768.52,705.509722 L1768.51,705.509722 C1767.05,732.459722 1706.14,752.109722 1632.04,749.449722 C1557.94,746.789722 1498.6,722.829722 1499.07,695.839722 L1499.06,695.839722 C1499.06,695.839722 1510.62,373.729722 1514.29,271.519722 C1517.96,169.309722 1606.79,113.579722 1606.79,113.579722" id="Fill-437" fill="#9DBCCC"></path>
            <polyline id="Fill-439" fill="#FFFFFE" points="1659.61 113.789722 1663.45 11.1897218 1694.03 12.3397218 1690.19 114.889722 1659.61 113.789722"></polyline>
            <path d="M1701.16,176.699722 C1694.26,165.549722 1687.24,156.779722 1681.28,150.259722 L1721.38,151.699722 C1722.99,154.039722 1724.6,156.489722 1726.21,159.039722 C1738.05,177.849722 1747.27,198.759722 1753.59,221.189722 C1758.37,238.149722 1761.5,256.009722 1762.95,274.579722 L1732.19,273.479722 C1728.93,237.269722 1718.55,204.829722 1701.16,176.699722" id="Fill-440" fill="#FFFFFE"></path>
            <path d="M1718.98,703.379722 L1733.1,309.889722 C1733.11,309.659722 1733.11,309.429722 1733.12,309.199722 L1763.71,310.299722 C1763.7,310.529722 1763.69,310.759722 1763.69,310.989722 L1749.44,708.119722 C1749.44,708.119722 1719.02,738.399722 1627.52,735.109722 C1627.52,735.109722 1704.96,723.039722 1718.98,703.379722" id="Fill-441" fill="#FFFFFE"></path>
            <polyline id="Fill-442" fill="#7F9CA6" points="1392.46 87.1797218 1335.31 82.5397218 1334.3 78.5397218 1329.23 82.0497218 1319.04 81.2197218 1319.93 88.5097218 1297.84 103.829722 1298.72 108.809722 1393.34 92.1597218 1392.46 87.1797218"></polyline>
            <path d="M1412.34,200.109722 L1393.34,92.1597218 L1298.72,108.809722 L1317.72,216.769722 C1317.72,216.769722 1242.47,289.799722 1260.2,390.529722 C1277.94,491.249722 1333.82,808.679722 1333.82,808.679722 C1338.99,835.179722 1402.03,846.239722 1475.05,833.389722 C1548.08,820.529722 1603.54,788.609722 1599.35,761.939722 L1599.36,761.939722 C1599.36,761.939722 1543.48,444.509722 1525.75,343.779722 C1508.02,243.059722 1412.34,200.109722 1412.34,200.109722" id="Fill-443" fill="#9DBCCC"></path>
            <path d="M1405.04,69.2297218 C1406.52,77.6597218 1400.89,85.6897218 1392.46,87.1797218 L1297.84,103.829722 C1289.41,105.319722 1281.38,99.6897218 1279.89,91.2597218 C1278.41,82.8297218 1284.04,74.7997218 1292.47,73.3097218 L1387.09,56.6497218 C1395.52,55.1697218 1403.55,60.7997218 1405.04,69.2297218" id="Fill-444" fill="#BCD6DE"></path>
            <polyline id="Fill-445" fill="#FFFFFE" points="1360.06 207.599722 1342.1 106.519722 1311.97 111.869722 1329.92 212.909722 1360.06 207.599722"></polyline>
            <path d="M1327.59,275.639722 C1332.88,263.649722 1338.62,253.989722 1343.63,246.709722 L1304.11,253.669722 C1302.84,256.209722 1301.58,258.859722 1300.34,261.609722 C1291.2,281.869722 1284.96,303.849722 1281.79,326.939722 C1279.39,344.399722 1278.76,362.519722 1279.88,381.109722 L1310.21,375.769722 C1308.44,339.469722 1314.25,305.899722 1327.59,275.639722" id="Fill-446" fill="#FFFFFE"></path>
            <path d="M1382.59,799.749722 L1314.32,411.969722 C1314.28,411.739722 1314.25,411.509722 1314.21,411.279722 L1284.06,416.589722 C1284.1,416.819722 1284.14,417.039722 1284.18,417.269722 L1353.08,808.639722 C1353.08,808.639722 1387.37,834.429722 1477.55,818.559722 C1477.55,818.559722 1399.19,817.279722 1382.59,799.749722" id="Fill-447" fill="#FFFFFE"></path>
            <polyline id="Fill-448" fill="#7F9CA6" points="1917.56 63.6497218 1974.71 59.0097218 1975.72 55.0097218 1980.78 58.5197218 1990.98 57.6897218 1990.09 64.9797218 2012.18 80.3097218 2011.3 85.2797218 1916.68 68.6297218 1917.56 63.6497218"></polyline>
            <path d="M1897.67,176.579722 L1916.68,68.6297218 L2011.3,85.2797218 L1992.29,193.239722 C1992.29,193.239722 2067.55,266.269722 2049.82,366.999722 C2032.08,467.719722 1976.2,785.159722 1976.2,785.159722 L1976.19,785.149722 C1971.02,811.649722 1907.99,822.709722 1834.96,809.859722 C1761.94,796.999722 1706.47,765.079722 1710.66,738.409722 C1710.66,738.409722 1766.54,420.979722 1784.27,320.249722 C1802,219.529722 1897.67,176.579722 1897.67,176.579722" id="Fill-449" fill="#9DBCCC"></path>
            <path d="M1819.98,45.6997218 C1818.5,54.1297218 1824.13,62.1597218 1832.56,63.6497218 L1927.18,80.3097218 C1935.6,81.7897218 1943.64,76.1597218 1945.12,67.7297218 C1946.61,59.2997218 1940.98,51.2697218 1932.55,49.7797218 L1837.93,33.1297218 C1829.5,31.6397218 1821.47,37.2697218 1819.98,45.6997218" id="Fill-450" fill="#BCD6DE"></path>
            <polyline id="Fill-451" fill="#FFFFFE" points="1949.96 184.069722 1967.91 82.9897218 1998.05 88.3397218 1980.1 189.379722 1949.96 184.069722"></polyline>
            <path d="M1982.43,252.109722 C1977.14,240.119722 1971.39,230.459722 1966.39,223.179722 L2005.91,230.139722 C2007.18,232.679722 2008.44,235.329722 2009.68,238.079722 C2018.82,258.339722 2025.06,280.319722 2028.23,303.409722 C2030.62,320.869722 2031.26,338.989722 2030.13,357.579722 L1999.81,352.239722 C2001.58,315.939722 1995.77,282.369722 1982.43,252.109722" id="Fill-452" fill="#FFFFFE"></path>
            <path d="M1927.43,776.219722 L1995.7,388.439722 C1995.74,388.209722 1995.77,387.979722 1995.81,387.759722 L2025.96,393.059722 C2025.92,393.289722 2025.88,393.519722 2025.84,393.739722 L1956.94,785.109722 C1956.94,785.109722 1922.64,810.909722 1832.47,795.029722 C1832.47,795.029722 1910.83,793.749722 1927.43,776.219722" id="Fill-453" fill="#FFFFFE"></path>
            <path d="M1325,1644.93972 C1325,1657.17972 1315.08,1667.09972 1302.84,1667.09972 L1258.16,1667.09972 C1245.92,1667.09972 1236,1657.17972 1236,1644.93972 L1236,1492.25972 C1236,1480.01972 1245.92,1470.09972 1258.16,1470.09972 L1302.84,1470.09972 C1315.08,1470.09972 1325,1480.01972 1325,1492.25972 L1325,1644.93972" id="Fill-454" fill="#0B0B09"></path>
            <path d="M2091,1644.93972 C2091,1657.17972 2081.08,1667.09972 2068.84,1667.09972 L2024.16,1667.09972 C2011.92,1667.09972 2002,1657.17972 2002,1644.93972 L2002,1492.25972 C2002,1480.01972 2011.92,1470.09972 2024.16,1470.09972 L2068.84,1470.09972 C2081.08,1470.09972 2091,1480.01972 2091,1492.25972 L2091,1644.93972" id="Fill-455" fill="#0B0B09"></path>
            <path d="M2099.98,567.509722 C2099.98,566.029722 2099.94,564.099722 2099.88,563.099722 L1227.59,563.099722 C1227.53,564.099722 1227.5,566.029722 1227.5,567.509722 L1229.2,601.659722 L2093.49,697.919722 L2099.98,567.509722" id="Fill-456" fill="#217FD7"></path>
            <path d="M1229.2,601.659722 L1277.08,1564.32972 C1277.08,1624.39972 1325.77,1673.09972 1385.85,1673.09972 L1941.63,1673.09972 C2001.7,1673.09972 2050.4,1624.39972 2050.4,1564.32972 L2093.49,697.909722 L1229.2,601.659722" id="Fill-457" fill="#32BDF6"></path>
            <path d="M2135,555.909722 C2135,572.329722 2121.45,586.099722 2105.03,586.099722 L1222.44,586.099722 C1206.03,586.099722 1193,572.329722 1193,555.909722 L1193,514.359722 C1193,497.939722 1206.03,485.099722 1222.44,485.099722 L2105.03,485.099722 C2121.45,485.099722 2135,497.939722 2135,514.359722 L2135,555.909722" id="Fill-458" fill="#32BDF6"></path>
            <path d="M1711.65,977.149722 L1668.08,1007.81972 L1725.21,1000.99972 L1727.73,1000.68972 L1735.01,999.839722 L1785.81,993.769722 L1807.6,950.139722 L1809.87,945.569722 L1838.77,887.679722 L1794.47,918.869722 L1756.26,852.689722 C1746.01,836.879722 1735.24,829.979722 1724.63,828.879722 C1705.84,827.959722 1686.74,844.829722 1673.16,861.319722 C1669.44,866.049722 1666.05,870.829722 1663.06,875.349722 C1661.87,877.139722 1660.74,878.889722 1659.69,880.569722 C1660.73,882.729722 1661.88,885.049722 1663.06,887.419722 C1664.66,890.649722 1666.35,894.009722 1668.19,897.569722 C1679.35,919.299722 1694.64,947.089722 1711.65,977.149722" id="Fill-459" fill="#FFFFFE"></path>
            <path d="M1826.9,1185.99972 C1821.24,1185.58972 1814.87,1185.18972 1807.91,1184.85972 C1783.52,1183.66972 1751.82,1183.00972 1717.27,1182.70972 L1712.5,1129.63972 L1689.84,1182.52972 L1688.85,1184.85972 L1685.94,1191.59972 L1665.8,1238.63972 L1692.7,1279.30972 L1695.51,1283.56972 L1731.19,1337.52972 L1726.33,1283.56972 L1802.75,1283.56972 C1821.57,1282.60972 1832.92,1276.72972 1839.19,1268.08972 C1849.39,1252.27972 1844.32,1227.29972 1836.82,1207.28972 C1833.71,1199.48972 1830.17,1192.19972 1826.9,1185.99972" id="Fill-460" fill="#FFFFFE"></path>
            <path d="M1914.4,1150.36972 C1914.49,1144.30972 1913.2,1140.67972 1912.42,1138.96972 L1911.47,1137.33972 L1843.52,1019.62972 L1765.08,1061.24972 C1769.95,1069.41972 1775.85,1079.79972 1782.09,1090.90972 L1825,1165.22972 C1826.53,1167.54972 1830.03,1173.09972 1834.15,1180.67972 L1834.4,1180.70972 L1835.67,1183.03972 C1838.81,1188.79972 1842.42,1196.41972 1845.57,1204.82972 C1851.9,1220.96972 1857.04,1239.44972 1853.66,1255.56972 L1914.4,1150.36972" id="Fill-461" fill="#FFFFFE"></path>
            <path d="M1663.06,859.519722 C1664.21,858.009722 1665.4,856.489722 1666.66,854.969722 C1677.47,841.429722 1690.9,827.749722 1706.54,822.609722 L1585.07,822.609722 C1579.79,825.559722 1577.28,828.479722 1576.19,830.029722 L1575.25,831.639722 L1507.3,949.359722 L1582.56,996.479722 C1587.2,988.169722 1593.25,977.879722 1599.74,966.909722 L1642.64,892.599722 C1643.89,890.099722 1646.95,884.299722 1651.44,876.939722 L1651.34,876.729722 L1652.73,874.459722 C1655.4,870.079722 1658.93,864.889722 1663.06,859.519722" id="Fill-462" fill="#FFFFFE"></path>
            <path d="M1473.04,1186.24972 C1481.35,1187.45972 1489.46,1188.03972 1496.43,1188.29972 C1499.64,1183.59972 1503.16,1178.26972 1506.92,1172.43972 C1520.16,1151.88972 1536.58,1124.75972 1554.11,1094.99972 L1602.46,1117.39972 L1567.99,1071.32972 L1566.46,1069.29972 L1562.07,1063.42972 L1531.41,1022.46972 L1482.75,1025.41972 L1477.65,1025.73972 L1413.07,1029.64972 L1462.23,1052.42972 L1424.02,1118.59972 C1415.45,1135.37972 1414.87,1148.15972 1419.22,1157.89972 C1427.81,1174.63972 1451.98,1182.73972 1473.04,1186.24972" id="Fill-463" fill="#FFFFFE"></path>
            <path d="M1601.2,1197.03972 L1515.38,1197.03972 C1512.61,1197.19972 1506.05,1197.46972 1497.44,1197.24972 L1497.3,1197.44972 L1494.63,1197.36972 C1488.06,1197.21972 1479.68,1196.53972 1470.8,1195.04972 C1453.66,1192.46972 1435.09,1187.66972 1422.84,1176.68972 L1483.57,1281.89972 C1488.76,1284.99972 1492.56,1285.70972 1494.42,1285.88972 L1632.21,1285.88972 L1635.39,1197.13972 C1625.88,1197.24972 1613.94,1197.18972 1601.2,1197.03972" id="Fill-464" fill="#FFFFFE"></path>
            <path d="M4444.32,419.195106 C4443.06,417.085106 4441.58,414.985106 4439.92,412.915106 C4443.62,404.675106 4446.9,396.225106 4449.529,387.675106 C4453.21,371.845106 4451.569,349.145106 4448.29,329.995106 C4452.29,334.635106 4457.19,342.885106 4459.79,354.595106 C4461.8,376.885106 4454.91,398.975106 4444.32,419.195106 Z M4387.65,614.295106 C4387.62,614.365106 4387.6,614.435106 4387.57,614.505106 C4387.71,614.085106 4387.83,613.665106 4387.939,613.245106 C4387.85,613.595106 4387.76,613.945106 4387.65,614.295106 Z M4390.68,462.775106 C4382.979,461.675106 4374.15,459.665106 4364.04,456.375106 C4359.34,454.845106 4355,453.175106 4351,451.425106 C4351.13,450.815106 4351.25,450.195106 4351.38,449.575106 C4355.72,451.545106 4360.29,453.325106 4365.06,454.875106 C4374.06,457.805106 4382.979,459.665106 4391.45,460.515106 L4390.68,462.775106 Z M4330.03,439.535106 L4330.391,438.375106 C4330.399,438.035106 4330.42,437.695106 4330.44,437.355106 C4336.2,441.645106 4342.83,445.595106 4350.17,449.015106 C4350.04,449.645106 4349.91,450.265106 4349.79,450.885106 C4341.91,447.335106 4335.4,443.435106 4330.03,439.535106 Z M4253.26,570.795106 C4253.28,570.735106 4253.3,570.675106 4253.32,570.615106 C4253.569,569.845106 4253.87,569.085106 4254.189,568.355106 C4253.85,569.145106 4253.54,569.965106 4253.26,570.795106 Z M4449.36,440.515106 L4451.029,435.275106 C4451.029,435.275106 4468.52,390.165106 4465.84,357.185106 C4463.17,324.365106 4444.3,304.805106 4446.18,298.335106 C4448.13,296.995106 4449.52,295.305106 4450.18,293.275106 C4450.29,292.915106 4450.38,292.555106 4450.45,292.185106 C4450.609,291.845106 4450.75,291.495106 4450.86,291.145106 C4451.74,288.435106 4451.58,285.565106 4449.59,282.475106 L4454.25,268.125106 C4453.17,271.455106 4446.55,272.505106 4437.74,271.245106 C4434.37,269.225106 4430.51,267.455106 4426.29,266.085106 C4421.96,264.675106 4417.87,263.885106 4413.88,263.545106 C4405.83,259.345106 4401.1,254.575106 4402.189,251.195106 L4397.34,266.135106 C4394.5,267.495106 4392.641,269.475106 4391.83,271.945106 C4391.72,272.305106 4391.55,272.645106 4391.48,273.005106 C4391.32,273.345106 4391.13,273.675106 4391.02,274.035106 C4390.399,275.925106 4390.45,277.945106 4391.1,280.005106 C4391.1,279.995106 4391.08,279.985106 4391.08,279.985106 C4389,286.365106 4362.95,291.625106 4341.38,316.715106 C4319.82,341.805106 4307.43,388.575106 4307.43,388.575106 L4305.9,393.865106 C4303.86,400.145106 4304.21,406.845106 4306.8,413.625106 L4258.71,561.525106 C4254.649,564.765106 4251.83,568.745106 4250.13,573.295106 L4250.09,573.275106 L4250.08,573.285106 C4249.97,573.645106 4249.66,573.945106 4249.54,574.305106 C4248.96,576.085106 4248.49,577.875106 4248.3,579.725106 L4231.76,650.095106 C4231.76,650.095106 4227.16,680.515106 4235.07,683.085106 L4235.89,683.355106 L4237.79,683.965106 C4237.79,683.965106 4241.75,685.245106 4245.35,683.415106 C4245.35,683.415106 4248.8,682.345106 4248.45,686.785106 C4248.101,691.225106 4248.79,695.275106 4248.79,695.275106 C4248.79,695.275106 4249.34,707.525106 4257.2,713.155106 C4257.54,713.405106 4257.88,713.635106 4258.24,713.845106 C4267.1,719.095106 4271.06,720.385106 4271.06,720.385106 C4271.06,720.385106 4275.71,723.335106 4280.95,722.905106 C4283.149,722.725106 4285.45,721.945106 4287.56,720.095106 C4294.689,713.855106 4304.45,705.265106 4305.31,704.185106 C4306.24,703.025106 4307.5,703.345106 4309.56,707.385106 L4315.66,720.305106 C4315.66,720.305106 4316.07,721.505106 4317.109,722.745106 C4319.02,725.005106 4323.01,727.395106 4330.42,722.825106 C4341.88,715.755106 4341.88,715.755106 4341.88,715.755106 C4341.88,715.755106 4351.399,708.325106 4356.13,697.145106 L4386.33,624.815106 C4387.3,623.155106 4388.1,621.405106 4388.7,619.565106 C4390.2,614.975106 4389.88,609.985106 4388.71,605.045106 C4388.66,604.175106 4388.569,603.295106 4388.439,602.415106 C4388.3,601.945106 4388.141,601.475106 4387.97,601.005106 L4436.229,456.695106 C4442.61,452.585106 4447.21,447.145106 4449.36,440.515106 L4449.36,440.515106 Z" id="Fill-491" fill="#C2D9DF"></path>
            <path d="M4457.2,273.825106 C4456.22,276.815106 4453.01,278.455106 4450.02,277.485106 L4401.21,261.605106 C4398.21,260.635106 4396.57,257.415106 4397.55,254.425106 L4402.84,238.155106 C4403.81,235.155106 4407.029,233.525106 4410.02,234.495106 L4458.83,250.365106 C4461.83,251.335106 4463.46,254.555106 4462.49,257.545106 L4457.2,273.825106" id="Fill-492" fill="#315187"></path>
            <path d="M4277.8,321.045106 C4274.979,318.765106 4271.88,316.595106 4268.53,314.565106 C4269.5,301.305106 4269.79,287.945106 4269.12,274.785106 C4266.22,251.015106 4252.52,220.415106 4238.31,195.565106 C4246.2,199.965106 4257.14,208.925106 4266.641,223.815106 C4280.66,253.665106 4282.25,287.715106 4277.8,321.045106 Z M4297.689,619.715106 C4297.689,619.825106 4297.689,619.925106 4297.689,620.035106 C4297.67,619.385106 4297.63,618.745106 4297.57,618.105106 C4297.63,618.645106 4297.67,619.175106 4297.689,619.715106 Z M4225.5,408.415106 C4214.29,410.775106 4201.04,412.445106 4185.4,412.985106 C4178.11,413.245106 4171.27,413.125106 4164.85,412.705106 C4164.71,411.795106 4164.58,410.885106 4164.44,409.965106 C4171.44,410.495106 4178.66,410.655106 4186.05,410.395106 C4199.99,409.915106 4213.27,407.985106 4225.42,404.905106 L4225.5,408.415106 Z M4129.819,406.825106 L4129.73,405.035106 C4129.58,404.555106 4129.44,404.075106 4129.29,403.595106 C4139.43,406.635106 4150.609,408.765106 4162.479,409.795106 C4162.62,410.725106 4162.76,411.655106 4162.89,412.575106 C4150.21,411.635106 4139.22,409.525106 4129.819,406.825106 Z M4089.72,627.245106 C4089.71,627.155106 4089.71,627.055106 4089.7,626.965106 C4089.66,625.765106 4089.7,624.575106 4089.77,623.385106 C4089.7,624.665106 4089.68,625.955106 4089.72,627.245106 Z M4295.52,348.025106 L4295.18,339.925106 C4295.18,339.925106 4296.66,268.655106 4276.32,224.355106 C4256.07,180.265106 4220.1,162.685106 4219.43,152.785106 C4221.46,149.955106 4222.53,146.915106 4222.42,143.765106 C4222.399,143.215106 4222.33,142.665106 4222.24,142.125106 C4222.29,141.575106 4222.31,141.025106 4222.29,140.465106 C4222.15,136.275106 4220.47,132.385106 4216.16,129.105106 L4215.38,106.895106 C4215.56,112.055106 4206.93,116.845106 4194.09,119.535106 C4188.42,118.445106 4182.18,117.945106 4175.63,118.175106 C4168.94,118.405106 4162.88,119.375106 4157.19,120.915106 C4143.91,119.155106 4134.96,114.935106 4134.78,109.705106 L4135.59,132.825106 C4132.34,136.155106 4130.76,139.825106 4130.89,143.655106 C4130.92,144.205106 4130.86,144.755106 4130.95,145.305106 C4130.89,145.845106 4130.8,146.405106 4130.82,146.955106 C4130.92,149.885106 4132,152.655106 4133.94,155.175106 C4133.93,155.175106 4133.899,155.155106 4133.899,155.155106 C4134.25,165.045106 4100.83,185.465106 4083.62,231.065106 C4066.41,276.675106 4072.84,347.665106 4072.84,347.665106 L4073.39,355.765106 C4073.73,365.485106 4077.6,374.585106 4084.6,382.665106 L4092.58,611.665106 C4088.6,618.185106 4086.7,625.125106 4086.64,632.285106 C4086.64,632.275106 4086.57,632.275106 4086.57,632.275106 L4086.57,632.285106 C4086.59,632.845106 4086.31,633.415106 4086.33,633.975106 C4086.43,636.735106 4086.69,639.445106 4087.35,642.095106 L4099.92,747.865106 C4099.92,747.865106 4108.89,792.295106 4121.14,791.865106 L4122.42,791.815106 L4125.35,791.715106 C4125.35,791.715106 4131.48,791.495106 4135.54,787.135106 C4135.54,787.135106 4139.78,783.925106 4141.53,790.245106 C4143.28,796.575106 4146.28,801.835106 4146.28,801.835106 C4146.28,801.835106 4153.21,818.505106 4166.94,822.345106 C4167.53,822.505106 4168.12,822.655106 4168.73,822.775106 C4183.65,825.575106 4189.77,825.365106 4189.77,825.365106 C4189.77,825.365106 4197.7,827.105106 4204.73,823.855106 C4207.68,822.495106 4210.479,820.265106 4212.47,816.645106 C4219.2,804.405106 4228.37,787.595106 4229.02,785.655106 C4229.72,783.595106 4231.63,783.395106 4236.51,787.955106 L4251.47,802.765106 C4251.47,802.765106 4252.65,804.215106 4254.71,805.405106 C4258.49,807.585106 4265.229,808.875106 4273.18,798.815106 C4285.479,783.245106 4285.479,783.245106 4285.479,783.245106 C4285.479,783.245106 4294.92,768.155106 4295.83,750.305106 L4301.16,634.945106 C4301.68,632.155106 4301.91,629.335106 4301.81,626.475106 C4301.56,619.365106 4298.61,612.625106 4294.5,606.375106 C4293.99,605.195106 4293.43,604.025106 4292.8,602.875106 C4292.37,602.295106 4291.91,601.715106 4291.44,601.155106 L4285.5,377.035106 C4292.25,368.135106 4295.88,358.285106 4295.52,348.025106 L4295.52,348.025106 Z" id="Fill-493" fill="#C2D9DF"></path>
            <path d="M4222.33,113.295106 C4222.49,117.935106 4218.87,121.825106 4214.229,121.985106 L4138.66,124.615106 C4134.02,124.775106 4130.13,121.155106 4129.97,116.515106 L4129.1,91.3251058 C4128.93,86.6851058 4132.56,82.7951058 4137.2,82.6351058 L4212.77,80.0051058 C4217.41,79.8451058 4221.29,83.4651058 4221.46,88.1051058 L4222.33,113.295106" id="Fill-494" fill="#315187"></path>
            <path d="M4058.71,397.835106 C4056.859,395.565106 4054.77,393.335106 4052.46,391.175106 C4055.44,380.845106 4057.89,370.335106 4059.56,359.825106 C4061.229,340.545106 4055.5,314.075106 4048.41,292.065106 C4053.92,296.855106 4061.07,305.765106 4066.09,319.125106 C4072.2,345.045106 4067.79,372.235106 4058.71,397.835106 Z M4024.65,637.255106 C4024.64,637.335106 4024.62,637.415106 4024.6,637.505106 C4024.69,636.985106 4024.76,636.475106 4024.819,635.955106 C4024.78,636.395106 4024.73,636.825106 4024.65,637.255106 Z M4002.8,458.185106 C3993.55,458.185106 3982.8,457.295106 3970.34,455.115106 C3964.54,454.105106 3959.149,452.865106 3954.14,451.475106 C3954.19,450.725106 3954.23,449.985106 3954.28,449.235106 C3959.72,450.815106 3965.41,452.145106 3971.29,453.175106 C3982.39,455.115106 3993.21,455.815106 4003.33,455.405106 L4002.8,458.185106 Z M3927.43,440.975106 L3927.66,439.555106 C3927.63,439.145106 3927.59,438.745106 3927.55,438.335106 C3935.06,442.435106 3943.54,445.975106 3952.76,448.775106 C3952.71,449.535106 3952.67,450.285106 3952.62,451.045106 C3942.75,448.175106 3934.42,444.675106 3927.43,440.975106 Z M3859,608.545106 C3859.01,608.465106 3859.02,608.385106 3859.03,608.315106 C3859.2,607.355106 3859.42,606.425106 3859.68,605.495106 C3859.41,606.495106 3859.18,607.515106 3859,608.545106 Z M4068.22,422.115106 L4069.3,415.655106 C4069.3,415.655106 4082.35,359.565106 4073.65,321.155106 C4065,282.925106 4039.49,263.035106 4040.61,255.095106 C4042.69,253.205106 4044.04,250.975106 4044.48,248.465106 C4044.56,248.025106 4044.6,247.585106 4044.62,247.135106 C4044.75,246.715106 4044.85,246.285106 4044.93,245.845106 C4045.51,242.505106 4044.84,239.145106 4041.97,235.835106 L4045.06,218.155106 C4044.35,222.255106 4036.72,224.605106 4026.13,224.595106 C4021.819,222.785106 4016.97,221.345106 4011.76,220.435106 C4006.43,219.505106 4001.48,219.255106 3996.72,219.535106 C3986.52,215.935106 3980.149,211.105106 3980.88,206.935106 L3977.66,225.345106 C3974.54,227.435106 3972.68,230.075106 3972.15,233.125106 C3972.07,233.565106 3971.93,233.995106 3971.91,234.435106 C3971.78,234.855106 3971.61,235.285106 3971.54,235.725106 C3971.13,238.055106 3971.52,240.425106 3972.63,242.745106 C3972.63,242.735106 3972.61,242.715106 3972.61,242.715106 C3971.229,250.585106 3941.41,261.165106 3920.21,294.345106 C3899.01,327.535106 3892.25,384.725106 3892.25,384.725106 L3891.34,391.215106 C3889.98,398.955106 3891.53,406.795106 3895.72,414.345106 L3863.86,596.695106 C3859.63,601.195106 3856.97,606.355106 3855.72,612.005106 C3855.72,612.005106 3855.67,611.995106 3855.67,611.985106 L3855.67,611.995106 C3855.59,612.445106 3855.28,612.845106 3855.2,613.295106 C3854.81,615.495106 3854.56,617.685106 3854.65,619.885106 L3846.96,705.595106 C3846.96,705.595106 3846.64,742.205106 3856.399,743.905106 L3857.41,744.085106 L3859.75,744.495106 C3859.75,744.495106 3864.63,745.335106 3868.57,742.575106 C3868.57,742.575106 3872.45,740.735106 3872.78,746.025106 C3873.12,751.325106 3874.609,755.975106 3874.609,755.975106 C3874.609,755.975106 3877.31,770.315106 3887.52,775.635106 C3887.96,775.865106 3888.4,776.075106 3888.859,776.275106 C3900.19,780.975106 3905.07,781.825106 3905.07,781.825106 C3905.07,781.825106 3911.04,784.525106 3917.14,783.135106 C3919.7,782.545106 3922.29,781.255106 3924.46,778.715106 C3931.819,770.165106 3941.88,758.405106 3942.71,756.985106 C3943.609,755.465106 3945.15,755.635106 3948.25,760.045106 L3957.6,774.245106 C3957.6,774.245106 3958.29,775.595106 3959.73,776.875106 C3962.35,779.225106 3967.46,781.375106 3975.43,774.745106 C3987.74,764.485106 3987.74,764.485106 3987.74,764.485106 C3987.74,764.485106 3997.72,754.135106 4001.42,740.175106 L4024.86,649.865106 C4025.73,647.755106 4026.38,645.555106 4026.78,643.275106 C4027.77,637.615106 4026.56,631.795106 4024.35,626.175106 C4024.15,625.155106 4023.9,624.135106 4023.6,623.125106 C4023.35,622.585106 4023.08,622.065106 4022.81,621.535106 L4055.46,443.385106 C4062.29,437.465106 4066.79,430.285106 4068.22,422.115106 L4068.22,422.115106 Z" id="Fill-495" fill="#C2D9DF"></path>
            <path d="M4049.49,224.375106 C4048.84,228.065106 4045.33,230.535106 4041.64,229.885106 L3981.46,219.375106 C3977.77,218.725106 3975.3,215.215106 3975.94,211.525106 L3979.45,191.455106 C3980.09,187.765106 3983.61,185.295106 3987.3,185.945106 L4047.48,196.455106 C4051.17,197.105106 4053.64,200.615106 4053,204.305106 L4049.49,224.375106" id="Fill-496" fill="#315187"></path>
            <path d="M3850.9,357.115106 C3847.479,355.065106 3843.77,353.195106 3839.81,351.505106 C3838.81,336.925106 3837.06,322.345106 3834.29,308.145106 C3827.47,282.735106 3807.82,251.575106 3788.52,226.745106 C3797.79,230.315106 3811.069,238.365106 3823.7,253.095106 C3843.58,283.375106 3850.58,320.175106 3850.9,357.115106 Z M3918.78,678.855106 C3918.8,678.975106 3918.81,679.095106 3918.83,679.205106 C3918.7,678.505106 3918.56,677.815106 3918.39,677.125106 C3918.54,677.705106 3918.67,678.275106 3918.78,678.855106 Z M3807.55,460.225106 C3795.72,464.535106 3781.57,468.395106 3764.64,471.415106 C3756.75,472.815106 3749.3,473.745106 3742.25,474.295106 C3741.96,473.315106 3741.67,472.345106 3741.38,471.365106 C3749.07,470.865106 3756.95,469.915106 3764.94,468.495106 C3780.04,465.805106 3794.18,461.655106 3806.92,456.425106 L3807.55,460.225106 Z M3703.24,473.315106 L3702.87,471.385106 C3702.63,470.885106 3702.4,470.385106 3702.16,469.885106 C3713.66,471.625106 3726.15,472.205106 3739.22,471.495106 C3739.51,472.485106 3739.81,473.465106 3740.1,474.455106 C3726.16,475.385106 3713.88,474.795106 3703.24,473.315106 Z M3693.76,719.255106 C3693.74,719.145106 3693.71,719.045106 3693.7,718.945106 C3693.47,717.645106 3693.32,716.345106 3693.22,715.045106 C3693.34,716.445106 3693.52,717.855106 3693.76,719.255106 Z M3874.35,383.705106 L3872.73,374.945106 C3872.73,374.945106 3863.29,297.215106 3834.319,252.185106 C3805.47,207.355106 3763.62,193.815106 3761.359,183.145106 C3763.13,179.755106 3763.83,176.285106 3763.22,172.875106 C3763.11,172.275106 3762.95,171.695106 3762.77,171.115106 C3762.74,170.515106 3762.68,169.915106 3762.57,169.305106 C3761.759,164.775106 3759.34,160.805106 3754.14,157.905106 L3749.86,133.865106 C3750.85,139.455106 3742.2,145.995106 3728.66,150.915106 C3722.32,150.605106 3715.45,151.025106 3708.37,152.285106 C3701.13,153.575106 3694.68,155.565106 3688.74,158.125106 C3674.03,158.275106 3663.63,155.065106 3662.63,149.405106 L3667.08,174.425106 C3664.07,178.545106 3662.92,182.785106 3663.66,186.925106 C3663.77,187.525106 3663.79,188.135106 3663.97,188.715106 C3664,189.315106 3663.98,189.925106 3664.09,190.525106 C3664.65,193.695106 3666.26,196.545106 3668.75,198.995106 C3668.75,198.985106 3668.71,198.975106 3668.71,198.975106 C3670.62,209.665106 3637.43,237.055106 3625.78,289.315106 C3614.13,341.585106 3632.11,417.805106 3632.11,417.805106 L3633.96,426.515106 C3635.83,437.035106 3641.45,446.345106 3650.32,454.035106 L3694.46,701.855106 C3691.14,709.575106 3690.15,717.405106 3691.19,725.205106 L3691.11,725.205106 L3691.12,725.225106 C3691.22,725.825106 3691.01,726.495106 3691.12,727.095106 C3691.65,730.085106 3692.35,732.995106 3693.48,735.765106 L3723.53,848.855106 C3723.53,848.855106 3740.16,895.785106 3753.42,893.425106 L3754.8,893.175106 L3757.98,892.615106 C3757.98,892.615106 3764.61,891.425106 3768.35,886.055106 C3768.35,886.055106 3772.46,881.895106 3775.34,888.505106 C3778.23,895.115106 3782.3,900.375106 3782.3,900.375106 C3782.3,900.375106 3792.43,917.435106 3807.95,919.485106 C3808.609,919.565106 3809.28,919.635106 3809.96,919.665106 C3826.62,920.405106 3833.25,919.225106 3833.25,919.225106 C3833.25,919.225106 3842.14,919.895106 3849.29,915.275106 C3852.29,913.345106 3854.979,910.475106 3856.59,906.235106 C3862.01,891.875106 3869.38,872.175106 3869.79,869.975106 C3870.23,867.615106 3872.27,867.105106 3878.29,871.305106 L3896.85,885.095106 C3896.85,885.095106 3898.36,886.495106 3900.79,887.465106 C3905.24,889.255106 3912.77,889.615106 3919.85,877.445106 C3930.82,858.605106 3930.82,858.605106 3930.82,858.605106 C3930.82,858.605106 3938.75,840.735106 3936.98,821.175106 L3924.91,694.875106 C3925.04,691.775106 3924.85,688.665106 3924.3,685.575106 C3922.93,677.875106 3918.68,671.005106 3913.24,664.835106 C3912.5,663.635106 3911.71,662.445106 3910.86,661.295106 C3910.29,660.735106 3909.7,660.185106 3909.109,659.635106 L3867.94,416.805106 C3873.91,406.085106 3876.33,394.815106 3874.35,383.705106 L3874.35,383.705106 Z" id="Fill-497" fill="#C2D9DF"></path>
            <path d="M3758.41,139.755106 C3759.3,144.775106 3755.96,149.565106 3750.94,150.455106 L3669.15,165.025106 C3664.14,165.915106 3659.35,162.575106 3658.46,157.555106 L3653.6,130.285106 C3652.71,125.275106 3656.05,120.485106 3661.06,119.585106 L3742.85,105.025106 C3747.87,104.135106 3752.66,107.475106 3753.55,112.485106 L3758.41,139.755106" id="Fill-498" fill="#315187"></path>
            <path d="M3684,1638.92511 C3684,1651.16511 3673.73,1661.00511 3661.49,1661.00511 L3616.64,1661.00511 C3604.4,1661.00511 3594,1651.16511 3594,1638.92511 L3594,1486.40511 C3594,1474.16511 3604.4,1464.00511 3616.64,1464.00511 L3661.49,1464.00511 C3673.73,1464.00511 3684,1474.16511 3684,1486.40511 L3684,1638.92511" id="Fill-499" fill="#0B0B09"></path>
            <path d="M4450,1638.84511 C4450,1651.08511 4440.08,1661.00511 4427.84,1661.00511 L4383.16,1661.00511 C4370.92,1661.00511 4361,1651.08511 4361,1638.84511 L4361,1486.16511 C4361,1473.92511 4370.92,1464.00511 4383.16,1464.00511 L4427.84,1464.00511 C4440.08,1464.00511 4450,1473.92511 4450,1486.16511 L4450,1638.84511" id="Fill-500" fill="#0B0B09"></path>
            <path d="M4458.46,561.415106 C4458.46,559.935106 4458.42,558.005106 4458.36,557.005106 L3586.07,557.005106 C3586.01,558.005106 3585.97,559.935106 3585.97,561.415106 L3587.67,595.565106 L4451.97,691.825106 L4458.46,561.415106" id="Fill-501" fill="#B8252B"></path>
            <path d="M3587.67,595.565106 L3635.55,1558.23511 C3635.55,1618.30511 3684.25,1667.00511 3744.32,1667.00511 L4300.11,1667.00511 C4360.18,1667.00511 4408.87,1618.30511 4408.87,1558.23511 L4451.97,691.815106 L3587.67,595.565106" id="Fill-502" fill="#FF000A"></path>
            <path d="M4493,549.815106 C4493,566.235106 4479.93,580.005106 4463.5,580.005106 L3580.92,580.005106 C3564.5,580.005106 3551,566.235106 3551,549.815106 L3551,508.265106 C3551,491.845106 3564.5,479.005106 3580.92,479.005106 L4463.5,479.005106 C4479.93,479.005106 4493,491.845106 4493,508.265106 L4493,549.815106" id="Fill-503" fill="#FF000A"></path>
            <path d="M4070.12,971.055106 L4026.55,1001.72511 L4083.68,994.905106 L4086.21,994.595106 L4093.479,993.745106 L4144.29,987.675106 L4197.25,881.585106 L4152.95,912.775106 L4114.73,846.595106 C4104.49,830.785106 4093.72,823.885106 4083.109,822.785106 C4064.31,821.865106 4045.21,838.735106 4031.63,855.225106 C4027.91,859.955106 4024.52,864.735106 4021.53,869.255106 C4020.35,871.045106 4019.22,872.795106 4018.17,874.475106 C4019.21,876.635106 4020.35,878.955106 4021.53,881.325106 C4023.14,884.555106 4024.83,887.915106 4026.67,891.475106 C4037.83,913.205106 4053.12,940.995106 4070.12,971.055106" id="Fill-504" fill="#FFFFFE"></path>
            <path d="M4185.38,1179.90511 C4179.72,1179.49511 4173.34,1179.09511 4166.39,1178.76511 C4141.99,1177.57511 4110.29,1176.91511 4075.74,1176.61511 L4070.97,1123.54511 L4048.31,1176.43511 L4047.319,1178.76511 L4044.42,1185.50511 L4024.28,1232.54511 L4051.17,1273.21511 L4053.98,1277.47511 L4089.67,1331.43511 L4084.81,1277.47511 L4161.23,1277.47511 C4180.05,1276.51511 4191.4,1270.63511 4197.66,1261.99511 C4207.86,1246.18511 4202.79,1221.20511 4195.3,1201.19511 C4192.19,1193.39511 4188.64,1186.10511 4185.38,1179.90511" id="Fill-505" fill="#FFFFFE"></path>
            <path d="M4272.88,1144.27511 C4272.96,1138.21511 4271.68,1134.58511 4270.89,1132.87511 L4269.95,1131.24511 L4202,1013.53511 L4123.56,1055.15511 C4128.43,1063.32511 4134.319,1073.70511 4140.57,1084.81511 L4183.47,1159.13511 C4185.01,1161.45511 4188.51,1167.00511 4192.63,1174.58511 L4192.87,1174.61511 L4194.14,1176.94511 C4197.29,1182.70511 4200.9,1190.32511 4204.04,1198.73511 C4210.37,1214.87511 4215.51,1233.35511 4212.13,1249.47511 L4272.88,1144.27511" id="Fill-506" fill="#FFFFFE"></path>
            <path d="M4021.53,853.425106 C4022.69,851.915106 4023.88,850.395106 4025.13,848.875106 C4035.95,835.335106 4049.37,821.655106 4065.02,816.515106 L3943.54,816.515106 C3938.26,819.465106 3935.75,822.385106 3934.66,823.935106 L3933.729,825.545106 L3865.77,943.265106 L3941.04,990.385106 C3945.68,982.075106 3951.72,971.785106 3958.22,960.815106 L4001.12,886.505106 C4002.37,884.005106 4005.42,878.205106 4009.92,870.845106 L4009.81,870.635106 L4011.21,868.365106 C4013.88,863.985106 4017.4,858.795106 4021.53,853.425106" id="Fill-507" fill="#FFFFFE"></path>
            <path d="M3831.52,1180.15511 C3839.83,1181.36511 3847.93,1181.94511 3854.91,1182.20511 C3858.109,1177.50511 3861.63,1172.17511 3865.399,1166.34511 C3878.63,1145.79511 3895.05,1118.66511 3912.59,1088.90511 L3960.93,1111.30511 L3926.46,1065.23511 L3924.94,1063.20511 L3920.55,1057.33511 L3889.89,1016.37511 L3841.22,1019.32511 L3836.12,1019.64511 L3771.54,1023.55511 L3820.7,1046.33511 L3782.5,1112.50511 C3773.93,1129.28511 3773.35,1142.06511 3777.69,1151.80511 C3786.29,1168.54511 3810.46,1176.64511 3831.52,1180.15511" id="Fill-508" fill="#FFFFFE"></path>
            <path d="M3959.68,1190.94511 L3873.859,1190.94511 C3871.08,1191.10511 3864.52,1191.37511 3855.92,1191.15511 L3855.77,1191.35511 L3853.11,1191.27511 C3846.54,1191.12511 3838.15,1190.44511 3829.27,1188.95511 C3812.13,1186.37511 3793.57,1181.57511 3781.31,1170.59511 L3842.05,1275.80511 C3847.23,1278.90511 3851.04,1279.61511 3852.89,1279.79511 L3990.69,1279.79511 L3993.87,1191.04511 C3984.36,1191.15511 3972.42,1191.09511 3959.68,1190.94511" id="Fill-509" fill="#FFFFFE"></path>
        </g>
    </g>
</svg>